<svg width="243" height="103" viewBox="0 0 243 103" fill="none" xmlns="http://www.w3.org/2000/svg">
<path d="M113.364 100.604C80.505 96.261 51.5524 86.583 31.3073 74.4767C21.1835 68.4229 13.2692 61.781 8.12481 54.9257C2.98328 48.0742 0.637853 41.0532 1.54443 34.1935C2.44991 27.342 6.48551 21.5151 13.1477 16.7446C19.8199 11.9669 29.0918 8.27798 40.3547 5.73214C62.8771 0.641253 93.1829 0.160636 126.064 4.50619C158.997 8.85864 188.819 14.1987 209.925 21.9816C220.481 25.8743 228.789 30.3543 234.216 35.574C239.618 40.7693 242.143 46.6681 241.241 53.4935C240.333 60.3659 236.066 67.2997 229.044 73.721C222.028 80.1363 212.314 85.9905 200.637 90.7023C177.283 100.125 146.173 104.94 113.364 100.604Z" stroke="#212121" stroke-width="1.5"/>
</svg>
