<svg id="Слой_1" data-name="Слой 1" xmlns="http://www.w3.org/2000/svg" viewBox="0 0 219.63 51.6"><defs><style>.cls-1{fill:#212121;}</style></defs><path class="cls-1" d="M126.53,15.53A3.46,3.46,0,0,0,125.25,14a5.57,5.57,0,0,0-2.29-.89.53.53,0,0,0-.49-.25,3.66,3.66,0,0,0-2,.5,3.37,3.37,0,0,0-1.23,1.23,3.66,3.66,0,0,0,.83,4.72,3.7,3.7,0,0,0,1.83.75,6.53,6.53,0,0,0,.87,0,5,5,0,0,0,1.54-.23A4,4,0,0,0,126,18.85a3.14,3.14,0,0,0,.76-1.59A2.79,2.79,0,0,0,126.53,15.53Zm-4.38-1.19a5.16,5.16,0,0,1,2,.53,2.81,2.81,0,0,1,1.12.94,1.68,1.68,0,0,1,.33,1.1,1.53,1.53,0,0,1-.41,1,2.61,2.61,0,0,1-1.18.72,4.69,4.69,0,0,1-2,.15,2.16,2.16,0,0,1-1.8-1.24,2.33,2.33,0,0,1-.23-1,2.87,2.87,0,0,1,.23-1,2.27,2.27,0,0,1,.67-.84,2.21,2.21,0,0,1,1-.46l.14.09Z" transform="translate(-0.01 -0.81)"/><path class="cls-1" d="M2.14,18.05a.84.84,0,0,0,.39.1h0A.84.84,0,0,0,2.9,18a.86.86,0,0,0,.21-.44c0-1.35-.12-2.71-.23-4s-.24-2.71-.38-4-.27-2.68-.4-4S1.91,2.76,1.87,1.4A.66.66,0,0,0,1.63,1,.53.53,0,0,0,1.22.82.56.56,0,0,0,.81,1a.67.67,0,0,0-.17.48h0c0,1.34.11,2.7.23,4l.38,4c.13,1.31.26,2.66.38,4s.21,2.69.24,4v.05A.7.7,0,0,0,2.14,18.05Z" transform="translate(-0.01 -0.81)"/><path class="cls-1" d="M3.65,20.31a.66.66,0,0,0-.41-.21L3,19.81a.65.65,0,0,0-.87-.06.69.69,0,0,0-.23.4.83.83,0,0,0,.15.5l0,0a3.37,3.37,0,0,0,.46.42,1.31,1.31,0,0,0,.69.25.62.62,0,0,0,.45-.21.57.57,0,0,0,.17-.41A.59.59,0,0,0,3.65,20.31Z" transform="translate(-0.01 -0.81)"/><path class="cls-1" d="M26.43,2.66a.68.68,0,0,0-.49-.24c-1.9.07-3.81.23-5.69.45s-3.77.52-5.63.9L13.5,4a10.35,10.35,0,0,0-1.16.29,5.7,5.7,0,0,0-1.09.45,4.33,4.33,0,0,0-1,.69l0,0a.85.85,0,0,0-.14.34.93.93,0,0,0,0,.36.91.91,0,0,0,.59.57,3.44,3.44,0,0,0,.87.14,6.88,6.88,0,0,0,.91,0l.64-.1a9.93,9.93,0,0,0,2.31-.6c.72-.27,1.47-.51,2.22-.71q.5-.13.9-.21l.62-.08L19,6.42c-.09.52-.16,1-.21,1.55s-.09,1-.13,1.55c-.09,1.33-.13,2.67-.12,4l0,4v.06a.67.67,0,0,0,.26.38.72.72,0,0,0,.38.1h0a.74.74,0,0,0,.36-.17.79.79,0,0,0,.21-.43c0-1.56,0-3.14,0-4.69A40.24,40.24,0,0,1,20,8.09l.1-.84c0-.23.07-.44.11-.65s.08-.42.11-.61.11-.45.17-.75V5.18h0a.26.26,0,0,1,0-.07,1.68,1.68,0,0,0,.06-.27,1.11,1.11,0,0,0,0-.31.58.58,0,0,0-.15-.39l0,0c.78-.09,1.56-.17,2.34-.23,1.07-.1,2.16-.17,3.25-.21a.7.7,0,0,0,.46-.2.69.69,0,0,0,.16-.42A.57.57,0,0,0,26.43,2.66ZM14,5.29a8,8,0,0,1-1.23.24l-.32,0a4.27,4.27,0,0,1,.72-.21L14.82,5l.47-.09C14.88,5.06,14.46,5.18,14,5.29Z" transform="translate(-0.01 -0.81)"/><path class="cls-1" d="M30.77,19a4.67,4.67,0,0,1-.45-1c-.15-.44-.32-.89-.5-1.33a8.82,8.82,0,0,0-.56-1.28,2.07,2.07,0,0,0-.78-.86,1.13,1.13,0,0,0-1.1,0,3.75,3.75,0,0,0-1.23,1.26l-.65.95-.69,1a8.83,8.83,0,0,0-.43.8c0,.09-.09.18-.14.27,0-.26,0-.57-.09-.92s0-.81-.09-1.24,0-.82-.08-1.18c-.17-1.75-.39-3.5-.64-5.22A47.69,47.69,0,0,1,22.9,5a.7.7,0,0,0-.24-.44.56.56,0,0,0-.44-.14.7.7,0,0,0-.41.22.71.71,0,0,0-.16.49h0q0,1.1.09,2.19T22,9.58c.1.76.2,1.51.31,2.26s.19,1.48.28,2.24c.06.49.12,1,.17,1.46s.1,1,.13,1.51c0,.34,0,.68,0,1a10.58,10.58,0,0,0,.1,1.08,2.61,2.61,0,0,0,.34,1.2.68.68,0,0,0,.54.29.48.48,0,0,0,.18,0,1.69,1.69,0,0,0,.76-.51,8.17,8.17,0,0,0,.78-.91c.25-.36.52-.74.78-1.13L27.1,17a8.4,8.4,0,0,1,.65-.82,1.67,1.67,0,0,1,.31-.27,2.3,2.3,0,0,1,.42.68,8.84,8.84,0,0,1,.4,1l.36,1.1a5.14,5.14,0,0,0,.48,1,.72.72,0,0,0,.43.32.65.65,0,0,0,.44-.1.58.58,0,0,0,.24-.36A.74.74,0,0,0,30.77,19Z" transform="translate(-0.01 -0.81)"/><path class="cls-1" d="M37.46,18.12a.52.52,0,0,0-.39-.18.67.67,0,0,0-.49.15,2.2,2.2,0,0,1-.91.56,4.38,4.38,0,0,1-1.21.2,5.14,5.14,0,0,1-1.24-.16,2.59,2.59,0,0,1-1-.48,1.31,1.31,0,0,1-.44-.76,1.24,1.24,0,0,1,.12-.82.69.69,0,0,0,0,.28.84.84,0,0,0,.24.31.65.65,0,0,0,.35.13,2.55,2.55,0,0,0,.72.21l.79,0h0A4.07,4.07,0,0,0,36.18,17a1.46,1.46,0,0,0,.66-1.15,1.74,1.74,0,0,0-.48-1.24,3,3,0,0,0-1.24-.86,2.9,2.9,0,0,0-1.61-.12,2.81,2.81,0,0,0-1.61,1c-.23.26-.41.46-.54.62s-.24.31-.34.45a3.13,3.13,0,0,0-.25.55l-.21.78a2,2,0,0,0,.11,1.42,2.59,2.59,0,0,0,.93,1A4.65,4.65,0,0,0,33,20a7.17,7.17,0,0,0,1.31.12h.33a5.9,5.9,0,0,0,1.58-.3A3.23,3.23,0,0,0,37.51,19l0-.07a.75.75,0,0,0,.07-.43A.63.63,0,0,0,37.46,18.12ZM33,15.37a2.66,2.66,0,0,1,1.11-.32,2,2,0,0,1,.95.18.76.76,0,0,1,.44.36c0,.09,0,.19-.19.32a2.38,2.38,0,0,1-1.26.36,1.08,1.08,0,0,1-.36,0l-.42-.12a2.36,2.36,0,0,0-.45-.08h-.12a1.48,1.48,0,0,0-.35,0l-.05,0-.14.1A2.29,2.29,0,0,1,33,15.37Z" transform="translate(-0.01 -0.81)"/><path class="cls-1" d="M53.55,19.56a.81.81,0,0,0-.23-.4l-.06-.05s-.12-.05-.29-.49l-.42-1.21c-.15-.45-.32-.89-.49-1.31a2.86,2.86,0,0,0-.62-1,.64.64,0,0,0-.88-.08,2.87,2.87,0,0,0-.8,1.42l-.09.26c-.05.16-.12.36-.19.59s-.07.23-.11.34h0q-.07-.54-.21-1.11c-.08-.4-.18-.79-.29-1.18a3.1,3.1,0,0,0-.48-1,1.59,1.59,0,0,0-.73-.62,1.26,1.26,0,0,0-1,0,1.16,1.16,0,0,0-.41.31c-.1.14-.2.28-.3.44a4.59,4.59,0,0,0-.24.5l-.15.41a5.76,5.76,0,0,0-.3,1.32l0,.32c0-.09,0-.18-.07-.26L44.94,16c0-.26-.06-.53-.09-.82s0-.67-.06-1.18a.63.63,0,0,0-.24-.44.53.53,0,0,0-.41-.14.6.6,0,0,0-.44.2.76.76,0,0,0-.16.51h0c0,.89.13,1.84.27,2.83a18.41,18.41,0,0,0,.59,2.75.67.67,0,0,0,.47.5.66.66,0,0,0,.64-.23,3.33,3.33,0,0,0,.55-1.33c.13-.53.25-1.07.36-1.6s.24-1,.38-1.44a1.21,1.21,0,0,1,.43-.66,1.13,1.13,0,0,1,.24.38,4.59,4.59,0,0,1,.32.85c.1.31.18.65.26,1s.14.7.2,1.05l.18.89c0,.26.09.46.13.59l0,.05a.6.6,0,0,0,.43.32A1,1,0,0,0,49.5,20a1.92,1.92,0,0,0,.7-.74,6.65,6.65,0,0,0,.44-1,10,10,0,0,0,.28-1,5.52,5.52,0,0,1,.17-.53,1.54,1.54,0,0,1,.2.58q.12.54.21,1.11a5.12,5.12,0,0,0,.32,1.07,1.52,1.52,0,0,0,.89.81.74.74,0,0,0,.27.06.45.45,0,0,0,.2,0,.53.53,0,0,0,.31-.27A.6.6,0,0,0,53.55,19.56Z" transform="translate(-0.01 -0.81)"/><path class="cls-1" d="M60.94,21a3.8,3.8,0,0,1-.36-1.15,15.08,15.08,0,0,1-.11-1.53c0-.54,0-1.07,0-1.57s0-1,0-1.36a.59.59,0,0,0-.46-.56.58.58,0,0,0-.71.27l-.08.16h0a7.7,7.7,0,0,1-1,1.59,9.41,9.41,0,0,1-1.39,1.36l-.36.28a3.74,3.74,0,0,1-.42.27,3.78,3.78,0,0,1-.46.17.59.59,0,0,1-.35,0,.89.89,0,0,1-.49-.44,2.11,2.11,0,0,1-.17-.76,3.4,3.4,0,0,1,.11-.84,2,2,0,0,1,.3-.66,3.12,3.12,0,0,1,.82-.84,5.52,5.52,0,0,1,1.08-.61,7.54,7.54,0,0,1,1.2-.37,11.42,11.42,0,0,1,1.23-.18l.06,0a.63.63,0,0,0,.36-.29.57.57,0,0,0,.08-.4.48.48,0,0,0-.2-.34.71.71,0,0,0-.43-.19h0a12.51,12.51,0,0,0-1.39.23,8.66,8.66,0,0,0-1.49.49,5.78,5.78,0,0,0-1.38.76,3.15,3.15,0,0,0-1,1.1,4.85,4.85,0,0,1-.29.49,1.15,1.15,0,0,0-.22.64c0,.21,0,.41-.06.62a2.69,2.69,0,0,0,0,.63,4.1,4.1,0,0,0,.24.85,3.37,3.37,0,0,0,.51.81,2.17,2.17,0,0,0,.73.55,1.28,1.28,0,0,0,1,0,5.84,5.84,0,0,0,1.84-1,13.52,13.52,0,0,0,1.46-1.47l0-.06v.62c0,.41,0,.81.08,1.21a8.51,8.51,0,0,0,.19,1.16,4.47,4.47,0,0,0,.44,1.05.64.64,0,0,0,.44.27h.09a.59.59,0,0,0,.31-.08.61.61,0,0,0,.28-.35A.56.56,0,0,0,60.94,21Z" transform="translate(-0.01 -0.81)"/><path class="cls-1" d="M66.77,11.8a.63.63,0,0,0-.37-.19.72.72,0,0,0-.49.15,7.53,7.53,0,0,0-1.11,1.31c-.3.44-.59.9-.87,1.39l-.49-.71a10.6,10.6,0,0,0-.74-1,.61.61,0,0,0-.9-.06.66.66,0,0,0-.19.42.74.74,0,0,0,.15.52h0c.28.35.55.72.81,1.09s.46.67.66,1c-.44.86-.84,1.73-1.18,2.6a18.12,18.12,0,0,0-.81,2.47.68.68,0,0,0,.13.44.53.53,0,0,0,.31.27.54.54,0,0,0,.43,0,.68.68,0,0,0,.34-.38,14.49,14.49,0,0,1,.64-2c.24-.62.51-1.26.82-1.89a17.17,17.17,0,0,1,1,3.34,27.21,27.21,0,0,1,.45,4.11v.05a.57.57,0,0,0,.27.37.56.56,0,0,0,.33.12h.08A.56.56,0,0,0,66.4,25a.72.72,0,0,0,.23-.47,26.55,26.55,0,0,0-.54-4.63,17,17,0,0,0-1.45-4.19c.35-.62.7-1.19,1.06-1.72a9,9,0,0,1,1.11-1.35l0-.07a.9.9,0,0,0,.07-.44A.64.64,0,0,0,66.77,11.8Z" transform="translate(-0.01 -0.81)"/><path class="cls-1" d="M68.23,11.06a.58.58,0,0,0,.38-.13h.13a.59.59,0,0,0,.37-.31.5.5,0,0,0,.06-.4A.58.58,0,0,0,69,9.83a.68.68,0,0,0-.38-.21h0L68,9.76a.71.71,0,0,0-.38.25.63.63,0,0,0-.14.4.65.65,0,0,0,.13.38.73.73,0,0,0,.39.26Z" transform="translate(-0.01 -0.81)"/><path class="cls-1" d="M69.5,16.66a12.65,12.65,0,0,0-.44-2.47.57.57,0,0,0-.31-.35.47.47,0,0,0-.39-.06A.55.55,0,0,0,68,14a.9.9,0,0,0-.13.48v0a14,14,0,0,1,.37,2.29c.08.78.13,1.58.18,2.43a.72.72,0,0,0,.28.4.62.62,0,0,0,.32.09h.07a.68.68,0,0,0,.39-.17.86.86,0,0,0,.21-.48C69.63,18.29,69.57,17.47,69.5,16.66Z" transform="translate(-0.01 -0.81)"/><path class="cls-1" d="M80.11,19.56a.81.81,0,0,0-.23-.4l-.07-.05s-.11-.05-.28-.49l-.42-1.21c-.15-.45-.32-.89-.5-1.31a2.86,2.86,0,0,0-.61-1,.64.64,0,0,0-.88-.08,2.94,2.94,0,0,0-.81,1.42,1.26,1.26,0,0,1-.09.26c0,.16-.11.36-.19.59s-.06.23-.1.34h0c-.05-.36-.13-.73-.21-1.11s-.18-.79-.29-1.18a3.33,3.33,0,0,0-.48-1,1.59,1.59,0,0,0-.73-.62,1.26,1.26,0,0,0-1,0,1.16,1.16,0,0,0-.41.31,3.41,3.41,0,0,0-.3.44,3.27,3.27,0,0,0-.24.5c-.07.16-.12.3-.16.41a6.33,6.33,0,0,0-.29,1.32c0,.11,0,.21,0,.32,0-.1,0-.18-.06-.26L71.5,16c0-.26-.07-.53-.09-.82s0-.67-.06-1.18a.67.67,0,0,0-.24-.44.54.54,0,0,0-.42-.14.59.59,0,0,0-.43.2.76.76,0,0,0-.16.51h0a26.81,26.81,0,0,0,.26,2.83,17.21,17.21,0,0,0,.6,2.75.62.62,0,0,0,1.11.27,3.33,3.33,0,0,0,.55-1.33c.13-.53.25-1.07.36-1.6s.24-1,.37-1.44a1.27,1.27,0,0,1,.44-.66,1.31,1.31,0,0,1,.24.38,4.62,4.62,0,0,1,.31.85,9.1,9.1,0,0,1,.26,1c.08.36.15.7.21,1.05l.17.89c.06.26.1.46.14.59l0,.05a.64.64,0,0,0,.43.32,1.09,1.09,0,0,0,.49-.09,2,2,0,0,0,.7-.74,5.71,5.71,0,0,0,.43-1,8.08,8.08,0,0,0,.29-1c0-.19.11-.37.16-.54a1.49,1.49,0,0,1,.21.59q.12.54.21,1.11a4.59,4.59,0,0,0,.32,1.07,1.52,1.52,0,0,0,.89.81.7.7,0,0,0,.27.06.38.38,0,0,0,.19,0,.55.55,0,0,0,.32-.27A.65.65,0,0,0,80.11,19.56Z" transform="translate(-0.01 -0.81)"/><path class="cls-1" d="M86.82,21.88a.71.71,0,0,0-.21-.41l-.06,0a1.4,1.4,0,0,1-.67-.67,4.69,4.69,0,0,1-.41-1.2A10.46,10.46,0,0,1,85.28,18c0-.56,0-1.11,0-1.63s0-1,0-1.49,0-.87,0-1.2c-.07-.5-.37-.6-.55-.61a.73.73,0,0,0-.67.4l0,.09v0c-.13.41-.25.89-.38,1.43a11.32,11.32,0,0,1-.45,1.55A6.39,6.39,0,0,1,82.5,18a2.29,2.29,0,0,1-.91.78l0-.16c0-.23-.1-.51-.15-.83s-.07-.74-.11-1.14-.06-.82-.09-1.22-.08-.77-.12-1.08a3.81,3.81,0,0,0-.15-.8.6.6,0,0,0-.65-.43.77.77,0,0,0-.56.46l0,.22a1,1,0,0,0,.08.36,7.83,7.83,0,0,1,.13,1.39c0,.55,0,1.1.08,1.64a13,13,0,0,0,.19,1.51,2.25,2.25,0,0,0,.53,1.13h0a1.21,1.21,0,0,0,1.16.39,2,2,0,0,0,1-.69,6,6,0,0,0,.82-1.29c.12-.22.22-.45.32-.68,0,.3,0,.59,0,.89a9.47,9.47,0,0,0,.25,1.74,5.3,5.3,0,0,0,.59,1.45,2.38,2.38,0,0,0,1.11.95.7.7,0,0,0,.27.06.41.41,0,0,0,.19,0,.55.55,0,0,0,.33-.3A.68.68,0,0,0,86.82,21.88Z" transform="translate(-0.01 -0.81)"/><path class="cls-1" d="M95.63,19.56a.74.74,0,0,0-.23-.4l-.06-.05s-.11-.05-.29-.49l-.42-1.21c-.15-.44-.31-.88-.49-1.31a2.86,2.86,0,0,0-.62-1,.64.64,0,0,0-.88-.08,2.87,2.87,0,0,0-.8,1.42l-.09.26c0,.17-.12.36-.19.59s-.07.23-.11.34h0c0-.35-.12-.73-.21-1.11s-.17-.79-.29-1.18a3.1,3.1,0,0,0-.48-1,1.59,1.59,0,0,0-.73-.62,1.26,1.26,0,0,0-1,0,1.06,1.06,0,0,0-.4.31,4.91,4.91,0,0,0-.31.44,4.59,4.59,0,0,0-.24.5l-.15.41a6.34,6.34,0,0,0-.3,1.32l0,.32c0-.1-.05-.18-.07-.26L87,16c0-.26-.06-.53-.09-.82s0-.66-.06-1.18a.63.63,0,0,0-.24-.44.53.53,0,0,0-.41-.14.6.6,0,0,0-.44.2.76.76,0,0,0-.16.51h0c0,.89.13,1.84.27,2.83a18.41,18.41,0,0,0,.59,2.75.67.67,0,0,0,.47.5.66.66,0,0,0,.64-.23,3.33,3.33,0,0,0,.55-1.33c.13-.53.25-1.07.36-1.6a14.76,14.76,0,0,1,.38-1.44,1.21,1.21,0,0,1,.43-.66,1.19,1.19,0,0,1,.25.38,5.49,5.49,0,0,1,.31.85c.09.3.18.64.26,1l.21,1.05.17.89c0,.26.09.46.13.59l0,.05a.6.6,0,0,0,.43.32.93.93,0,0,0,.48-.09,1.92,1.92,0,0,0,.7-.74,6.65,6.65,0,0,0,.44-1,10.74,10.74,0,0,0,.28-1c.06-.19.11-.37.17-.54a1.88,1.88,0,0,1,.21.59c.07.36.14.73.2,1.11a5,5,0,0,0,.32,1.07,1.52,1.52,0,0,0,.89.81.74.74,0,0,0,.27.06.45.45,0,0,0,.2,0,.53.53,0,0,0,.31-.27A.55.55,0,0,0,95.63,19.56Z" transform="translate(-0.01 -0.81)"/><path class="cls-1" d="M109,21a3.39,3.39,0,0,1-.36-1.15,15.08,15.08,0,0,1-.11-1.53c0-.54,0-1.07,0-1.57s0-1,0-1.36a.62.62,0,0,0-.46-.56.58.58,0,0,0-.71.27l-.09.16h0a7.7,7.7,0,0,1-1,1.59,8.53,8.53,0,0,1-1.39,1.36l-.36.28a3,3,0,0,1-.42.27,3.15,3.15,0,0,1-.45.17.63.63,0,0,1-.36,0,.84.84,0,0,1-.48-.44,2.11,2.11,0,0,1-.17-.76,3.39,3.39,0,0,1,.1-.84,2.4,2.4,0,0,1,.3-.66,3.16,3.16,0,0,1,.83-.84,5.25,5.25,0,0,1,1.08-.61,7.24,7.24,0,0,1,1.2-.37,11.06,11.06,0,0,1,1.23-.18l0,0a.65.65,0,0,0,.37-.29.62.62,0,0,0,.08-.39.48.48,0,0,0-.21-.35.68.68,0,0,0-.42-.19h0a13.05,13.05,0,0,0-1.4.23,9.27,9.27,0,0,0-1.49.49,5.72,5.72,0,0,0-1.37.76,3.19,3.19,0,0,0-1,1.1,2.74,2.74,0,0,1-.29.49,1.23,1.23,0,0,0-.22.64l-.06.62a4.51,4.51,0,0,0,0,.63,3.62,3.62,0,0,0,.25.85,3.33,3.33,0,0,0,.5.81,2.2,2.2,0,0,0,.74.55,1.28,1.28,0,0,0,1,0,5.69,5.69,0,0,0,1.83-1,13.6,13.6,0,0,0,1.47-1.47l0-.06v.62c0,.42,0,.82.07,1.21a8.78,8.78,0,0,0,.2,1.16,4.22,4.22,0,0,0,.43,1.05.66.66,0,0,0,.44.27h.09a.63.63,0,0,0,.32-.08.7.7,0,0,0,.28-.35A.59.59,0,0,0,109,21Z" transform="translate(-0.01 -0.81)"/><path class="cls-1" d="M119.38,19.56a.74.74,0,0,0-.23-.4l-.06-.05s-.12-.05-.29-.49l-.42-1.21c-.15-.44-.32-.88-.49-1.31a2.86,2.86,0,0,0-.62-1,.64.64,0,0,0-.88-.08,2.87,2.87,0,0,0-.8,1.42l-.09.26c0,.16-.12.36-.19.59s-.07.23-.11.34h0q-.08-.54-.21-1.11a11.94,11.94,0,0,0-.29-1.18,3.1,3.1,0,0,0-.48-1,1.59,1.59,0,0,0-.73-.62,1.26,1.26,0,0,0-1,0,1.06,1.06,0,0,0-.4.31,3.8,3.8,0,0,0-.31.44,4.59,4.59,0,0,0-.24.5l-.15.41a5.76,5.76,0,0,0-.3,1.32l0,.32c0-.1-.05-.18-.07-.26l-.17-.85c0-.26-.07-.53-.09-.82s0-.67-.06-1.18a.63.63,0,0,0-.24-.44.53.53,0,0,0-.41-.14.6.6,0,0,0-.44.2.76.76,0,0,0-.16.51h0c0,.89.13,1.84.27,2.83a18.69,18.69,0,0,0,.59,2.75.67.67,0,0,0,.47.5.66.66,0,0,0,.64-.23,3.33,3.33,0,0,0,.55-1.33c.13-.53.25-1.07.36-1.6a14.76,14.76,0,0,1,.38-1.44,1.21,1.21,0,0,1,.43-.66,1,1,0,0,1,.24.38,4.59,4.59,0,0,1,.32.85c.09.31.18.64.26,1s.14.7.2,1l.18.9c0,.26.09.46.13.59l0,.05a.61.61,0,0,0,.42.32,1.07,1.07,0,0,0,.49-.09,1.92,1.92,0,0,0,.7-.74,6.65,6.65,0,0,0,.44-1c.11-.36.21-.71.28-1s.11-.37.17-.54a1.65,1.65,0,0,1,.2.59q.12.54.21,1.11a4.59,4.59,0,0,0,.32,1.07,1.52,1.52,0,0,0,.89.81.74.74,0,0,0,.27.06.45.45,0,0,0,.2,0,.53.53,0,0,0,.31-.27A.55.55,0,0,0,119.38,19.56Z" transform="translate(-0.01 -0.81)"/><path class="cls-1" d="M133.89,21.87a.71.71,0,0,0-.21-.4l-.06,0a1.34,1.34,0,0,1-.66-.67,4.56,4.56,0,0,1-.42-1.2,10.43,10.43,0,0,1-.19-1.55q0-.8,0-1.62c0-.54,0-1,0-1.49a10,10,0,0,0,0-1.2c-.07-.5-.37-.6-.54-.61a.73.73,0,0,0-.68.4l0,.09v0c-.13.41-.25.89-.38,1.43a12.36,12.36,0,0,1-.44,1.55,6.87,6.87,0,0,1-.7,1.38,2.32,2.32,0,0,1-.91.77.64.64,0,0,1,0-.15c0-.23-.09-.51-.14-.83s-.08-.74-.12-1.14-.05-.82-.09-1.22-.08-.77-.12-1.08a3.56,3.56,0,0,0-.15-.81.61.61,0,0,0-.64-.42.75.75,0,0,0-.57.46l0,.22a1,1,0,0,0,.08.36,10.3,10.3,0,0,1,.13,1.39c0,.55,0,1.1.07,1.64a12.32,12.32,0,0,0,.2,1.51,2.1,2.1,0,0,0,.53,1.13h0a1.21,1.21,0,0,0,1.16.39,2,2,0,0,0,1-.69,6.37,6.37,0,0,0,.83-1.29c.11-.22.21-.45.32-.68,0,.3,0,.59,0,.89a10.41,10.41,0,0,0,.25,1.74,5.3,5.3,0,0,0,.59,1.45,2.38,2.38,0,0,0,1.11.95.74.74,0,0,0,.27.06.38.38,0,0,0,.19,0,.52.52,0,0,0,.33-.3A.71.71,0,0,0,133.89,21.87Z" transform="translate(-0.01 -0.81)"/><path class="cls-1" d="M139.61,21.85q-.3-.78-.54-1.59l-.51-1.59c-.17-.54-.34-1.06-.52-1.58s-.39-1.08-.62-1.6l-.27-.61a2.57,2.57,0,0,0-.36-.65l-.29-.37a1.41,1.41,0,0,0-.4-.37.85.85,0,0,0-1,0,2.23,2.23,0,0,0-.69.81A5.37,5.37,0,0,0,134,15c0-.17,0-.34,0-.51a.69.69,0,0,0-.19-.43.55.55,0,0,0-.36-.17.59.59,0,0,0-.39.08.67.67,0,0,0-.29.38v0a17.43,17.43,0,0,0,0,2.6,18.25,18.25,0,0,0,.44,2.51.7.7,0,0,0,.19.36.9.9,0,0,0,.39.16H134a.67.67,0,0,0,.66-.58,7.39,7.39,0,0,0,.14-1.29c0-.44,0-.87.08-1.3a7,7,0,0,1,.2-1.24,3,3,0,0,1,.43-.93,5.55,5.55,0,0,1,.81,1.4c.28.65.55,1.35.79,2.09s.48,1.47.68,2.2.43,1.38.63,1.91l0,.05a.62.62,0,0,0,.38.26.45.45,0,0,0,.16,0,.56.56,0,0,0,.23-.05.57.57,0,0,0,.29-.28.79.79,0,0,0,.08-.44Z" transform="translate(-0.01 -0.81)"/><path class="cls-1" d="M144.71,9a.51.51,0,0,0-.31-.3.68.68,0,0,0-.49,0c-.53.26-1.07.53-1.58.8s-.82.42-1.25.6l.21-3.25a2.26,2.26,0,0,1,0-.35c0-.21,0-.44,0-.69a7.27,7.27,0,0,0,0-.82,4,4,0,0,0-.07-.81,2.44,2.44,0,0,0-.23-.72.89.89,0,0,0-.56-.49.7.7,0,0,0-.44.08.63.63,0,0,0-.29.33.86.86,0,0,0,0,.42.87.87,0,0,0,.25.3.47.47,0,0,1,0,.17v.29a19.7,19.7,0,0,1-.05,2.28c-.06.8-.1,1.55-.16,2.26l-.1,1.47a6.5,6.5,0,0,1-1.23.23.71.71,0,0,0-.43.3.68.68,0,0,0-.08.42.72.72,0,0,0,.2.37.69.69,0,0,0,.51.14l.61-.08.34-.07c-.05.76-.09,1.55-.12,2.38s0,1.82,0,2.71a24.7,24.7,0,0,0,.23,2.54,8.55,8.55,0,0,0,.54,2.1c.13.32.26.63.38.94l.43,1a.62.62,0,0,0,.37.26l.17,0a.46.46,0,0,0,.23-.06.5.5,0,0,0,.28-.27.77.77,0,0,0,.09-.44l0-.06c-.13-.3-.27-.61-.42-.92s-.25-.6-.35-.9a16.08,16.08,0,0,1-.53-2.36c-.1-.83-.16-1.66-.18-2.46s0-1.66,0-2.49.09-1.58.15-2.35a13.9,13.9,0,0,0,1.71-.79c.58-.31,1.19-.61,1.79-.91l.06,0a.64.64,0,0,0,.2-.38A.51.51,0,0,0,144.71,9Z" transform="translate(-0.01 -0.81)"/><path class="cls-1" d="M158,15.53A3.58,3.58,0,0,0,156.71,14a5.72,5.72,0,0,0-2.29-.89.53.53,0,0,0-.49-.25,3.6,3.6,0,0,0-2,.51,3.3,3.3,0,0,0-1.23,1.23,3.77,3.77,0,0,0-.48,1.64,3.53,3.53,0,0,0,1.31,3.08,3.61,3.61,0,0,0,1.83.74,6.58,6.58,0,0,0,.87.06,4.69,4.69,0,0,0,1.54-.24,4,4,0,0,0,1.64-1.06,3.23,3.23,0,0,0,.77-1.6A2.8,2.8,0,0,0,158,15.53Zm-4.38-1.18a5.11,5.11,0,0,1,2,.53,2.83,2.83,0,0,1,1.13.94,1.71,1.71,0,0,1,.32,1.1,1.55,1.55,0,0,1-.41,1,2.7,2.7,0,0,1-1.18.72,4.52,4.52,0,0,1-2,.14,2.2,2.2,0,0,1-2-2.24,2.71,2.71,0,0,1,.22-1,2.44,2.44,0,0,1,.67-.84,2.3,2.3,0,0,1,1-.45l.14.09Z" transform="translate(-0.01 -0.81)"/><path class="cls-1" d="M160.54,7a5.94,5.94,0,0,1,.53-1.12,2.11,2.11,0,0,1,.53-.57,1.33,1.33,0,0,1,.57-.22,4.71,4.71,0,0,1,1.15,0c.12,0,.16.05.21.16a.67.67,0,0,0,.38.29.57.57,0,0,0,.41,0,.65.65,0,0,0,.31-.28.68.68,0,0,0,0-.53A1.6,1.6,0,0,0,163,3.56a2.88,2.88,0,0,0-1.12.28,4.91,4.91,0,0,0-1.05.67,5.43,5.43,0,0,0-.88.91,3.27,3.27,0,0,0-.57,1.09,13.92,13.92,0,0,0-.29,1.57c-.1.66-.19,1.44-.29,2.31l-.65.1c-.24,0-.47,0-.7,0a.71.71,0,0,0-.7,0,.72.72,0,0,0-.22.34.91.91,0,0,0,0,.46v.09l0,.05a.62.62,0,0,0,.19.24l.07,0,.15.07.05,0h.05a8.45,8.45,0,0,0,.89,0l.65-.08c-.07.82-.13,1.69-.18,2.59s-.08,1.92-.08,2.78,0,1.65.1,2.32a4,4,0,0,0,.4,1.51.73.73,0,0,0,.57.32h.2l.07,0c.44-.18.47-.47.45-.62a.68.68,0,0,0-.29-.52,3,3,0,0,1-.19-.77,9.66,9.66,0,0,1,0-1.08c0-.38,0-.74.05-1.07a7.78,7.78,0,0,0,.06-.84c0-.82,0-1.66,0-2.51s0-1.58,0-2.37l1.92-.51a11.07,11.07,0,0,1,2.27-.39.7.7,0,0,0,.45-.24.69.69,0,0,0,.16-.42.64.64,0,0,0-.15-.4.67.67,0,0,0-.46-.25h0a11.1,11.1,0,0,0-2.2.42c-.61.18-1.23.33-1.84.47.06-.5.13-1,.21-1.46A9.7,9.7,0,0,1,160.54,7Z" transform="translate(-0.01 -0.81)"/><path class="cls-1" d="M180.59,19.56a.74.74,0,0,0-.23-.4l-.06-.05s-.12-.05-.29-.49l-.42-1.21c-.15-.44-.32-.88-.49-1.31a2.86,2.86,0,0,0-.62-1,.64.64,0,0,0-.88-.08,2.87,2.87,0,0,0-.8,1.42l-.09.26c-.05.16-.12.36-.19.59s-.07.23-.11.34h0q-.07-.54-.21-1.11a11.94,11.94,0,0,0-.29-1.18,3.1,3.1,0,0,0-.48-1,1.59,1.59,0,0,0-.73-.62,1.26,1.26,0,0,0-1,0,1.06,1.06,0,0,0-.4.31,3.8,3.8,0,0,0-.31.44,4.59,4.59,0,0,0-.24.5l-.15.41a5.76,5.76,0,0,0-.3,1.32l0,.32c0-.1-.05-.18-.07-.26L172,16c0-.26-.06-.53-.09-.82s0-.66-.06-1.18a.66.66,0,0,0-.24-.44.53.53,0,0,0-.41-.14.6.6,0,0,0-.44.2.76.76,0,0,0-.16.51h0c0,.88.13,1.84.27,2.83a19,19,0,0,0,.59,2.75.67.67,0,0,0,.47.5.66.66,0,0,0,.64-.23,3.33,3.33,0,0,0,.55-1.33c.13-.53.25-1.07.36-1.6a14.76,14.76,0,0,1,.38-1.44,1.21,1.21,0,0,1,.43-.66,1,1,0,0,1,.24.38,4.59,4.59,0,0,1,.32.85c.09.31.18.64.26,1s.14.7.2,1l.18.9c.05.26.09.46.13.59l0,.05a.61.61,0,0,0,.42.32,1.07,1.07,0,0,0,.49-.09,1.92,1.92,0,0,0,.7-.74,6.65,6.65,0,0,0,.44-1,10.74,10.74,0,0,0,.28-1c.06-.19.11-.37.17-.54a1.65,1.65,0,0,1,.2.59q.12.54.21,1.11a4.59,4.59,0,0,0,.32,1.07,1.52,1.52,0,0,0,.89.81.74.74,0,0,0,.27.06.45.45,0,0,0,.2,0,.53.53,0,0,0,.31-.27A.59.59,0,0,0,180.59,19.56Z" transform="translate(-0.01 -0.81)"/><path class="cls-1" d="M187,18.12a.45.45,0,0,0-.39-.18.67.67,0,0,0-.49.15,2.26,2.26,0,0,1-.91.56,4.51,4.51,0,0,1-1.21.2,5.14,5.14,0,0,1-1.24-.16,2.59,2.59,0,0,1-1-.48,1.28,1.28,0,0,1-.33-1.58,1,1,0,0,0,0,.28.77.77,0,0,0,.24.31.63.63,0,0,0,.35.13,2.45,2.45,0,0,0,.72.21l.79,0h0a4.07,4.07,0,0,0,2.11-.58,1.46,1.46,0,0,0,.66-1.15,1.77,1.77,0,0,0-.48-1.24,3,3,0,0,0-1.24-.86,2.9,2.9,0,0,0-1.61-.12,2.78,2.78,0,0,0-1.61,1c-.23.26-.41.46-.54.62a5.33,5.33,0,0,0-.34.45,3.13,3.13,0,0,0-.25.55l-.21.78a2,2,0,0,0,.11,1.42,2.59,2.59,0,0,0,.93,1,4.69,4.69,0,0,0,1.43.56,7.37,7.37,0,0,0,1.32.12h.33a6,6,0,0,0,1.58-.3A3.23,3.23,0,0,0,187,19l0-.07a.86.86,0,0,0,.07-.43A.63.63,0,0,0,187,18.12Zm-4.47-2.75a2.66,2.66,0,0,1,1.12-.32,2.05,2.05,0,0,1,.94.18.72.72,0,0,1,.44.36c0,.09,0,.19-.19.32a2.38,2.38,0,0,1-1.26.36,1.05,1.05,0,0,1-.36,0l-.42-.12a2.51,2.51,0,0,0-.45-.08h-.12a1.48,1.48,0,0,0-.35,0l0,0-.14.1A2.29,2.29,0,0,1,182.5,15.37Z" transform="translate(-0.01 -0.81)"/><path class="cls-1" d="M197.13,19.56a.87.87,0,0,0-.22-.41l-.07,0s-.11-.05-.28-.49l-.42-1.21c-.15-.44-.32-.88-.5-1.31a2.86,2.86,0,0,0-.61-1,.64.64,0,0,0-.88-.08,2.86,2.86,0,0,0-.81,1.42l-.09.26c-.05.16-.11.36-.19.59l-.1.34h0c-.06-.36-.13-.73-.22-1.11a9.67,9.67,0,0,0-.29-1.18,3.1,3.1,0,0,0-.48-1,1.54,1.54,0,0,0-.73-.62,1.23,1.23,0,0,0-1,0,1.08,1.08,0,0,0-.41.31,2.83,2.83,0,0,0-.3.44,2.55,2.55,0,0,0-.24.5c-.07.16-.12.3-.16.41a6.33,6.33,0,0,0-.29,1.32c0,.11,0,.21,0,.32,0-.1,0-.18-.06-.26l-.17-.85c0-.26-.07-.53-.1-.82s0-.66-.05-1.18a.7.7,0,0,0-.24-.44.55.55,0,0,0-.42-.14.61.61,0,0,0-.44.2.82.82,0,0,0-.16.51h0c0,.88.13,1.84.27,2.83a17.71,17.71,0,0,0,.6,2.75.66.66,0,0,0,.46.5.68.68,0,0,0,.65-.23,3.49,3.49,0,0,0,.55-1.33L190,17c.11-.54.24-1,.37-1.44a1.26,1.26,0,0,1,.43-.66,1.19,1.19,0,0,1,.25.38,4.62,4.62,0,0,1,.31.85,8.55,8.55,0,0,1,.26,1c.08.36.15.7.21,1l.17.9a5.89,5.89,0,0,0,.14.59l0,.05a.62.62,0,0,0,.43.32,1.11,1.11,0,0,0,.49-.09,2.08,2.08,0,0,0,.7-.74,6.61,6.61,0,0,0,.43-1c.12-.35.21-.7.29-1,.05-.19.1-.37.16-.54a1.88,1.88,0,0,1,.21.59c.08.36.14.73.21,1.11a4.57,4.57,0,0,0,.31,1.07,1.52,1.52,0,0,0,.89.81.74.74,0,0,0,.28.06.41.41,0,0,0,.19,0,.53.53,0,0,0,.31-.27A.55.55,0,0,0,197.13,19.56Z" transform="translate(-0.01 -0.81)"/><path class="cls-1" d="M204.29,15.53A3.61,3.61,0,0,0,203,14a5.72,5.72,0,0,0-2.29-.89.52.52,0,0,0-.48-.25,3.63,3.63,0,0,0-2,.51A3.37,3.37,0,0,0,197,14.64a3.77,3.77,0,0,0-.48,1.64,3.87,3.87,0,0,0,.26,1.69,4,4,0,0,0,1.05,1.39,3.64,3.64,0,0,0,1.83.74,6.58,6.58,0,0,0,.87.06,4.69,4.69,0,0,0,1.54-.24,4,4,0,0,0,1.64-1.06,3.07,3.07,0,0,0,.77-1.6A2.86,2.86,0,0,0,204.29,15.53Zm-4.38-1.18a5.11,5.11,0,0,1,2,.53,2.77,2.77,0,0,1,1.13.94,1.64,1.64,0,0,1,.32,1.1,1.59,1.59,0,0,1-.4,1,2.8,2.8,0,0,1-1.19.72,4.52,4.52,0,0,1-2,.14,2.42,2.42,0,0,1-1.14-.41,2.32,2.32,0,0,1-.89-1.83,2.72,2.72,0,0,1,.23-1,2.41,2.41,0,0,1,.66-.84,2.35,2.35,0,0,1,1-.45l.15.09Z" transform="translate(-0.01 -0.81)"/><path class="cls-1" d="M210.78,12.6a.68.68,0,0,0-.3-.28.55.55,0,0,0-.49,0A7.35,7.35,0,0,0,207.75,14a7.47,7.47,0,0,0-1.16,1.71l0-.08c-.07-.23-.15-.46-.22-.67s-.15-.44-.21-.64a2.62,2.62,0,0,1-.07-.62.65.65,0,0,0-.24-.44.58.58,0,0,0-.41-.15.59.59,0,0,0-.44.21.75.75,0,0,0-.15.31v.18h.2l-.19.05v.06c0,.07,0,.15.06.28s.08.21.12.34l.11.31v0a1.23,1.23,0,0,1,.15.43c0,.16.07.4.14.75a7.57,7.57,0,0,1,.26,1.66c0,.58,0,1.18,0,1.78v.63l.13.31.1.11a.26.26,0,0,0,.16.09.54.54,0,0,0,.21.05h.21a.68.68,0,0,0,.38-.35A.43.43,0,0,0,207,20v-.45a8.06,8.06,0,0,1,.91-3.67,5.89,5.89,0,0,1,2.7-2.47.58.58,0,0,0,.26-.4A.59.59,0,0,0,210.78,12.6Z" transform="translate(-0.01 -0.81)"/><path class="cls-1" d="M219.61,25.15a21.75,21.75,0,0,0-.5-3.24c-.26-1.07-.54-2.13-.84-3.14-.05-.19-.11-.41-.17-.66s-.13-.52-.21-.79-.17-.53-.27-.78a3.48,3.48,0,0,0-.39-.71.59.59,0,0,0-.22-.15l-.24-.09-.06,0-.05,0a1.35,1.35,0,0,0-.84.59,3.62,3.62,0,0,0-.38.84l-.29.91a1.59,1.59,0,0,1-.43.71c-.45.47-.7.56-.87.55a.65.65,0,0,1-.52-.32,3.06,3.06,0,0,1-.39-1,10.59,10.59,0,0,1-.23-1.37c-.05-.48-.08-.92-.09-1.3v-.95a.64.64,0,0,0-.23-.44.58.58,0,0,0-.44-.14.67.67,0,0,0-.42.22.76.76,0,0,0-.16.49c0,.38,0,.75,0,1.12s0,.72,0,1.1a10.67,10.67,0,0,0,.14,1.1,5,5,0,0,0,.33,1.14,2.52,2.52,0,0,0,1,1.26,1.91,1.91,0,0,0,1.25.23,2.71,2.71,0,0,0,1.23-.55,4.41,4.41,0,0,0,1-1,2.4,2.4,0,0,0,.33-.89l0-.17c.26.7.51,1.45.76,2.25a26.64,26.64,0,0,1,.82,3.19,17.68,17.68,0,0,1,.3,3.21,9,9,0,0,1-.45,3,4.12,4.12,0,0,1-.87,1.54,2.67,2.67,0,0,1-1.06.76,1.42,1.42,0,0,1-1,0,1,1,0,0,1-.58-.56,2.29,2.29,0,0,1,0-1.25,6.22,6.22,0,0,1,1-2,.8.8,0,0,0,.05-.54.66.66,0,0,0-.24-.38.57.57,0,0,0-.43-.12.63.63,0,0,0-.45.3c-.22.32-.43.68-.64,1.06a6.31,6.31,0,0,0-.5,1.21,4.15,4.15,0,0,0-.2,1.3,3.11,3.11,0,0,0,.28,1.3,1.64,1.64,0,0,0,1.07.92,2.72,2.72,0,0,0,.8.12,3.69,3.69,0,0,0,.65-.07,4.32,4.32,0,0,0,1.38-.54,2.84,2.84,0,0,0,1-.93,9,9,0,0,0,1.1-3.09A13.29,13.29,0,0,0,219.61,25.15Z" transform="translate(-0.01 -0.81)"/><path class="cls-1" d="M7.14,46.87a.71.71,0,0,0-.21-.4l-.06,0a1.36,1.36,0,0,1-.67-.67,4.56,4.56,0,0,1-.42-1.2A10.46,10.46,0,0,1,5.6,43c0-.55,0-1.09,0-1.62s0-1,0-1.49,0-.87,0-1.2c-.07-.5-.38-.6-.55-.61a.73.73,0,0,0-.67.4l0,.09v0C4.22,39,4.09,39.5,4,40a14.39,14.39,0,0,1-.45,1.55A6.39,6.39,0,0,1,2.82,43a2.36,2.36,0,0,1-.91.78,1.23,1.23,0,0,1,0-.16c-.05-.23-.1-.51-.15-.83s-.07-.74-.11-1.13-.06-.83-.1-1.23-.07-.77-.11-1.08a4.6,4.6,0,0,0-.15-.8.61.61,0,0,0-.65-.43.78.78,0,0,0-.57.46l0,.22a1,1,0,0,0,.08.36,8.89,8.89,0,0,1,.13,1.39c0,.55,0,1.1.08,1.64a13,13,0,0,0,.19,1.51A2.17,2.17,0,0,0,1,44.8H1a1.26,1.26,0,0,0,1.15.38,2.07,2.07,0,0,0,1-.69A6.36,6.36,0,0,0,4,43.21c.11-.22.22-.45.32-.68,0,.3,0,.59,0,.89a10.24,10.24,0,0,0,.26,1.74,5.3,5.3,0,0,0,.59,1.45,2.31,2.31,0,0,0,1.1,1,.74.74,0,0,0,.28.06.41.41,0,0,0,.19,0,.56.56,0,0,0,.32-.3A.64.64,0,0,0,7.14,46.87Z" transform="translate(-0.01 -0.81)"/><path class="cls-1" d="M14.26,42.44a3.72,3.72,0,0,0-.89-1.15,5.25,5.25,0,0,0-1.13-.71A8.4,8.4,0,0,0,11,40.13l-1.31-.32c-.42-.11-.86-.24-1.28-.37a6,6,0,0,1-.85-.39,5.71,5.71,0,0,1,.61-.29,7.14,7.14,0,0,1,1-.29c.35-.08.7-.14,1-.19l1-.17.63-.1.65-.11.71-.09a.71.71,0,0,0,.83-.18.62.62,0,0,0,.11-.44.76.76,0,0,0-.25-.46l0,0a1.52,1.52,0,0,0-.91-.19h0a8.69,8.69,0,0,0-1.46.09c-.55.08-1.14.2-1.75.35A13.35,13.35,0,0,0,8,37.5a6.28,6.28,0,0,0-1.35.71,1.38,1.38,0,0,0-.64.94,1,1,0,0,0,0,.26l0,.06a1.15,1.15,0,0,1,.1.18l.07.07a6,6,0,0,0,1.16.57c.43.15.88.29,1.34.42l1.38.38a7.18,7.18,0,0,1,1.26.43,3.88,3.88,0,0,1,1,.58,2.13,2.13,0,0,1,.61.7,1.84,1.84,0,0,1-.92.72,4.93,4.93,0,0,1-1.44.31,11.61,11.61,0,0,1-1.56,0l-1.38-.19H7.58a.74.74,0,0,0-.38.24.55.55,0,0,0-.14.39.62.62,0,0,0,.13.38.77.77,0,0,0,.42.29c.54.08,1.12.14,1.72.19.21,0,.42,0,.62,0a9.6,9.6,0,0,0,1.21-.07,5.43,5.43,0,0,0,1.72-.56,3.58,3.58,0,0,0,1.37-1.26l0,0A1.25,1.25,0,0,0,14.26,42.44Z" transform="translate(-0.01 -0.81)"/><path class="cls-1" d="M21.42,43.12a.5.5,0,0,0-.39-.18h0a.7.7,0,0,0-.5.15,2.16,2.16,0,0,1-.9.56,4.44,4.44,0,0,1-1.21.2,4.58,4.58,0,0,1-1.24-.16,2.74,2.74,0,0,1-1-.47,1.44,1.44,0,0,1-.45-.77,1.38,1.38,0,0,1,.12-.82,1.41,1.41,0,0,0,0,.28.87.87,0,0,0,.24.31.69.69,0,0,0,.36.13,2.45,2.45,0,0,0,.72.21l.79,0h0a4,4,0,0,0,2.1-.58,1.45,1.45,0,0,0,.67-1.15,1.79,1.79,0,0,0-.48-1.24,3.12,3.12,0,0,0-1.24-.86,2.9,2.9,0,0,0-1.61-.12,2.83,2.83,0,0,0-1.62,1l-.53.62a5.33,5.33,0,0,0-.34.45,2.34,2.34,0,0,0-.25.55l-.21.78a2,2,0,0,0,.11,1.42,2.52,2.52,0,0,0,.93,1A4.69,4.69,0,0,0,17,45a7.37,7.37,0,0,0,1.32.12h.33a5.9,5.9,0,0,0,1.57-.3A3.35,3.35,0,0,0,21.47,44l0-.07a.85.85,0,0,0,.07-.43A.7.7,0,0,0,21.42,43.12ZM17,40.37a2.62,2.62,0,0,1,1.11-.32,2,2,0,0,1,.94.18c.17.07.39.18.45.36s0,.19-.19.32a2.47,2.47,0,0,1-1.26.36.92.92,0,0,1-.37,0l-.41-.11a2.61,2.61,0,0,0-.46-.08h-.11a1.49,1.49,0,0,0-.36,0l-.05,0-.13.1A2.29,2.29,0,0,1,17,40.37Z" transform="translate(-0.01 -0.81)"/><path class="cls-1" d="M30.33,33.94c0-.26,0-.55,0-.87s-.06-.65-.09-1a8.72,8.72,0,0,0-.16-1,2.84,2.84,0,0,0-.24-.82,1.13,1.13,0,0,0-.42-.58.69.69,0,0,0-.42-.08.7.7,0,0,0-.42.27,6.94,6.94,0,0,0-1,2.12c-.17.7-.33,1.48-.46,2.32-.06.43-.15,1.07-.26,1.91s-.19,1.63-.27,2.56h0l-.27,0h0a11.12,11.12,0,0,0-1.16.13,5.69,5.69,0,0,0-1.14.32,3.58,3.58,0,0,0-1,.62,3.76,3.76,0,0,0-.86,1A4.91,4.91,0,0,0,21.56,42a3.88,3.88,0,0,0-.16,1.34,2.15,2.15,0,0,0,.42,1.17,1.69,1.69,0,0,0,1.29.61,2.87,2.87,0,0,0,.81-.06,4.84,4.84,0,0,0,.83-.22q.41-.15.78-.33a6.85,6.85,0,0,0,.71-.39l.08-.06c0,.51.06,1,.12,1.49a12.68,12.68,0,0,0,.27,1.67,7,7,0,0,0,.49,1.38,3.24,3.24,0,0,0,.77,1l.06,0a1.41,1.41,0,0,0,.39.09h0a.66.66,0,0,0,.44-.2l.15-.23a.73.73,0,0,0-.09-.82.6.6,0,0,0-.52-.2,2.1,2.1,0,0,1-.18-.4,4.18,4.18,0,0,1-.19-.6c0-.21-.09-.42-.13-.62a4.19,4.19,0,0,0-.1-.57,7.36,7.36,0,0,1-.18-1.27c0-.52-.05-1.13-.06-1.8a7.7,7.7,0,0,0,1.31-1.75,10.77,10.77,0,0,0,.89-2.13,12.33,12.33,0,0,0,.44-2.32,18.88,18.88,0,0,0,.12-2.38C30.36,34.36,30.34,34.18,30.33,33.94Zm-2.64,5.79c0-.77.12-1.54.21-2.3s.21-1.57.32-2.29.27-1.41.43-2c.09-.32.18-.63.27-.91a1.64,1.64,0,0,1,0,.23c0,.38.07.74.08,1.1s0,.64.06.89,0,.37,0,.41A13.77,13.77,0,0,1,29,36.47a12.44,12.44,0,0,1-.32,1.77A11.19,11.19,0,0,1,28.1,40a8.51,8.51,0,0,1-.44.91l0-.56L27.8,40Zm-1.27.35c0,.39-.05.78-.08,1.18s0,.9,0,1.36a4.08,4.08,0,0,1-1.36.88,3.76,3.76,0,0,1-1.74.26c-.36,0-.45-.17-.47-.21a1.29,1.29,0,0,1-.11-.62,3,3,0,0,1,.17-.78,3.07,3.07,0,0,1,.32-.61,3.69,3.69,0,0,1,.65-.7,2.5,2.5,0,0,1,.73-.44,3.28,3.28,0,0,1,.83-.22,6.82,6.82,0,0,1,.93-.09Z" transform="translate(-0.01 -0.81)"/><path class="cls-1" d="M37.13,36.06a.65.65,0,0,0,.38-.13h.12a.62.62,0,0,0,.38-.31.6.6,0,0,0,.06-.4.58.58,0,0,0-.21-.38.68.68,0,0,0-.38-.21h0l-.49.15a.71.71,0,0,0-.38.25.57.57,0,0,0-.14.39.65.65,0,0,0,.13.39.73.73,0,0,0,.39.26Z" transform="translate(-0.01 -0.81)"/><path class="cls-1" d="M38.39,41.66A11.93,11.93,0,0,0,38,39.19a.61.61,0,0,0-.31-.35.49.49,0,0,0-.4-.06.5.5,0,0,0-.36.23.82.82,0,0,0-.13.48v0a13,13,0,0,1,.38,2.29c.07.78.13,1.58.18,2.43a.72.72,0,0,0,.28.4.61.61,0,0,0,.31.09H38a.73.73,0,0,0,.38-.17.74.74,0,0,0,.21-.48C38.53,43.3,38.47,42.48,38.39,41.66Z" transform="translate(-0.01 -0.81)"/><path class="cls-1" d="M45.92,46.85c-.2-.51-.39-1.05-.55-1.59l-.51-1.59c-.17-.54-.34-1.06-.52-1.58S44,41,43.73,40.49c-.11-.22-.2-.42-.28-.61a2.19,2.19,0,0,0-.36-.65l-.29-.37a1.57,1.57,0,0,0-.4-.37.85.85,0,0,0-1,0,2.23,2.23,0,0,0-.69.81,5.37,5.37,0,0,0-.33.78c0-.17,0-.34,0-.51a.69.69,0,0,0-.19-.43.49.49,0,0,0-.36-.17.59.59,0,0,0-.39.08.66.66,0,0,0-.29.39v0a17.46,17.46,0,0,0,0,2.6,15.66,15.66,0,0,0,.44,2.51.62.62,0,0,0,.18.36.9.9,0,0,0,.39.16h.16a.66.66,0,0,0,.66-.58,7.61,7.61,0,0,0,.14-1.29c0-.44,0-.87.08-1.3a7,7,0,0,1,.2-1.24,3.27,3.27,0,0,1,.43-.93,5.55,5.55,0,0,1,.81,1.4,21.18,21.18,0,0,1,.79,2.09c.25.73.48,1.47.68,2.2s.43,1.38.63,1.91l0,.05a.68.68,0,0,0,.38.27l.16,0a.56.56,0,0,0,.23-.05.53.53,0,0,0,.29-.28.77.77,0,0,0,.08-.44Z" transform="translate(-0.01 -0.81)"/><path class="cls-1" d="M57.18,33.72a.68.68,0,0,0-.49,0c-.54.26-1.07.53-1.58.81s-.82.4-1.24.59l.2-3.25c0-.06,0-.18,0-.36a6.37,6.37,0,0,0,.06-.68c0-.26,0-.54,0-.82a4,4,0,0,0-.08-.81,2.18,2.18,0,0,0-.23-.72.86.86,0,0,0-.56-.49.71.71,0,0,0-.44.08.58.58,0,0,0-.28.33.64.64,0,0,0,0,.41.67.67,0,0,0,.25.31.91.91,0,0,1,0,.17v.29a22.41,22.41,0,0,1-.06,2.28c-.05.8-.1,1.55-.15,2.26l-.11,1.47a6.5,6.5,0,0,1-1.23.23.66.66,0,0,0-.42.3.62.62,0,0,0-.08.42.6.6,0,0,0,.2.37.69.69,0,0,0,.5.14l.61-.08.34-.07q-.06,1.14-.12,2.37c0,.92,0,1.83,0,2.72s.12,1.75.23,2.54a8.53,8.53,0,0,0,.55,2.1c.12.32.25.63.38.94s.26.61.42,1a.62.62,0,0,0,.38.26.51.51,0,0,0,.17,0,.4.4,0,0,0,.22-.06A.52.52,0,0,0,55,48.5a.7.7,0,0,0,.08-.44l0-.06c-.12-.3-.26-.61-.42-.92s-.25-.6-.35-.9a16,16,0,0,1-.52-2.36c-.1-.81-.17-1.64-.19-2.45s0-1.67,0-2.5.08-1.59.14-2.35a13.9,13.9,0,0,0,1.71-.79c.58-.31,1.19-.61,1.8-.9l0,0a.73.73,0,0,0,.21-.38.66.66,0,0,0,0-.4A.54.54,0,0,0,57.18,33.72Z" transform="translate(-0.01 -0.81)"/><path class="cls-1" d="M66.43,44A4.67,4.67,0,0,1,66,43c-.15-.44-.32-.89-.5-1.33a8.82,8.82,0,0,0-.56-1.28,2,2,0,0,0-.78-.86,1.13,1.13,0,0,0-1.1,0,3.75,3.75,0,0,0-1.23,1.26l-.65.95-.69,1c-.15.26-.3.52-.43.8,0,.09-.09.18-.14.27,0-.26,0-.57-.09-.92s-.05-.81-.09-1.24,0-.82-.08-1.18c-.17-1.75-.39-3.5-.64-5.22A47.48,47.48,0,0,1,58.56,30a.67.67,0,0,0-.24-.44.56.56,0,0,0-.44-.14.7.7,0,0,0-.41.22.72.72,0,0,0-.16.49h0q0,1.09.09,2.19t.21,2.22l.31,2.26c.1.73.19,1.48.28,2.24.06.49.12,1,.17,1.46s.1,1,.13,1.51c0,.34,0,.68,0,1a10.33,10.33,0,0,0,.1,1.08,2.74,2.74,0,0,0,.34,1.2.68.68,0,0,0,.54.29.45.45,0,0,0,.18,0,1.69,1.69,0,0,0,.76-.51,8.33,8.33,0,0,0,.78-.92c.26-.35.52-.73.78-1.12L62.76,42a8.11,8.11,0,0,1,.65-.82,1.67,1.67,0,0,1,.31-.27,2.55,2.55,0,0,1,.43.68q.21.48.39,1l.36,1.11a5.81,5.81,0,0,0,.48,1,.78.78,0,0,0,.43.31.7.7,0,0,0,.44-.1.58.58,0,0,0,.24-.36A.74.74,0,0,0,66.43,44Z" transform="translate(-0.01 -0.81)"/><path class="cls-1" d="M67.4,36.06a.58.58,0,0,0,.38-.13h.13a.68.68,0,0,0,.38-.31.53.53,0,0,0,0-.4.58.58,0,0,0-.21-.38.68.68,0,0,0-.38-.21h0l-.49.15a.71.71,0,0,0-.38.25.62.62,0,0,0-.14.39.65.65,0,0,0,.13.39.73.73,0,0,0,.39.26Z" transform="translate(-0.01 -0.81)"/><path class="cls-1" d="M68.67,41.66a12.78,12.78,0,0,0-.44-2.47.58.58,0,0,0-.31-.35.47.47,0,0,0-.39-.06.48.48,0,0,0-.36.23.83.83,0,0,0-.14.48v0a13,13,0,0,1,.37,2.29c.08.79.14,1.59.18,2.43a.72.72,0,0,0,.28.4.65.65,0,0,0,.32.09h.07a.76.76,0,0,0,.39-.17.86.86,0,0,0,.21-.48C68.81,43.3,68.74,42.48,68.67,41.66Z" transform="translate(-0.01 -0.81)"/><path class="cls-1" d="M77.59,42.44a3.72,3.72,0,0,0-.89-1.15,5.25,5.25,0,0,0-1.13-.71,8.4,8.4,0,0,0-1.28-.45L73,39.81c-.42-.11-.86-.24-1.28-.37a6.53,6.53,0,0,1-.85-.39,5.71,5.71,0,0,1,.61-.29,7.14,7.14,0,0,1,1-.29c.36-.08.7-.14,1-.19l1-.17.63-.1.65-.11.71-.09a.68.68,0,0,0,.44,0,.65.65,0,0,0,.39-.23.62.62,0,0,0,.11-.44.76.76,0,0,0-.25-.46l0,0a1.5,1.5,0,0,0-.91-.19h0a8.69,8.69,0,0,0-1.46.09A15.92,15.92,0,0,0,73,37a13.35,13.35,0,0,0-1.72.54,6.28,6.28,0,0,0-1.35.71,1.38,1.38,0,0,0-.64.94,1,1,0,0,0,0,.26l0,.06a1.15,1.15,0,0,1,.1.18l.07.06a5.47,5.47,0,0,0,1.16.58q.65.23,1.35.42l1.37.38a7.18,7.18,0,0,1,1.26.43,3.88,3.88,0,0,1,1,.58,2.13,2.13,0,0,1,.61.7,1.79,1.79,0,0,1-.92.72,4.93,4.93,0,0,1-1.44.31,11.64,11.64,0,0,1-1.56,0L71,43.61h-.09a.78.78,0,0,0-.38.24.6.6,0,0,0-.14.39.62.62,0,0,0,.13.38.77.77,0,0,0,.42.29c.54.08,1.12.14,1.73.19.2,0,.41,0,.61,0a9.6,9.6,0,0,0,1.21-.07,5.43,5.43,0,0,0,1.72-.56,3.51,3.51,0,0,0,1.37-1.26l0,0A1.11,1.11,0,0,0,77.59,42.44Z" transform="translate(-0.01 -0.81)"/><path class="cls-1" d="M90.54,34a.57.57,0,0,0-.32-.29.68.68,0,0,0-.49,0c-.54.26-1.08.53-1.58.81s-.82.4-1.25.59l.06-.88c0-.41.05-.8.08-1.18l.07-1.19c0-.06,0-.18,0-.36s0-.43.06-.68,0-.54,0-.82a4,4,0,0,0-.08-.81,2.18,2.18,0,0,0-.23-.72.86.86,0,0,0-.56-.49.7.7,0,0,0-.44.08.58.58,0,0,0-.28.33.64.64,0,0,0,0,.41.71.71,0,0,0,.24.31.47.47,0,0,1,0,.17v.29a19.74,19.74,0,0,1-.05,2.28c0,.8-.1,1.55-.16,2.26l-.1,1.47a6.5,6.5,0,0,1-1.23.23.71.71,0,0,0-.43.3.76.76,0,0,0-.08.42.61.61,0,0,0,.71.51L85.2,37l.34-.07q-.08,1.14-.12,2.37c0,.92,0,1.83,0,2.72s.12,1.75.23,2.54a9,9,0,0,0,.54,2.1l.39.94c.12.3.26.61.42,1a.62.62,0,0,0,.38.26.51.51,0,0,0,.17,0,.43.43,0,0,0,.22-.06.47.47,0,0,0,.28-.27.7.7,0,0,0,.09-.44l0-.06c-.12-.3-.26-.61-.42-.92a8.34,8.34,0,0,1-.35-.9,14.86,14.86,0,0,1-.52-2.36c-.1-.81-.17-1.64-.19-2.45s0-1.67,0-2.5.08-1.59.14-2.35a13.9,13.9,0,0,0,1.71-.79c.58-.31,1.19-.61,1.79-.9l.06,0a.64.64,0,0,0,.2-.38A.6.6,0,0,0,90.54,34Z" transform="translate(-0.01 -0.81)"/><path class="cls-1" d="M90.84,36.06a.58.58,0,0,0,.38-.13h.13a.68.68,0,0,0,.38-.31.53.53,0,0,0,0-.4.58.58,0,0,0-.21-.38.68.68,0,0,0-.38-.21h0l-.49.15a.71.71,0,0,0-.38.25.62.62,0,0,0-.14.39.65.65,0,0,0,.13.39.73.73,0,0,0,.39.26Z" transform="translate(-0.01 -0.81)"/><path class="cls-1" d="M92.11,41.66a12.78,12.78,0,0,0-.44-2.47.58.58,0,0,0-.31-.35.47.47,0,0,0-.39-.06.51.51,0,0,0-.37.23.9.9,0,0,0-.13.48v0a14,14,0,0,1,.37,2.29c.08.79.14,1.59.18,2.43a.72.72,0,0,0,.28.4.65.65,0,0,0,.32.09h.07a.76.76,0,0,0,.39-.17.86.86,0,0,0,.21-.48C92.25,43.29,92.18,42.47,92.11,41.66Z" transform="translate(-0.01 -0.81)"/><path class="cls-1" d="M102.72,44.56a.81.81,0,0,0-.23-.4l-.07,0s-.11,0-.28-.49l-.42-1.21c-.15-.44-.32-.88-.5-1.31a2.77,2.77,0,0,0-.61-1,.64.64,0,0,0-.88-.08,2.94,2.94,0,0,0-.81,1.42,1.26,1.26,0,0,1-.09.26c0,.16-.11.36-.19.59s-.06.23-.1.34h0c-.05-.37-.12-.74-.21-1.12s-.18-.79-.29-1.18a3.33,3.33,0,0,0-.48-1,1.59,1.59,0,0,0-.73-.62,1.26,1.26,0,0,0-1,.05,1.16,1.16,0,0,0-.41.31,3.76,3.76,0,0,0-.3.44,4.59,4.59,0,0,0-.24.5l-.16.41a6.33,6.33,0,0,0-.29,1.32c0,.11,0,.21,0,.32,0-.1,0-.18-.06-.26L94.11,41c0-.26-.07-.53-.09-.82S94,39.47,94,39a.66.66,0,0,0-.24-.44.53.53,0,0,0-.41-.14.6.6,0,0,0-.44.2.76.76,0,0,0-.16.51h0c0,.89.12,1.84.26,2.83a17.71,17.71,0,0,0,.6,2.75.62.62,0,0,0,1.11.27,3.4,3.4,0,0,0,.55-1.33c.13-.53.25-1.07.36-1.6A12.93,12.93,0,0,1,96,40.58a1.21,1.21,0,0,1,.43-.66,1.31,1.31,0,0,1,.24.38,4,4,0,0,1,.31.85,9.1,9.1,0,0,1,.26,1c.08.36.15.7.21,1l.17.9c.06.26.1.46.14.59l0,0a.64.64,0,0,0,.43.32,1.09,1.09,0,0,0,.49-.09,1.93,1.93,0,0,0,.7-.74,5.71,5.71,0,0,0,.43-1,8.55,8.55,0,0,0,.29-1c0-.19.11-.37.17-.54a1.65,1.65,0,0,1,.2.59q.12.54.21,1.11a4.59,4.59,0,0,0,.32,1.07,1.52,1.52,0,0,0,.89.81.7.7,0,0,0,.27.06.38.38,0,0,0,.19,0,.52.52,0,0,0,.32-.27A.64.64,0,0,0,102.72,44.56Z" transform="translate(-0.01 -0.81)"/><path class="cls-1" d="M109.1,43.12a.48.48,0,0,0-.39-.18.7.7,0,0,0-.5.15,2.16,2.16,0,0,1-.9.56,4.51,4.51,0,0,1-1.21.2,4.63,4.63,0,0,1-1.24-.16,2.74,2.74,0,0,1-1-.47,1.44,1.44,0,0,1-.45-.77,1.38,1.38,0,0,1,.12-.82,1,1,0,0,0,0,.28.84.84,0,0,0,.23.31.69.69,0,0,0,.36.13,2.45,2.45,0,0,0,.72.21l.79,0h0a4.1,4.1,0,0,0,2.11-.58,1.46,1.46,0,0,0,.66-1.16,1.78,1.78,0,0,0-.48-1.23,3,3,0,0,0-1.24-.86,2.9,2.9,0,0,0-1.61-.12,2.78,2.78,0,0,0-1.61,1c-.23.26-.42.46-.54.62a3.8,3.8,0,0,0-.34.45,2.54,2.54,0,0,0-.25.55l-.21.78a2,2,0,0,0,.11,1.42,2.52,2.52,0,0,0,.93,1,4.69,4.69,0,0,0,1.43.56,7.37,7.37,0,0,0,1.32.12h.33a6,6,0,0,0,1.58-.3,3.31,3.31,0,0,0,1.25-.79l0-.07a.85.85,0,0,0,.07-.43A.7.7,0,0,0,109.1,43.12Zm-4.47-2.75a2.66,2.66,0,0,1,1.11-.32,2.07,2.07,0,0,1,1,.18.72.72,0,0,1,.44.36c0,.09,0,.19-.19.32a2.42,2.42,0,0,1-1.26.36.92.92,0,0,1-.37,0l-.41-.11a2.46,2.46,0,0,0-.46-.08h-.11a1.49,1.49,0,0,0-.36,0l0,0-.13.1A2.29,2.29,0,0,1,104.63,40.37Z" transform="translate(-0.01 -0.81)"/><path class="cls-1" d="M124.2,40.29a6.88,6.88,0,0,0-.27-1.45,3.63,3.63,0,0,0-.57-1.15,1.32,1.32,0,0,0-.35-.32l-.33-.23a.88.88,0,0,0-1,0,4.29,4.29,0,0,0-.92.78,7.84,7.84,0,0,0-.78,1,8.51,8.51,0,0,0-.45.77,14.84,14.84,0,0,0-.69,1.62c-.13.37-.24.75-.34,1.13l-.36-.65a13.44,13.44,0,0,0-.81-1.21,6.42,6.42,0,0,0-.53-.64,1.91,1.91,0,0,0-.74-.53l0,0a.77.77,0,0,0-.44.08.67.67,0,0,0-.29.33.86.86,0,0,0,0,.42.82.82,0,0,0,.27.33l0,0a1.09,1.09,0,0,1,.4.32l.36.49a11.64,11.64,0,0,1,1.1,1.8,7,7,0,0,1,.55,1.59c-.1.69-.18,1.39-.23,2.09s-.06,1.43-.07,2.16c0,.17,0,.39,0,.67a6.31,6.31,0,0,0,0,.87,4.72,4.72,0,0,0,.1.87,1.52,1.52,0,0,0,.32.75l0,.05a.84.84,0,0,0,.43.14l.14,0a.71.71,0,0,0,.42-.37V52a4.91,4.91,0,0,0,.14-1.38c0-.44,0-.88,0-1.31.06-.95.1-1.8.12-2.52a10.55,10.55,0,0,0-.17-2.06,15.4,15.4,0,0,1,.54-2.37,9.93,9.93,0,0,1,1-2.24c.09-.16.19-.34.3-.52s.25-.39.37-.56a3.84,3.84,0,0,1,.41-.47,1,1,0,0,1,.35-.21,2.17,2.17,0,0,1,.64,1,3.89,3.89,0,0,1,.21,1.41,4.14,4.14,0,0,1-.29,1.42,2.49,2.49,0,0,1-.69,1,4.32,4.32,0,0,1-.53.34,6.19,6.19,0,0,0-.58.28l-.38.1-.1-.06a.6.6,0,0,0-.43,0,.49.49,0,0,0-.37.2.61.61,0,0,0-.12.39.72.72,0,0,0,.15.43l0,0a2,2,0,0,0,1.75.1,3.37,3.37,0,0,0,.84-.38A2.26,2.26,0,0,0,123,44l.76-1.06a2.74,2.74,0,0,0,.45-1.22A5.48,5.48,0,0,0,124.2,40.29Z" transform="translate(-0.01 -0.81)"/><path class="cls-1" d="M131.27,43.12a.48.48,0,0,0-.39-.18.69.69,0,0,0-.49.15,2.2,2.2,0,0,1-.91.56,4.38,4.38,0,0,1-1.21.2,4.63,4.63,0,0,1-1.24-.16,2.74,2.74,0,0,1-1-.47,1.44,1.44,0,0,1-.45-.77,1.38,1.38,0,0,1,.12-.82,1,1,0,0,0,0,.28.84.84,0,0,0,.23.31.69.69,0,0,0,.36.13,2.45,2.45,0,0,0,.72.21l.79,0h0A4.1,4.1,0,0,0,130,42a1.46,1.46,0,0,0,.66-1.16,1.77,1.77,0,0,0-.48-1.23,3,3,0,0,0-1.24-.86,2.87,2.87,0,0,0-1.6-.12,2.8,2.8,0,0,0-1.62,1c-.23.26-.41.46-.54.62a3.8,3.8,0,0,0-.34.45,2.54,2.54,0,0,0-.25.55l-.21.78a2,2,0,0,0,.11,1.42,2.59,2.59,0,0,0,.93,1,4.69,4.69,0,0,0,1.43.56,7.37,7.37,0,0,0,1.32.12h.33a5.9,5.9,0,0,0,1.58-.3,3.23,3.23,0,0,0,1.25-.79l0-.07a.87.87,0,0,0,.07-.44A.63.63,0,0,0,131.27,43.12Zm-4.47-2.75a2.66,2.66,0,0,1,1.12-.32,2,2,0,0,1,.94.18.72.72,0,0,1,.44.36c0,.09,0,.19-.19.32a2.38,2.38,0,0,1-1.26.36.85.85,0,0,1-.36,0l-.42-.11a2.51,2.51,0,0,0-.45-.08h-.12a1.48,1.48,0,0,0-.35,0l-.05,0a.85.85,0,0,0-.14.1A2.29,2.29,0,0,1,126.8,40.37Z" transform="translate(-0.01 -0.81)"/><path class="cls-1" d="M137.69,37.61a.67.67,0,0,0-.31-.29.55.55,0,0,0-.49,0A7.35,7.35,0,0,0,134.65,39a6.93,6.93,0,0,0-1.15,1.71l0-.08-.23-.67c-.08-.23-.15-.45-.21-.64a3.46,3.46,0,0,1-.07-.62.61.61,0,0,0-.24-.44.58.58,0,0,0-.41-.15.61.61,0,0,0-.44.21.6.6,0,0,0-.14.3l0,.19h.2l-.19.06v.06c0,.06,0,.15.07.27l.11.34c0,.12.08.22.12.32h0a2,2,0,0,1,.15.43c0,.16.07.4.13.75a7.18,7.18,0,0,1,.26,1.66c0,.58,0,1.18,0,1.78v.63l.13.31.1.11a.23.23,0,0,0,.16.09.54.54,0,0,0,.21,0h.21a.65.65,0,0,0,.38-.35.43.43,0,0,0,.07-.24v-.45a8.06,8.06,0,0,1,.9-3.67,5.89,5.89,0,0,1,2.7-2.47.63.63,0,0,0,.27-.4A.65.65,0,0,0,137.69,37.61Z" transform="translate(-0.01 -0.81)"/><path class="cls-1" d="M139.05,36.06a.58.58,0,0,0,.38-.13h.13a.62.62,0,0,0,.37-.31.5.5,0,0,0,.06-.4.56.56,0,0,0-.21-.38.68.68,0,0,0-.38-.21h-.05l-.49.15a.71.71,0,0,0-.38.25.64.64,0,0,0-.14.39.67.67,0,0,0,.13.39.73.73,0,0,0,.39.26Z" transform="translate(-0.01 -0.81)"/><path class="cls-1" d="M140.32,41.66a12.78,12.78,0,0,0-.44-2.47.58.58,0,0,0-.31-.35.47.47,0,0,0-.39-.06.51.51,0,0,0-.37.23.9.9,0,0,0-.13.48v0a13,13,0,0,1,.37,2.29c.08.78.13,1.58.18,2.43a.72.72,0,0,0,.28.4.64.64,0,0,0,.31.09h.08a.76.76,0,0,0,.39-.17.86.86,0,0,0,.21-.48C140.45,43.28,140.39,42.46,140.32,41.66Z" transform="translate(-0.01 -0.81)"/><path class="cls-1" d="M148.48,40.53A3.58,3.58,0,0,0,147.2,39a5.72,5.72,0,0,0-2.29-.89.53.53,0,0,0-.49-.25,3.57,3.57,0,0,0-2,.51,3.3,3.3,0,0,0-1.23,1.23,3.77,3.77,0,0,0-.48,1.64A3.73,3.73,0,0,0,141,43a4,4,0,0,0,1.05,1.39,3.61,3.61,0,0,0,1.82.74,6.85,6.85,0,0,0,.88.06,4.69,4.69,0,0,0,1.54-.24,4,4,0,0,0,1.64-1.06,3.13,3.13,0,0,0,.76-1.6A2.79,2.79,0,0,0,148.48,40.53Zm-4.38-1.18a5.16,5.16,0,0,1,2,.53,2.73,2.73,0,0,1,1.12.94,1.66,1.66,0,0,1,.33,1.1,1.6,1.6,0,0,1-.41,1,2.7,2.7,0,0,1-1.18.72,4.69,4.69,0,0,1-2,.15,2.5,2.5,0,0,1-1.13-.42,2.29,2.29,0,0,1-.9-1.83,2.92,2.92,0,0,1,.23-1,2.33,2.33,0,0,1,1.7-1.3l.14.1Z" transform="translate(-0.01 -0.81)"/><path class="cls-1" d="M157.48,33.94c0-.25,0-.53,0-.87s-.06-.65-.1-1-.09-.67-.15-1a3.65,3.65,0,0,0-.24-.82,1.19,1.19,0,0,0-.42-.58.79.79,0,0,0-.42-.08.7.7,0,0,0-.42.27,6.72,6.72,0,0,0-1,2.12,22.68,22.68,0,0,0-.46,2.32c-.07.43-.15,1.07-.27,1.91s-.18,1.61-.27,2.56h0l-.27,0h0a11.12,11.12,0,0,0-1.16.13,5.34,5.34,0,0,0-1.14.32,3.34,3.34,0,0,0-1,.62,3.62,3.62,0,0,0-.87,1,5.37,5.37,0,0,0-.47,1.17,3.65,3.65,0,0,0-.16,1.34,2.07,2.07,0,0,0,.41,1.17,1.73,1.73,0,0,0,1.29.61,2.82,2.82,0,0,0,.81-.06,4.84,4.84,0,0,0,.83-.22,7.94,7.94,0,0,0,.78-.33c.26-.13.5-.26.71-.39l.08-.06c0,.51.07,1,.12,1.49a14.4,14.4,0,0,0,.27,1.66,6.84,6.84,0,0,0,.49,1.39,3.24,3.24,0,0,0,.77,1l.06,0a1.43,1.43,0,0,0,.39.09h.06a.64.64,0,0,0,.43-.2l.16-.23a.73.73,0,0,0-.1-.82.57.57,0,0,0-.51-.2,1.86,1.86,0,0,1-.19-.4,4.56,4.56,0,0,1-.18-.6c0-.21-.09-.42-.13-.63s-.06-.39-.1-.56a5.62,5.62,0,0,1-.18-1.27c0-.53-.06-1.14-.06-1.8a7.37,7.37,0,0,0,1.3-1.75,10.24,10.24,0,0,0,.9-2.13,14.16,14.16,0,0,0,.44-2.32,17.17,17.17,0,0,0,.11-2.38C157.5,34.36,157.49,34.18,157.48,33.94Zm-2.64,5.79c0-.76.12-1.53.2-2.3s.21-1.57.32-2.29.27-1.41.44-2c.08-.32.17-.63.26-.91l0,.23c0,.36.06.73.08,1.1s0,.64.05.89v.19c0,.12,0,.19,0,.22a13.65,13.65,0,0,1-.07,1.65,15.28,15.28,0,0,1-.32,1.77,11.19,11.19,0,0,1-.6,1.74,7,7,0,0,1-.45.91l0-.56.11-.31Zm-1.27.35c0,.39,0,.78-.09,1.18s0,.89,0,1.36a4.3,4.3,0,0,1-1.36.88,3.76,3.76,0,0,1-1.74.26c-.36,0-.45-.17-.47-.21a1.28,1.28,0,0,1-.12-.62,2.68,2.68,0,0,1,.18-.78,2.62,2.62,0,0,1,.32-.61,3.39,3.39,0,0,1,.65-.7,2.45,2.45,0,0,1,.72-.44,3.28,3.28,0,0,1,.83-.22,7,7,0,0,1,.94-.09Z" transform="translate(-0.01 -0.81)"/></svg>