<svg id="Слой_1" data-name="Слой 1" xmlns="http://www.w3.org/2000/svg" viewBox="0 0 25.96 23.87"><defs><style>.cls-1{fill:#fff;}</style></defs><path class="cls-1" d="M9.79,12.54a6.21,6.21,0,0,0-.28-1.45A3.19,3.19,0,0,0,9,10a1.36,1.36,0,0,0-.35-.33l-.34-.23a.88.88,0,0,0-1,0,4.83,4.83,0,0,0-.92.78,10.07,10.07,0,0,0-.78,1,6.82,6.82,0,0,0-.44.77,16.17,16.17,0,0,0-.7,1.62c-.12.37-.23.75-.34,1.13-.11-.22-.23-.43-.36-.65a9.82,9.82,0,0,0-.81-1.21,5.2,5.2,0,0,0-.52-.64,1.91,1.91,0,0,0-.74-.53l-.06,0a.7.7,0,0,0-.44.09.59.59,0,0,0-.28.32.67.67,0,0,0,0,.42.82.82,0,0,0,.27.33l0,0a1.18,1.18,0,0,1,.4.32l.35.49A12.63,12.63,0,0,1,3,15.48a6.64,6.64,0,0,1,.54,1.59c-.1.69-.17,1.39-.22,2.09s-.07,1.42-.08,2.16a6.32,6.32,0,0,1,0,.67c0,.28,0,.58,0,.87a8,8,0,0,0,.1.87,1.71,1.71,0,0,0,.33.76l0,0a.84.84,0,0,0,.42.14l.14,0a.71.71,0,0,0,.42-.37l0-.05a5.26,5.26,0,0,0,.14-1.38c0-.45,0-.89,0-1.31.06-.95.1-1.8.11-2.52A9.83,9.83,0,0,0,4.79,17a18.15,18.15,0,0,1,.54-2.37,10.4,10.4,0,0,1,1-2.24c.09-.16.19-.34.3-.52s.25-.39.37-.56a3.19,3.19,0,0,1,.42-.47.91.91,0,0,1,.35-.21,2.16,2.16,0,0,1,.63,1A3.9,3.9,0,0,1,8.61,13a4.14,4.14,0,0,1-.29,1.42,2.51,2.51,0,0,1-.7,1,2.66,2.66,0,0,1-.53.34,6,6,0,0,0-.57.28l-.38.1L6,16.08a.61.61,0,0,0-.43,0,.62.62,0,0,0-.38.2.61.61,0,0,0-.12.39.68.68,0,0,0,.16.43l0,0a2.08,2.08,0,0,0,1.75.1,3.22,3.22,0,0,0,.84-.38,1.88,1.88,0,0,0,.63-.53l.77-1.06A2.82,2.82,0,0,0,9.75,14,5.48,5.48,0,0,0,9.79,12.54Z" transform="translate(-0.8 -0.8)"/><path class="cls-1" d="M18.82,6.19q0-.39,0-.87c0-.32-.06-.65-.1-1s-.09-.68-.15-1a3.65,3.65,0,0,0-.24-.82A1.19,1.19,0,0,0,17.88,2a.71.71,0,0,0-.42-.08.69.69,0,0,0-.42.28,6.57,6.57,0,0,0-1,2.11,22.15,22.15,0,0,0-.46,2.32c-.07.43-.16,1.07-.27,1.91s-.18,1.61-.27,2.56h0l-.26,0h0a11.24,11.24,0,0,0-1.15.13,5.6,5.6,0,0,0-1.15.32,3.82,3.82,0,0,0-1,.62,3.76,3.76,0,0,0-.86,1,4.91,4.91,0,0,0-.48,1.17,4.14,4.14,0,0,0-.16,1.34,2.15,2.15,0,0,0,.42,1.17,1.73,1.73,0,0,0,1.29.61,3.23,3.23,0,0,0,.81-.06,4.4,4.4,0,0,0,.83-.22,7,7,0,0,0,.78-.33,6.85,6.85,0,0,0,.71-.39l.08-.06c0,.51.07,1,.12,1.49a13,13,0,0,0,.27,1.67,7,7,0,0,0,.49,1.38,3.24,3.24,0,0,0,.77,1l.06,0a1.18,1.18,0,0,0,.38.09H17a.63.63,0,0,0,.43-.2l.16-.23a.75.75,0,0,0-.1-.82.61.61,0,0,0-.51-.2,1.64,1.64,0,0,1-.19-.4,3.8,3.8,0,0,1-.18-.6c0-.21-.1-.42-.13-.63s-.06-.39-.1-.56a6.37,6.37,0,0,1-.19-1.27c0-.52-.05-1.13-.05-1.8a7.51,7.51,0,0,0,1.3-1.75,10.77,10.77,0,0,0,.89-2.13,13.21,13.21,0,0,0,.45-2.32,17.17,17.17,0,0,0,.11-2.38C18.85,6.61,18.84,6.43,18.82,6.19ZM16.18,12c.05-.76.12-1.54.21-2.3s.21-1.57.32-2.29.27-1.42.44-2c.08-.32.17-.63.26-.91l0,.23c0,.38.06.74.07,1.1s0,.64.06.89,0,.37,0,.41a12,12,0,0,1-.08,1.65,14,14,0,0,1-.31,1.77,11.56,11.56,0,0,1-.6,1.74c-.14.32-.29.62-.45.91l0-.56.11-.31Zm-1.26.35c0,.39-.05.78-.09,1.19s0,.89,0,1.35a4.34,4.34,0,0,1-1.35.89A3.94,3.94,0,0,1,11.7,16c-.37,0-.45-.17-.48-.21a1.43,1.43,0,0,1-.11-.62,2.68,2.68,0,0,1,.18-.78,3.11,3.11,0,0,1,.31-.61,4,4,0,0,1,.65-.7,2.63,2.63,0,0,1,.73-.44,3.28,3.28,0,0,1,.83-.22,7,7,0,0,1,.94-.09Z" transform="translate(-0.8 -0.8)"/><path class="cls-1" d="M22.6,4.21a7.53,7.53,0,0,1,.53-1.12,2.3,2.3,0,0,1,.54-.57,1.29,1.29,0,0,1,.56-.22,4.71,4.71,0,0,1,1.15,0,.21.21,0,0,1,.21.16.72.72,0,0,0,.39.29.58.58,0,0,0,.41,0,.64.64,0,0,0,.31-.28.73.73,0,0,0,0-.53A1.67,1.67,0,0,0,26,1a1.7,1.7,0,0,0-1-.21,2.88,2.88,0,0,0-1.12.28,4.67,4.67,0,0,0-1.05.67,5.12,5.12,0,0,0-.89.91,3.06,3.06,0,0,0-.56,1.09,12.62,12.62,0,0,0-.3,1.57c-.09.65-.19,1.41-.28,2.31l-.66.1c-.23,0-.47,0-.69,0a.72.72,0,0,0-.7,0,.73.73,0,0,0-.23.34,1,1,0,0,0,0,.46v.09l.05.05a.63.63,0,0,0,.2.24l.06,0,.16.07,0,0h.06a8.45,8.45,0,0,0,.89,0L20.69,9c-.08.84-.14,1.71-.19,2.59s-.07,1.92-.07,2.78a23.15,23.15,0,0,0,.1,2.33,3.8,3.8,0,0,0,.4,1.5.73.73,0,0,0,.56.32h.2l.08,0c.44-.18.47-.47.44-.62a.67.67,0,0,0-.28-.52,2.35,2.35,0,0,1-.19-.77,9.64,9.64,0,0,1,0-1.08c0-.38,0-.73.06-1.07a7.78,7.78,0,0,0,.06-.84c0-.82,0-1.66,0-2.51s0-1.58,0-2.36l1.91-.52A11.05,11.05,0,0,1,26,7.78a.67.67,0,0,0,.44-.24.63.63,0,0,0,.16-.42.59.59,0,0,0-.15-.4A.65.65,0,0,0,26,6.47H26a10.83,10.83,0,0,0-2.2.42c-.61.18-1.23.34-1.85.47.06-.5.13-1,.22-1.46A9.65,9.65,0,0,1,22.6,4.21Z" transform="translate(-0.8 -0.8)"/></svg>