<svg width="72" height="44" viewBox="0 0 72 44" fill="none" xmlns="http://www.w3.org/2000/svg">
<path fill-rule="evenodd" clip-rule="evenodd" d="M9.16005 43.893C6.31614 42.6166 3.49157 41.379 0.686351 40.0205C0.0817783 39.7304 -0.169686 39.0101 0.120509 38.4106C0.410704 37.8063 1.13612 37.5548 1.73585 37.8449C4.52656 39.1937 7.32689 40.4217 10.1515 41.6884C10.7609 41.9639 11.0318 42.6795 10.761 43.2838C10.4853 43.893 9.76946 44.1686 9.16005 43.893Z" fill="#212121"/>
<path fill-rule="evenodd" clip-rule="evenodd" d="M30.0548 28.7945C25.9243 19.8554 22.2484 10.7131 18.3114 1.69177C18.0454 1.07777 18.326 0.367067 18.9354 0.101164C19.5496 -0.164738 20.2605 0.110853 20.5313 0.724846C24.4587 9.7317 28.1248 18.8594 32.2504 27.7792C32.5309 28.3884 32.265 29.1039 31.6604 29.3843C31.051 29.6648 30.3353 29.3989 30.0548 28.7945Z" fill="#212121"/>
<path fill-rule="evenodd" clip-rule="evenodd" d="M65.4923 26.4739C66.8127 18.2551 68.3652 10.0604 69.5937 1.82712C69.6953 1.16961 70.3094 0.715232 70.9672 0.811924C71.6298 0.908616 72.0844 1.52737 71.9877 2.18487C70.7543 10.4279 69.2018 18.6322 67.8766 26.8607C67.7702 27.5182 67.1511 27.9678 66.4934 27.8615C65.8308 27.7551 65.3859 27.1362 65.4923 26.4739Z" fill="#212121"/>
</svg>
