<svg id="Слой_1" data-name="Слой 1" xmlns="http://www.w3.org/2000/svg" viewBox="0 0 242.98 50.53"><defs><style>.cls-1,.cls-2{fill:#212121;}.cls-1{fill-rule:evenodd;}</style></defs><path class="cls-1" d="M43.46,51.5c-.08-.18-.15-.32-.17-.35a46.93,46.93,0,0,0-2.44-4.09.81.81,0,0,0-1.12-.22A.79.79,0,0,0,39.51,48a45.41,45.41,0,0,1,2.36,4,14.15,14.15,0,0,0,.69,1.41,1.11,1.11,0,0,0,.71.49,1.14,1.14,0,0,0,1-.52,13.42,13.42,0,0,0,1.13-2.47c.18-.49.33-1,.47-1.51a21.64,21.64,0,0,0,.54-2.89.8.8,0,1,0-1.59-.22,20.42,20.42,0,0,1-.51,2.68c-.13.46-.26.94-.43,1.39C43.88,50.41,43.68,51,43.46,51.5Z" transform="translate(-0.64 -3.29)"/><path class="cls-2" d="M12.06,33.42a.59.59,0,0,0-.25-.36.7.7,0,0,0-.42-.13h-.07c-.85.27-1.74.54-2.64.79A9,9,0,0,1,6,34.07a4.07,4.07,0,0,1-2.35-.69,3.93,3.93,0,0,1-1.28-1.65,6.55,6.55,0,0,1-.45-2.31,14.4,14.4,0,0,1,.21-2.62,16.57,16.57,0,0,1,.67-2.54,15,15,0,0,1,.87-2.07,16,16,0,0,1,1-1.63c.37-.52.76-1,1.16-1.53L6,18.76l.15-.23.08-.06a.67.67,0,0,0,.17-.13.62.62,0,0,0,.24-.29.47.47,0,0,0,0-.35.55.55,0,0,0-.21-.33.72.72,0,0,0-.4-.16h0a.83.83,0,0,0-.57.27A6.59,6.59,0,0,0,5,18c-.17.2-.32.39-.47.59a4.1,4.1,0,0,1-.27.37,17.7,17.7,0,0,0-1.63,2.54,15.6,15.6,0,0,0-1.18,2.76,19.25,19.25,0,0,0-.61,2.37,11.8,11.8,0,0,0-.19,2.29A10.41,10.41,0,0,0,1,31.19a11.07,11.07,0,0,0,.94,2.26,2,2,0,0,0,.53.61,6.8,6.8,0,0,1,.6.46,1.87,1.87,0,0,0,.7.36,6.4,6.4,0,0,1,.66.23,3.92,3.92,0,0,0,1.49.27h.25a12.16,12.16,0,0,0,2-.23A17.76,17.76,0,0,0,10,34.66l1.63-.53a.63.63,0,0,0,.34-.32A.54.54,0,0,0,12.06,33.42Z" transform="translate(-0.64 -3.29)"/><path class="cls-2" d="M15.51,28.19a3.65,3.65,0,0,0-1.39-1.4,5.66,5.66,0,0,0-2.34-.72.52.52,0,0,0-.5-.22,3.64,3.64,0,0,0-1.93.64A3.47,3.47,0,0,0,8.21,27.8a3.91,3.91,0,0,0,0,3.34,3.75,3.75,0,0,0,1.14,1.31,3.63,3.63,0,0,0,1.88.62h.43a5,5,0,0,0,2-.36,3.89,3.89,0,0,0,1.56-1.17,3.08,3.08,0,0,0,.66-1.65A2.83,2.83,0,0,0,15.51,28.19Zm-.86,1.45a1.57,1.57,0,0,1-.33,1,2.73,2.73,0,0,1-1.14.8,4.68,4.68,0,0,1-1.94.28,2.56,2.56,0,0,1-1.17-.33,2.53,2.53,0,0,1-.72-.78,2.27,2.27,0,0,1-.29-1,2.58,2.58,0,0,1,.15-1,2.29,2.29,0,0,1,.61-.88,2.26,2.26,0,0,1,1-.53l.15.08.09,0a5.14,5.14,0,0,1,2,.4,2.79,2.79,0,0,1,1.18.86A1.62,1.62,0,0,1,14.65,29.64Z" transform="translate(-0.64 -3.29)"/><path class="cls-2" d="M21.37,22.92a.53.53,0,0,0-.37-.27.66.66,0,0,0-.44.08.8.8,0,0,0-.32.41,18.49,18.49,0,0,0-.66,2.33c-.16.77-.31,1.58-.43,2.41,0,.13,0,.34-.07.65s0,.6-.08.93l-.09.66c-.1-.29-.21-.6-.34-.94s-.31-.82-.49-1.23-.38-.85-.57-1.22S17.15,26,17,25.67a6.41,6.41,0,0,0-.49-.78.57.57,0,0,0-.67-.18.86.86,0,0,0-.42.47l0,0,0,.24a.77.77,0,0,0,.16.45,1.43,1.43,0,0,0,.24.16,8.85,8.85,0,0,1,.74,1.4c.22.51.43,1,.62,1.59s.38,1.12.56,1.68a16,16,0,0,0,.63,1.57l0,0a.59.59,0,0,0,.43.29h0a.87.87,0,0,0,.37-.09,1.22,1.22,0,0,0,.59-.63,5.53,5.53,0,0,0,.34-1,9.33,9.33,0,0,0,.2-1.25c.06-.45.11-.89.14-1.31s.09-.81.11-1.16.06-.62.09-.82c.09-.44.15-.76.19-1s.07-.39.1-.53l.17-.5c.08-.19.19-.49.33-.92A.66.66,0,0,0,21.37,22.92Z" transform="translate(-0.64 -3.29)"/><path class="cls-2" d="M22.61,23.08l.13,0a.57.57,0,0,0,.35-.33.52.52,0,0,0,0-.4.61.61,0,0,0-.23-.37.7.7,0,0,0-.4-.18h0L22,22a.75.75,0,0,0-.36.28.65.65,0,0,0-.11.41.64.64,0,0,0,.16.37.71.71,0,0,0,.41.24h.19A.57.57,0,0,0,22.61,23.08Z" transform="translate(-0.64 -3.29)"/><path class="cls-2" d="M23.89,28.74a12.61,12.61,0,0,0-.6-2.44A.55.55,0,0,0,23,26a.5.5,0,0,0-.39,0,.56.56,0,0,0-.35.26.83.83,0,0,0-.1.49v0A13.68,13.68,0,0,1,22.66,29c.13.79.24,1.58.34,2.42a.72.72,0,0,0,.31.38.74.74,0,0,0,.28.06h.12a.8.8,0,0,0,.37-.2.86.86,0,0,0,.17-.49C24.15,30.37,24,29.56,23.89,28.74Z" transform="translate(-0.64 -3.29)"/><path class="cls-2" d="M31.78,33.44l0,0c-.24-.5-.46-1-.66-1.54s-.41-1-.62-1.56-.41-1-.62-1.54a16.88,16.88,0,0,0-.73-1.55l-.32-.59a2.13,2.13,0,0,0-.4-.62l-.32-.35a1.17,1.17,0,0,0-.42-.34.83.83,0,0,0-1,0,2.32,2.32,0,0,0-.63.86,6.7,6.7,0,0,0-.28.79c0-.16,0-.33,0-.51a.66.66,0,0,0-.22-.41.48.48,0,0,0-.37-.14.54.54,0,0,0-.39.11.6.6,0,0,0-.25.4v0a17.87,17.87,0,0,0,.22,2.59,17.63,17.63,0,0,0,.62,2.48.61.61,0,0,0,.2.34.82.82,0,0,0,.4.13h.17a.67.67,0,0,0,.62-.62,7.89,7.89,0,0,0,0-1.3c0-.44,0-.88,0-1.3a7.27,7.27,0,0,1,.11-1.25,3.3,3.3,0,0,1,.37-1,5.78,5.78,0,0,1,.9,1.34,19.28,19.28,0,0,1,.94,2c.3.7.58,1.42.83,2.14s.52,1.35.76,1.86l0,0a.73.73,0,0,0,.4.24h.12a.58.58,0,0,0,.53-.36A.74.74,0,0,0,31.78,33.44Z" transform="translate(-0.64 -3.29)"/><path class="cls-2" d="M44.58,32a1.41,1.41,0,0,0-.73-.15,3.61,3.61,0,0,0-.86.12l-.64.17c-.08-.23-.2-.49-.34-.79a9.57,9.57,0,0,0-.62-1.18,9.81,9.81,0,0,0-.8-1.18,5.59,5.59,0,0,0-1-1,2.42,2.42,0,0,0-1-.54,1.45,1.45,0,0,0-1.13.14,6.39,6.39,0,0,0-.67.46c-.31.21-.65.46-1,.73s-.78.54-1.19.79a8.38,8.38,0,0,1-1.2.6,2.51,2.51,0,0,1-1,.17.64.64,0,0,1-.57-.35.9.9,0,0,1,0-.83,3.88,3.88,0,0,1,.78-1.07,8.4,8.4,0,0,1,1.28-1,10.28,10.28,0,0,1,1.46-.81,5,5,0,0,1,1.29-.38.9.9,0,0,1,.73.1l.05,0a.73.73,0,0,0,.5,0,.76.76,0,0,0,.36-.24.58.58,0,0,0,.09-.45.74.74,0,0,0-.16-.32l0,0a1.91,1.91,0,0,0-1.44-.44,5.2,5.2,0,0,0-1.81.4,9.86,9.86,0,0,0-1.9,1,9.21,9.21,0,0,0-1.6,1.42A4.92,4.92,0,0,0,30.56,29a2,2,0,0,0,.16,1.65,2,2,0,0,0,1.12,1,2.7,2.7,0,0,0,1.38,0,6.57,6.57,0,0,0,1.43-.64c.48-.29.94-.58,1.37-.88l1.14-.84a3.42,3.42,0,0,1,.76-.45,1,1,0,0,1,.86.12,3.22,3.22,0,0,1,.86.8,7.88,7.88,0,0,1,.73,1.11c.22.39.38.71.49.95l.31.79,0,0-.08,0q-.56.19-1.11.45l-1.07.49-1.08.52-1.06.58c-.13.07-.36.2-.71.43s-.71.47-1.14.77a14.71,14.71,0,0,0-1.24,1,6.58,6.58,0,0,0-1,1.15,2.5,2.5,0,0,0-.46,1.18,1.31,1.31,0,0,0,.61,1.11,3.23,3.23,0,0,0,1.85.58h.12a6.16,6.16,0,0,0,2.07-.37,10,10,0,0,0,4.12-2.81,7.47,7.47,0,0,0,1.3-2.11,4.71,4.71,0,0,0,.39-2.2l.45-.11h.12a.52.52,0,0,0,0,.25.56.56,0,0,0,.15.36.61.61,0,0,0,.34.19.73.73,0,0,0,.46,0l.05,0a5.58,5.58,0,0,0,.54-.55,1.12,1.12,0,0,0,.26-.85A.73.73,0,0,0,44.58,32Zm-3.25,1.86A3.75,3.75,0,0,1,41,35.24a5.16,5.16,0,0,1-.93,1.46,6.32,6.32,0,0,1-1.38,1.23,9.89,9.89,0,0,1-1.63,1l-.86.35a5.88,5.88,0,0,1-.91.26,3,3,0,0,1-.89.08,1.83,1.83,0,0,1-.71-.19l-.1-.47A8.11,8.11,0,0,1,35,37.32a16.14,16.14,0,0,1,2-1.45,18.75,18.75,0,0,1,4.35-2Z" transform="translate(-0.64 -3.29)"/><path class="cls-2" d="M55.08,27.66a.69.69,0,0,0-.87-.34,1.3,1.3,0,0,0-.33.17l-.32.26a.51.51,0,0,0-.15.3s0,.06,0,.09l-.21.14a2.83,2.83,0,0,1-.37.2l-.47.24c-.13.05-.26.11-.4.15a2,2,0,0,1-.39.12l-.5.11a7.37,7.37,0,0,1-2,0,2.92,2.92,0,0,1-1.3-.54,1.54,1.54,0,0,1-.5-.86,2.15,2.15,0,0,1,.08-1,3.94,3.94,0,0,1,.55-1,3.35,3.35,0,0,1,.84-.8,2,2,0,0,1,.93-.36,1.15,1.15,0,0,1,.84.24,1.94,1.94,0,0,1,.67,1,.69.69,0,0,0,.31.38.57.57,0,0,0,.4.06.74.74,0,0,0,.35-.2.84.84,0,0,0,.17-.46,2.32,2.32,0,0,0-.09-.78,1.29,1.29,0,0,0-.52-.63l-.06,0h-.07l-.06,0a1.93,1.93,0,0,0-.45-.36,2.2,2.2,0,0,0-.56-.26h0a3.12,3.12,0,0,0-1.87,0,3.73,3.73,0,0,0-1.46.95,4.5,4.5,0,0,0-.93,1.46A4,4,0,0,0,46,27.58a3,3,0,0,0,.43,1.5,2.36,2.36,0,0,0,1.37,1l.54.18c.17.06.33.1.51.15l.52.08.64,0a4.91,4.91,0,0,0,1.21-.14l1.14-.25a5.52,5.52,0,0,0,1.44-.68,8,8,0,0,0,1.24-1l.05-.08A.75.75,0,0,0,55.08,27.66Z" transform="translate(-0.64 -3.29)"/><path class="cls-2" d="M62.9,30.32a3.23,3.23,0,0,1-.43-1.12,14.25,14.25,0,0,1-.22-1.52c0-.54-.09-1.07-.11-1.57s0-1-.08-1.35a.62.62,0,0,0-.5-.53.56.56,0,0,0-.68.32l-.08.17h0a8.3,8.3,0,0,1-.9,1.66,8.82,8.82,0,0,1-1.3,1.44l-.33.31a2.78,2.78,0,0,1-.41.29,2.49,2.49,0,0,1-.44.21.71.71,0,0,1-.35,0,.88.88,0,0,1-.52-.42,2.2,2.2,0,0,1-.22-.74,3.36,3.36,0,0,1,.05-.84,2.06,2.06,0,0,1,.25-.68,3.31,3.31,0,0,1,.76-.9,5,5,0,0,1,1-.68A7.24,7.24,0,0,1,59.6,24a9.46,9.46,0,0,1,1.21-.27l.06,0a.71.71,0,0,0,.34-.32.57.57,0,0,0,.06-.4.46.46,0,0,0-.23-.32.63.63,0,0,0-.44-.16h0a12.27,12.27,0,0,0-1.38.33,10,10,0,0,0-1.45.58,6.12,6.12,0,0,0-1.32.86,3.2,3.2,0,0,0-.89,1.17,3.4,3.4,0,0,1-.26.5,1.31,1.31,0,0,0-.18.66c0,.2,0,.41,0,.62a3.52,3.52,0,0,0,.06.63,3.91,3.91,0,0,0,.31.83,3.53,3.53,0,0,0,.56.77,2,2,0,0,0,.77.49,1.21,1.21,0,0,0,1-.06,5.84,5.84,0,0,0,1.76-1.13,13.7,13.7,0,0,0,1.36-1.56l0-.07c0,.2,0,.41,0,.62,0,.41.1.82.16,1.2A7.91,7.91,0,0,0,61.39,30a4.5,4.5,0,0,0,.51,1,.59.59,0,0,0,.45.23h0a.57.57,0,0,0,.36-.11.58.58,0,0,0,.25-.37A.53.53,0,0,0,62.9,30.32Z" transform="translate(-0.64 -3.29)"/><path class="cls-2" d="M68.13,18a.59.59,0,0,0-.33-.27.66.66,0,0,0-.49,0c-.51.29-1,.6-1.52.91s-.8.47-1.2.67v-.87c0-.41,0-.8,0-1.18v-1.2a2.31,2.31,0,0,1,0-.35c0-.21,0-.45,0-.69a7.6,7.6,0,0,0,0-.82,4.46,4.46,0,0,0-.13-.8,2.29,2.29,0,0,0-.28-.71.88.88,0,0,0-.59-.45.71.71,0,0,0-.44.11.68.68,0,0,0-.26.35.87.87,0,0,0,0,.41.85.85,0,0,0,.27.3.38.38,0,0,1,0,.16l0,.29a18.5,18.5,0,0,1,.1,2.28c0,.8,0,1.55,0,2.26v1.48a7.41,7.41,0,0,1-1.21.31.76.76,0,0,0-.41.33.67.67,0,0,0,0,.42.66.66,0,0,0,.23.36.62.62,0,0,0,.51.1l.61-.12.33-.09c0,.76,0,1.55,0,2.38s.11,1.82.19,2.7.24,1.74.41,2.53a8.2,8.2,0,0,0,.69,2.05c.15.31.29.61.44.91l.49.94A.73.73,0,0,0,66,33h.12a.5.5,0,0,0,.27-.07.56.56,0,0,0,.26-.29.68.68,0,0,0,0-.45v-.06c-.15-.3-.32-.6-.49-.88s-.29-.59-.41-.88A16.2,16.2,0,0,1,65.11,28q-.24-1.22-.36-2.43c-.08-.83-.13-1.67-.15-2.49s0-1.57,0-2.36a13.19,13.19,0,0,0,1.65-.9c.57-.36,1.15-.7,1.73-1l.05,0a.72.72,0,0,0,.18-.39A.66.66,0,0,0,68.13,18Z" transform="translate(-0.64 -3.29)"/><path class="cls-2" d="M74.25,26a3.61,3.61,0,0,0-1-1.08,4.78,4.78,0,0,0-1.18-.63,8.66,8.66,0,0,0-1.31-.36l-1.33-.23c-.43-.08-.87-.18-1.3-.29a5.44,5.44,0,0,1-.88-.32c.19-.12.39-.23.59-.33a7.89,7.89,0,0,1,1-.36c.34-.1.68-.19,1-.26s.68-.15,1-.24l.61-.14c.22-.06.43-.12.64-.16l.71-.13a.74.74,0,0,0,.44,0,.58.58,0,0,0,.45-.7.79.79,0,0,0-.28-.45h0a1.51,1.51,0,0,0-.92-.13,8.62,8.62,0,0,0-1.45.2,16.41,16.41,0,0,0-1.72.46,14.71,14.71,0,0,0-1.68.66,6.59,6.59,0,0,0-1.3.8,1.38,1.38,0,0,0-.57,1,1.43,1.43,0,0,0,0,.26l0,.06.12.17.06.06a5.28,5.28,0,0,0,1.21.49c.44.13.9.24,1.36.33L70,25a7.63,7.63,0,0,1,1.29.34,4.17,4.17,0,0,1,1.06.51,2.19,2.19,0,0,1,.66.66,2,2,0,0,1-.87.78,5.54,5.54,0,0,1-1.42.41,11.64,11.64,0,0,1-1.56.07c-.53,0-1-.06-1.39-.1h0l0,0a.77.77,0,0,0-.36.26.57.57,0,0,0-.11.4.7.7,0,0,0,.15.37.82.82,0,0,0,.44.26c.54,0,1.12.07,1.74.07a9.13,9.13,0,0,0,1.82-.18A5.57,5.57,0,0,0,73,28.16a3.57,3.57,0,0,0,1.3-1.41A1.14,1.14,0,0,0,74.25,26Z" transform="translate(-0.64 -3.29)"/><path class="cls-2" d="M88.56,28.53a3.48,3.48,0,0,1-.43-1.11,14.82,14.82,0,0,1-.22-1.53c0-.54-.09-1.06-.11-1.56s0-1-.08-1.36a.61.61,0,0,0-.5-.53.58.58,0,0,0-.68.32l-.08.17h0a8,8,0,0,1-.9,1.66,8.88,8.88,0,0,1-1.3,1.45l-.33.3a3.91,3.91,0,0,1-.41.3l-.44.21a.6.6,0,0,1-.35,0,.87.87,0,0,1-.52-.41,2.27,2.27,0,0,1-.22-.74,3.44,3.44,0,0,1,.05-.85,2.06,2.06,0,0,1,.25-.68,3.31,3.31,0,0,1,.76-.9,6,6,0,0,1,1-.68,8.3,8.3,0,0,1,1.17-.45c.41-.11.82-.2,1.22-.27l0,0a.67.67,0,0,0,.34-.32.56.56,0,0,0,.06-.4.54.54,0,0,0-.23-.32.68.68,0,0,0-.44-.16h0a12.27,12.27,0,0,0-1.38.33,9,9,0,0,0-1.45.59,6.08,6.08,0,0,0-1.32.85,3.2,3.2,0,0,0-.89,1.17,4.09,4.09,0,0,1-.26.51,1.25,1.25,0,0,0-.18.65c0,.21,0,.42,0,.62a3.52,3.52,0,0,0,.06.63,3.91,3.91,0,0,0,.31.83,3.31,3.31,0,0,0,.56.77,2.18,2.18,0,0,0,.77.5,1.29,1.29,0,0,0,1-.06,6.25,6.25,0,0,0,1.76-1.13,14.89,14.89,0,0,0,1.36-1.57.43.43,0,0,0,0-.07c0,.21,0,.41,0,.63,0,.4.1.8.16,1.2a7.91,7.91,0,0,0,.28,1.14,4.06,4.06,0,0,0,.51,1,.63.63,0,0,0,.45.24h0a.57.57,0,0,0,.36-.11.7.7,0,0,0,.26-.37A.59.59,0,0,0,88.56,28.53Z" transform="translate(-0.64 -3.29)"/><path class="cls-2" d="M97,24.43a3.75,3.75,0,0,0-1-1.08,5,5,0,0,0-1.18-.64,9,9,0,0,0-1.31-.36l-1.33-.23c-.43-.08-.87-.17-1.3-.28a6.14,6.14,0,0,1-.88-.33,4.19,4.19,0,0,1,.59-.32,6.91,6.91,0,0,1,1-.37c.35-.1.69-.18,1-.25l1-.25c.18,0,.38-.08.62-.14s.43-.11.64-.15.45-.1.7-.14a.78.78,0,0,0,.45,0,.68.68,0,0,0,.36-.26.65.65,0,0,0,.09-.45.79.79,0,0,0-.28-.44l0,0a1.54,1.54,0,0,0-.93-.13,10.15,10.15,0,0,0-1.45.2,17.27,17.27,0,0,0-1.72.47,12.92,12.92,0,0,0-1.67.65,6.41,6.41,0,0,0-1.31.81,1.36,1.36,0,0,0-.56,1,.82.82,0,0,0,0,.25l0,.06.12.17.07.07a5.68,5.68,0,0,0,1.2.49c.44.12.9.23,1.37.33l1.4.28a7.63,7.63,0,0,1,1.29.34,4.1,4.1,0,0,1,1.05.51,2.08,2.08,0,0,1,.66.66,1.84,1.84,0,0,1-.87.78,5,5,0,0,1-1.41.41,11.71,11.71,0,0,1-1.56.07l-1.39-.09h0l0,0a.85.85,0,0,0-.37.26.62.62,0,0,0-.11.4.61.61,0,0,0,.16.37.85.85,0,0,0,.44.27c.53,0,1.12.06,1.73.07a9.94,9.94,0,0,0,1.82-.19,5.38,5.38,0,0,0,1.68-.67,3.59,3.59,0,0,0,1.29-1.4A1.13,1.13,0,0,0,97,24.43Z" transform="translate(-0.64 -3.29)"/><path class="cls-2" d="M110.85,20.94a.52.52,0,0,0-.37-.15.6.6,0,0,0-.38.11.63.63,0,0,0-.26.43c0,.18,0,.38,0,.62s0,.42-.07.64a2.61,2.61,0,0,1-.14.6,1.34,1.34,0,0,1-.12.3,2,2,0,0,1-.44-.59,7.1,7.1,0,0,1-.41-1c-.11-.37-.21-.74-.3-1.08a6.49,6.49,0,0,0-.3-1.09.68.68,0,0,0-.57-.36.66.66,0,0,0-.57.37,5.45,5.45,0,0,0-.27,1c0,.32-.08.65-.1,1l0,1a7.5,7.5,0,0,1-.06,1c0,.07,0,.2,0,.39s0,.36-.07.55a2.18,2.18,0,0,1-.17.51.48.48,0,0,1-.08.16,1.07,1.07,0,0,1-.27-.34c-.11-.22-.21-.46-.31-.71s-.16-.53-.22-.78a6.45,6.45,0,0,0-.16-.66c-.1-.45-.24-1-.39-1.54a14.9,14.9,0,0,0-.54-1.72,8.61,8.61,0,0,0-.82-1.6,3.42,3.42,0,0,0-1.2-1.14,1.1,1.1,0,0,0-.48-.17l-.45-.07a.71.71,0,0,0-.44.11.52.52,0,0,0-.23.33.53.53,0,0,0,0,.41.69.69,0,0,0,.28.34l.07,0a4.24,4.24,0,0,1,.53.16,1.68,1.68,0,0,1,.7.55c.09.13.2.29.31.47a6.43,6.43,0,0,1,.43.88c.12.29.24.6.35.94s.18.53.27.87.18.63.25.89c.13.51.27,1.08.4,1.68a5.16,5.16,0,0,0,.71,1.64,1.74,1.74,0,0,0,.77.67,1.25,1.25,0,0,0,.42.08.94.94,0,0,0,.37-.07,1.43,1.43,0,0,0,.62-.52,2.65,2.65,0,0,0,.4-.9c0-.23.09-.45.13-.67s.06-.46.08-.68a6.77,6.77,0,0,0,.07-1v0l.12.31a6.35,6.35,0,0,0,.7,1.23,1.25,1.25,0,0,0,.75.59,1,1,0,0,0,.72-.15,1.64,1.64,0,0,0,.51-.59,2.58,2.58,0,0,0,.32-.73,4.31,4.31,0,0,0,.09-.44l.06-.41A4.11,4.11,0,0,0,111,22l0-.62A.67.67,0,0,0,110.85,20.94Z" transform="translate(-0.64 -3.29)"/><path class="cls-2" d="M118.59,24a.66.66,0,0,0-.19-.36.51.51,0,0,0-.4-.15.66.66,0,0,0-.48.19,2.35,2.35,0,0,1-.87.61,4.23,4.23,0,0,1-1.19.29,4.76,4.76,0,0,1-1.25-.08,2.83,2.83,0,0,1-1-.4,1.38,1.38,0,0,1-.5-.73,1.44,1.44,0,0,1,.07-.83.65.65,0,0,0,0,.27.82.82,0,0,0,.26.3.65.65,0,0,0,.36.1h0a2.18,2.18,0,0,0,.73.16l.79,0h0A4,4,0,0,0,117,22.6a1.48,1.48,0,0,0,.59-1.21,1.83,1.83,0,0,0-.57-1.2,3,3,0,0,0-1.3-.76,2.93,2.93,0,0,0-1.61,0,2.86,2.86,0,0,0-1.54,1.09l-.5.65a4.2,4.2,0,0,0-.3.48,2,2,0,0,0-.21.56l-.16.8a1.93,1.93,0,0,0,.21,1.4,2.54,2.54,0,0,0,1,.93,4.67,4.67,0,0,0,1.48.45,5.87,5.87,0,0,0,.83.05,7.09,7.09,0,0,0,.81,0,6.18,6.18,0,0,0,1.56-.41,3.28,3.28,0,0,0,1.19-.88l0-.06A1,1,0,0,0,118.59,24Zm-4.84-2.79a2.7,2.7,0,0,1,1.09-.4h.26a1.88,1.88,0,0,1,.69.12.72.72,0,0,1,.47.34c0,.08,0,.19-.17.33a2.43,2.43,0,0,1-1.23.44.92.92,0,0,1-.37,0l-.42-.08a2.38,2.38,0,0,0-.45-.05,1.11,1.11,0,0,0-.47.08l-.05,0-.13.1A2.33,2.33,0,0,1,113.75,21.19Z" transform="translate(-0.64 -3.29)"/><path class="cls-2" d="M120.49,24.69a27.4,27.4,0,0,1-.69-3.43c-.14-1.17-.25-2.37-.32-3.56s-.13-2.41-.18-3.6-.09-2.39-.17-3.53a.64.64,0,0,0-.29-.43.56.56,0,0,0-.45-.11.71.71,0,0,0-.39.25.74.74,0,0,0-.13.5c.08,1.15.14,2.33.19,3.51s.1,2.44.17,3.63.21,2.44.37,3.64a26.6,26.6,0,0,0,.71,3.51.61.61,0,0,0,.35.4,1,1,0,0,0,.29.05h.15a.65.65,0,0,0,.34-.27A.61.61,0,0,0,120.49,24.69Z" transform="translate(-0.64 -3.29)"/><path class="cls-2" d="M122.28,24.57a25.73,25.73,0,0,1-.7-3.43c-.14-1.19-.25-2.39-.32-3.56s-.13-2.38-.18-3.6-.08-2.36-.17-3.54a.61.61,0,0,0-.28-.42.58.58,0,0,0-.45-.11.7.7,0,0,0-.4.25.74.74,0,0,0-.13.5c.08,1.15.15,2.33.19,3.5s.11,2.41.18,3.63.21,2.45.37,3.65a26.91,26.91,0,0,0,.7,3.51.62.62,0,0,0,.35.39.75.75,0,0,0,.29.06l.15,0a.65.65,0,0,0,.34-.27A.61.61,0,0,0,122.28,24.57Z" transform="translate(-0.64 -3.29)"/><path class="cls-2" d="M135.26,13.78a.64.64,0,0,0-.47-.22h0a10.86,10.86,0,0,0-2.17.58c-.59.21-1.2.41-1.8.59,0-.5.06-1,.11-1.47a9.51,9.51,0,0,1,.34-1.72,7.67,7.67,0,0,1,.45-1.15,2.3,2.3,0,0,1,.5-.61,1.2,1.2,0,0,1,.55-.25,4.67,4.67,0,0,1,.7-.11h.44a.21.21,0,0,1,.22.14.68.68,0,0,0,.41.27.65.65,0,0,0,.41-.06.59.59,0,0,0,.28-.3.65.65,0,0,0,0-.53,1.61,1.61,0,0,0-.75-.81,1.66,1.66,0,0,0-1-.14,3,3,0,0,0-1.1.36,4.7,4.7,0,0,0-1,.74,4.79,4.79,0,0,0-.82,1,3,3,0,0,0-.49,1.13,12.75,12.75,0,0,0-.18,1.58c0,.65-.09,1.44-.13,2.32-.21.06-.43.11-.64.15s-.47.07-.7.09a.48.48,0,0,0-.3-.07.51.51,0,0,0-.39.12.66.66,0,0,0-.2.35.84.84,0,0,0,.05.46l0,.09,0,.05a.64.64,0,0,0,.21.22l.06,0a.38.38,0,0,1,.16.06l.05,0h.06c.3,0,.6-.06.88-.1s.43-.08.65-.13c0,.83,0,1.7,0,2.6s.06,1.9.12,2.78.15,1.64.26,2.31a4.12,4.12,0,0,0,.5,1.48.76.76,0,0,0,.55.27l.14,0h.1l.07,0c.43-.21.44-.5.41-.64a.71.71,0,0,0-.33-.5,2.52,2.52,0,0,1-.24-.76,8.72,8.72,0,0,1-.09-1.07c0-.38,0-.74,0-1.07s0-.64,0-.84c-.06-.83-.13-1.68-.21-2.51s-.11-1.58-.14-2.36l1.88-.65a11.66,11.66,0,0,1,2.24-.55.62.62,0,0,0,.42-.27.61.61,0,0,0,.14-.42A.59.59,0,0,0,135.26,13.78Z" transform="translate(-0.64 -3.29)"/><path class="cls-2" d="M139.27,19.57a3.53,3.53,0,0,0-1.38-1.39,5.66,5.66,0,0,0-2.35-.73.54.54,0,0,0-.5-.22,3.66,3.66,0,0,0-1.92.64A3.37,3.37,0,0,0,132,19.19a4,4,0,0,0,0,3.34,3.82,3.82,0,0,0,1.14,1.31,3.64,3.64,0,0,0,1.87.61l.43,0a5.05,5.05,0,0,0,2-.37A3.87,3.87,0,0,0,139,22.93a3.21,3.21,0,0,0,.66-1.65A2.91,2.91,0,0,0,139.27,19.57ZM138.42,21a1.6,1.6,0,0,1-.34,1,2.63,2.63,0,0,1-1.13.8,4.54,4.54,0,0,1-1.95.28,2.51,2.51,0,0,1-1.16-.33,2.32,2.32,0,0,1-.72-.78,2.38,2.38,0,0,1-.3-1,2.8,2.8,0,0,1,.16-1,2.27,2.27,0,0,1,.6-.88,2.24,2.24,0,0,1,1-.53l.15.08.09,0a5,5,0,0,1,2,.39A2.82,2.82,0,0,1,138,20,1.75,1.75,0,0,1,138.42,21Z" transform="translate(-0.64 -3.29)"/><path class="cls-2" d="M145.55,16.2a.74.74,0,0,0-.32-.26.55.55,0,0,0-.49,0,7.43,7.43,0,0,0-2.13,1.81,7.72,7.72,0,0,0-1,1.79l0-.08-.28-.65q-.14-.33-.24-.63a2.54,2.54,0,0,1-.12-.61.62.62,0,0,0-.27-.42.54.54,0,0,0-.42-.12.61.61,0,0,0-.43.24.77.77,0,0,0-.12.31h0l0,.18.2,0h0l-.19.06,0,.06c0,.07,0,.15.08.27s.09.21.14.33a3.11,3.11,0,0,0,.14.31v0a1.27,1.27,0,0,1,.18.42c0,.15.09.39.19.73a7.64,7.64,0,0,1,.37,1.64c.07.57.12,1.16.16,1.77L141,24l.15.3.1.1a.29.29,0,0,0,.17.09.57.57,0,0,0,.18,0h0l.15,0h.07a.63.63,0,0,0,.34-.37.4.4,0,0,0,0-.25l0-.45a8.09,8.09,0,0,1,.65-3.72,5.9,5.9,0,0,1,2.53-2.65.58.58,0,0,0,.23-.42A.57.57,0,0,0,145.55,16.2Z" transform="translate(-0.64 -3.29)"/><path class="cls-2" d="M160.39,20a3.89,3.89,0,0,0-1-1.08,5.36,5.36,0,0,0-1.18-.63,8.66,8.66,0,0,0-1.31-.36l-1.33-.23c-.44-.08-.88-.18-1.3-.28a6.14,6.14,0,0,1-.88-.33c.19-.12.39-.23.59-.33a8.41,8.41,0,0,1,.95-.36c.34-.1.69-.18,1-.26s.67-.15,1-.24.38-.08.62-.14.42-.11.64-.15.45-.1.71-.14a.74.74,0,0,0,.44,0,.64.64,0,0,0,.36-.26.6.6,0,0,0,.09-.45.79.79,0,0,0-.28-.44l0,0a1.54,1.54,0,0,0-.93-.13,8.9,8.9,0,0,0-1.45.2,14.92,14.92,0,0,0-1.72.47,13.51,13.51,0,0,0-1.67.65,6.41,6.41,0,0,0-1.31.81,1.36,1.36,0,0,0-.56,1,.93.93,0,0,0,0,.25l0,.06.12.17.07.07a6.26,6.26,0,0,0,1.2.49c.44.12.9.23,1.37.32l1.4.29a7.63,7.63,0,0,1,1.29.34,4.1,4.1,0,0,1,1.05.51,2.08,2.08,0,0,1,.66.66,1.89,1.89,0,0,1-.87.78,5,5,0,0,1-1.41.41,11.64,11.64,0,0,1-1.56.07l-1.39-.09h-.05l0,0a.77.77,0,0,0-.36.26.58.58,0,0,0-.12.4.68.68,0,0,0,.16.37.79.79,0,0,0,.44.26c.53,0,1.11.07,1.73.08a9.94,9.94,0,0,0,1.82-.19,5.38,5.38,0,0,0,1.68-.67,3.66,3.66,0,0,0,1.29-1.4A1.16,1.16,0,0,0,160.39,20Z" transform="translate(-0.64 -3.29)"/><path class="cls-2" d="M168.17,17.56a3.62,3.62,0,0,0-1.38-1.4,5.66,5.66,0,0,0-2.35-.72.52.52,0,0,0-.5-.22,3.64,3.64,0,0,0-1.93.64,3.47,3.47,0,0,0-1.14,1.31,3.79,3.79,0,0,0-.36,1.68,3.54,3.54,0,0,0,1.52,3,3.56,3.56,0,0,0,1.87.62h.43a5.05,5.05,0,0,0,2-.36,4,4,0,0,0,1.56-1.17,3.11,3.11,0,0,0,.65-1.65A2.83,2.83,0,0,0,168.17,17.56ZM167.32,19a1.64,1.64,0,0,1-.34,1,2.63,2.63,0,0,1-1.13.8,4.73,4.73,0,0,1-1.95.28,2.48,2.48,0,0,1-1.16-.33A2.42,2.42,0,0,1,162,20a2.16,2.16,0,0,1-.3-1,2.74,2.74,0,0,1,.16-1,2.27,2.27,0,0,1,.6-.88,2.24,2.24,0,0,1,1-.53l.15.08.09,0a5.32,5.32,0,0,1,2,.39,2.93,2.93,0,0,1,1.19.87A1.71,1.71,0,0,1,167.32,19Z" transform="translate(-0.64 -3.29)"/><path class="cls-2" d="M178.67,20.86a.93.93,0,0,0-.25-.38l-.07,0s-.12,0-.32-.47l-.5-1.18c-.18-.43-.38-.86-.59-1.27a2.94,2.94,0,0,0-.68-.95.65.65,0,0,0-.88,0,2.92,2.92,0,0,0-.71,1.48s0,.11-.07.27l-.15.6c0,.11,0,.23-.08.35h0c-.08-.36-.18-.73-.29-1.1s-.23-.77-.37-1.15a3.29,3.29,0,0,0-.55-1,1.61,1.61,0,0,0-.77-.57,1.26,1.26,0,0,0-1,.12,1.17,1.17,0,0,0-.39.34c-.09.14-.18.3-.27.46a3.28,3.28,0,0,0-.2.52,3.81,3.81,0,0,0-.13.42,6.46,6.46,0,0,0-.2,1.34c0,.1,0,.21,0,.32a1.34,1.34,0,0,0-.08-.26l-.22-.83c-.06-.26-.11-.53-.15-.82s-.09-.63-.15-1.17a.64.64,0,0,0-.26-.42.59.59,0,0,0-.43-.12.61.61,0,0,0-.42.24.78.78,0,0,0-.13.52h0c.11.88.26,1.83.47,2.8a18.38,18.38,0,0,0,.78,2.7.66.66,0,0,0,.5.46h.11a.66.66,0,0,0,.52-.28,3.4,3.4,0,0,0,.46-1.36c.09-.54.17-1.08.25-1.62a12.36,12.36,0,0,1,.27-1.46,1.28,1.28,0,0,1,.38-.69,1.06,1.06,0,0,1,.27.36,4.48,4.48,0,0,1,.37.82,8.2,8.2,0,0,1,.33,1c.1.35.2.69.28,1l.24.88c.07.26.13.45.18.58l0,.05a.64.64,0,0,0,.45.29,1.09,1.09,0,0,0,.48-.12,2,2,0,0,0,.65-.79,5.77,5.77,0,0,0,.36-1c.09-.34.16-.7.22-1.05,0-.2.08-.38.12-.55a1.48,1.48,0,0,1,.25.57c.1.36.2.72.29,1.1a4.46,4.46,0,0,0,.39,1,1.5,1.5,0,0,0,.94.75.63.63,0,0,0,.47,0,.63.63,0,0,0,.32-.74Z" transform="translate(-0.64 -3.29)"/><path class="cls-2" d="M185.12,19.35a.56.56,0,0,0-.18-.36.49.49,0,0,0-.41-.15.63.63,0,0,0-.48.18,2.15,2.15,0,0,1-.86.62,4.38,4.38,0,0,1-1.2.28,4.65,4.65,0,0,1-1.24-.07,2.53,2.53,0,0,1-1-.41,1.31,1.31,0,0,1-.5-.73,1.36,1.36,0,0,1,.06-.83,1,1,0,0,0,.05.28.79.79,0,0,0,.26.29.72.72,0,0,0,.36.11,2.59,2.59,0,0,0,.74.16c.23,0,.49,0,.79,0h0a4,4,0,0,0,2.06-.72,1.46,1.46,0,0,0,.58-1.2,1.74,1.74,0,0,0-.57-1.2,3,3,0,0,0-1.29-.77,2.93,2.93,0,0,0-1.61,0,2.84,2.84,0,0,0-1.55,1.09c-.21.27-.37.48-.49.65a3.86,3.86,0,0,0-.31.48,2.62,2.62,0,0,0-.21.56l-.15.79a1.91,1.91,0,0,0,.2,1.41,2.62,2.62,0,0,0,1,.92,4.61,4.61,0,0,0,1.47.46,7.89,7.89,0,0,0,.84.05,7.34,7.34,0,0,0,.81-.05,5.8,5.8,0,0,0,1.55-.4,3.34,3.34,0,0,0,1.2-.88l0-.07A.76.76,0,0,0,185.12,19.35Zm-4.83-2.79a2.65,2.65,0,0,1,1.09-.4h.26a1.92,1.92,0,0,1,.69.12.69.69,0,0,1,.47.34c0,.08,0,.19-.17.33a2.65,2.65,0,0,1-1.23.44,1.14,1.14,0,0,1-.37,0l-.43-.08a2.3,2.3,0,0,0-.45-.05,1.28,1.28,0,0,0-.47.07l-.05,0a.58.58,0,0,0-.12.1A2.25,2.25,0,0,1,180.29,16.56Z" transform="translate(-0.64 -3.29)"/><path class="cls-2" d="M197,9a.5.5,0,0,0-.33-.27.66.66,0,0,0-.49,0c-.51.28-1,.59-1.52.91s-.79.46-1.2.67V7.12c0-.06,0-.18,0-.36s0-.44,0-.69a7.72,7.72,0,0,0,0-.82,3.93,3.93,0,0,0-.13-.8,2.49,2.49,0,0,0-.27-.7.94.94,0,0,0-.6-.46.65.65,0,0,0-.43.12.6.6,0,0,0-.26.34.77.77,0,0,0,0,.42.82.82,0,0,0,.27.29.75.75,0,0,1,0,.16l0,.3c.07.7.1,1.47.1,2.27v3.75a7.16,7.16,0,0,1-1.21.31.66.66,0,0,0-.4.33.67.67,0,0,0-.06.42.63.63,0,0,0,.23.35.65.65,0,0,0,.52.11h0l.6-.12.33-.09c0,.75,0,1.54.05,2.37s.1,1.81.19,2.71a23.31,23.31,0,0,0,.4,2.52,8.71,8.71,0,0,0,.69,2.06q.22.46.45.9c.14.3.3.6.49,1a.61.61,0,0,0,.39.23H195a.54.54,0,0,0,.27-.06.56.56,0,0,0,.27-.3.72.72,0,0,0,.05-.44l0-.06c-.15-.29-.31-.59-.48-.89a6.47,6.47,0,0,1-.42-.88,14.54,14.54,0,0,1-.68-2.31c-.16-.81-.28-1.62-.36-2.44s-.14-1.64-.16-2.48,0-1.58,0-2.36a15.38,15.38,0,0,0,1.65-.9c.57-.36,1.15-.71,1.73-1l0,0a.6.6,0,0,0,.18-.39A.51.51,0,0,0,197,9Z" transform="translate(-0.64 -3.29)"/><path class="cls-2" d="M199.1,16.54a12.61,12.61,0,0,0-.6-2.44.55.55,0,0,0-.34-.32.5.5,0,0,0-.39,0,.56.56,0,0,0-.35.26.85.85,0,0,0-.1.49v0a12.93,12.93,0,0,1,.53,2.25c.13.76.24,1.55.35,2.41a.58.58,0,0,0,.59.45h.12a.8.8,0,0,0,.37-.2.86.86,0,0,0,.17-.49C199.36,18.18,199.24,17.37,199.1,16.54Z" transform="translate(-0.64 -3.29)"/><path class="cls-2" d="M197.82,10.88l.13,0a.6.6,0,0,0,.35-.33.52.52,0,0,0,0-.4.61.61,0,0,0-.23-.37.73.73,0,0,0-.4-.18h0l-.48.18a.75.75,0,0,0-.36.28.58.58,0,0,0-.11.4.67.67,0,0,0,.16.38.68.68,0,0,0,.4.24h.19A.57.57,0,0,0,197.82,10.88Z" transform="translate(-0.64 -3.29)"/><path class="cls-2" d="M209.89,18.69a.82.82,0,0,0-.25-.38l-.07,0s-.12-.05-.32-.47l-.5-1.18c-.18-.43-.38-.86-.59-1.27a2.83,2.83,0,0,0-.68-.95.64.64,0,0,0-.88,0,2.92,2.92,0,0,0-.71,1.47l-.07.27-.15.61c0,.11,0,.22-.08.34h0c-.08-.34-.17-.7-.29-1.09a12,12,0,0,0-.37-1.16,3.23,3.23,0,0,0-.55-1,1.55,1.55,0,0,0-.77-.57,1.22,1.22,0,0,0-1,.12,1.17,1.17,0,0,0-.39.34,4,4,0,0,0-.27.46,2.85,2.85,0,0,0-.2.51c-.06.16-.1.31-.13.42a6.57,6.57,0,0,0-.2,1.34c0,.11,0,.22,0,.32,0-.09-.05-.18-.08-.26l-.22-.83c-.06-.26-.11-.53-.16-.81s-.09-.67-.14-1.17a.62.62,0,0,0-.26-.42.52.52,0,0,0-.43-.12.6.6,0,0,0-.42.23.79.79,0,0,0-.13.52h0c.11.9.26,1.84.47,2.81a19.13,19.13,0,0,0,.78,2.7.68.68,0,0,0,.5.46h.1a.7.7,0,0,0,.53-.28,3.25,3.25,0,0,0,.45-1.36c.09-.54.18-1.08.26-1.62a12.18,12.18,0,0,1,.27-1.47,1.25,1.25,0,0,1,.38-.69,1.14,1.14,0,0,1,.27.37,4.19,4.19,0,0,1,.37.82,8.83,8.83,0,0,1,.33,1c.1.34.2.68.28,1l.24.88c.07.26.13.45.17.58l0,.05a.58.58,0,0,0,.45.28,1,1,0,0,0,.48-.11,2,2,0,0,0,.65-.79,6.07,6.07,0,0,0,.36-1c.09-.36.17-.72.22-1.06a3.92,3.92,0,0,1,.12-.54,1.5,1.5,0,0,1,.25.56c.1.36.2.73.28,1.1a4.86,4.86,0,0,0,.4,1.05,1.52,1.52,0,0,0,.94.74.58.58,0,0,0,.47,0,.53.53,0,0,0,.29-.3A.63.63,0,0,0,209.89,18.69Z" transform="translate(-0.64 -3.29)"/><path class="cls-2" d="M216.34,17.18a.59.59,0,0,0-.18-.36.51.51,0,0,0-.41-.16.74.74,0,0,0-.48.19,2.25,2.25,0,0,1-.86.62,4.88,4.88,0,0,1-1.2.28,4.76,4.76,0,0,1-1.25-.08,2.66,2.66,0,0,1-1-.4,1.29,1.29,0,0,1-.49-.73,1.35,1.35,0,0,1,.06-.83.65.65,0,0,0,.05.27.75.75,0,0,0,.26.3.69.69,0,0,0,.36.11,3,3,0,0,0,.74.16l.78,0h0a4.08,4.08,0,0,0,2.06-.72,1.46,1.46,0,0,0,.58-1.2,1.76,1.76,0,0,0-.57-1.2,2.92,2.92,0,0,0-1.29-.77,2.89,2.89,0,0,0-3.16,1.07l-.49.65a5.5,5.5,0,0,0-.31.48,3.11,3.11,0,0,0-.21.57l-.16.79a1.93,1.93,0,0,0,.21,1.4,2.57,2.57,0,0,0,1,.93,4.88,4.88,0,0,0,1.47.46,7.89,7.89,0,0,0,.84.05,7.34,7.34,0,0,0,.81-.05,5.46,5.46,0,0,0,1.55-.41,3.29,3.29,0,0,0,1.2-.87l0-.07A.76.76,0,0,0,216.34,17.18Zm-4.83-2.8a2.49,2.49,0,0,1,1.08-.39l.27,0a1.92,1.92,0,0,1,.69.12.75.75,0,0,1,.47.34c0,.08,0,.19-.17.33a2.53,2.53,0,0,1-1.23.44,1.15,1.15,0,0,1-.37,0l-.43-.09a2.3,2.3,0,0,0-.45,0,1.11,1.11,0,0,0-.47.08l-.05,0a1.31,1.31,0,0,0-.12.11A2.22,2.22,0,0,1,211.51,14.38Z" transform="translate(-0.64 -3.29)"/><path class="cls-2" d="M229.4,19.68l0-.05c-.23-.5-.45-1-.65-1.54s-.41-1-.62-1.56L227.48,15c-.21-.52-.46-1.05-.72-1.55-.12-.21-.23-.41-.32-.59a2.13,2.13,0,0,0-.4-.62l-.32-.35a1.57,1.57,0,0,0-.42-.35.86.86,0,0,0-1.05,0,2.32,2.32,0,0,0-.63.86,5.25,5.25,0,0,0-.27.79c0-.17,0-.34,0-.51a.66.66,0,0,0-.22-.41.65.65,0,0,0-.75,0,.65.65,0,0,0-.26.41v0a17.83,17.83,0,0,0,.21,2.59,17.63,17.63,0,0,0,.62,2.48.66.66,0,0,0,.21.34.75.75,0,0,0,.4.13h.16a.65.65,0,0,0,.62-.62,9.12,9.12,0,0,0,.05-1.3c0-.47,0-.89,0-1.3a8.41,8.41,0,0,1,.12-1.25,3.27,3.27,0,0,1,.36-1,5.79,5.79,0,0,1,.91,1.34,22.28,22.28,0,0,1,.93,2c.31.73.59,1.45.83,2.15s.53,1.35.77,1.86l0,0a.68.68,0,0,0,.39.24h.13a.44.44,0,0,0,.26-.07.58.58,0,0,0,.27-.29A.74.74,0,0,0,229.4,19.68Z" transform="translate(-0.64 -3.29)"/><path class="cls-2" d="M235.5,12.87a3.63,3.63,0,0,0-1.39-1.39,5.66,5.66,0,0,0-2.34-.73.54.54,0,0,0-.51-.22,3.72,3.72,0,0,0-1.92.64,3.34,3.34,0,0,0-1.14,1.32,3.75,3.75,0,0,0-.37,1.67,3.81,3.81,0,0,0,.38,1.66,3.76,3.76,0,0,0,1.14,1.32,3.71,3.71,0,0,0,1.88.61l.42,0a5,5,0,0,0,2-.37,3.87,3.87,0,0,0,1.56-1.17,3,3,0,0,0,.66-1.65A2.85,2.85,0,0,0,235.5,12.87Zm-.86,1.45a1.57,1.57,0,0,1-.33,1,2.73,2.73,0,0,1-1.14.8,4.54,4.54,0,0,1-1.95.28,2.09,2.09,0,0,1-1.88-1.11,2.38,2.38,0,0,1-.3-1,2.74,2.74,0,0,1,.16-1,2.29,2.29,0,0,1,.61-.88,2.21,2.21,0,0,1,1-.53L231,12l.09,0a4.93,4.93,0,0,1,2,.39,2.76,2.76,0,0,1,1.19.86A1.64,1.64,0,0,1,234.64,14.32Z" transform="translate(-0.64 -3.29)"/><path class="cls-2" d="M243.4,11.71a.54.54,0,0,0-.37-.15.63.63,0,0,0-.39.11.66.66,0,0,0-.26.43c0,.18,0,.38,0,.62a4.64,4.64,0,0,1-.07.64,2.18,2.18,0,0,1-.14.6,1.34,1.34,0,0,1-.12.3,2,2,0,0,1-.44-.59,7.08,7.08,0,0,1-.4-1q-.16-.54-.3-1.08a7.26,7.26,0,0,0-.31-1.09.63.63,0,0,0-.56-.35h0a.65.65,0,0,0-.57.36,5.89,5.89,0,0,0-.27,1c0,.32-.07.65-.1,1l0,1c0,.32,0,.64-.07,1,0,.08,0,.2-.05.39s0,.36-.07.55a2.16,2.16,0,0,1-.16.51.48.48,0,0,1-.09.16,1.21,1.21,0,0,1-.26-.34,5.07,5.07,0,0,1-.31-.71,6.62,6.62,0,0,1-.22-.78c-.06-.27-.11-.49-.16-.66-.11-.45-.24-1-.39-1.54a14.2,14.2,0,0,0-.55-1.71,8.66,8.66,0,0,0-.81-1.61,3.51,3.51,0,0,0-1.2-1.14,1.2,1.2,0,0,0-.48-.17l-.46-.07a.69.69,0,0,0-.43.11.55.55,0,0,0-.24.32.55.55,0,0,0,0,.42.71.71,0,0,0,.29.34l.06,0a3.41,3.41,0,0,1,.53.16,1.67,1.67,0,0,1,.39.23,1.94,1.94,0,0,1,.32.32q.14.2.3.48a5.93,5.93,0,0,1,.44.87c.12.28.23.6.34.94a8.43,8.43,0,0,1,.27.87c.1.33.18.63.25.89.14.51.27,1.06.4,1.68a5,5,0,0,0,.72,1.64,1.78,1.78,0,0,0,.76.67,1.35,1.35,0,0,0,.42.08.94.94,0,0,0,.37-.07,1.46,1.46,0,0,0,.63-.52,2.46,2.46,0,0,0,.39-.9c.05-.23.1-.45.13-.67s.07-.46.09-.68.06-.67.07-1v0l.12.31a6,6,0,0,0,.69,1.23,1.29,1.29,0,0,0,.76.59.9.9,0,0,0,.71-.15,1.67,1.67,0,0,0,.52-.59,2.86,2.86,0,0,0,.31-.73,2.51,2.51,0,0,0,.1-.44,2.9,2.9,0,0,1,.06-.41c0-.2.06-.4.08-.6l0-.62A.66.66,0,0,0,243.4,11.71Z" transform="translate(-0.64 -3.29)"/></svg>