<svg width="275" height="79" viewBox="0 0 275 79" fill="none" xmlns="http://www.w3.org/2000/svg">
<path d="M137.429 1.81776C99.783 1.00955 65.6319 4.82856 40.8569 11.6391C28.4646 15.0458 18.4609 19.1894 11.5428 23.8466C4.60407 28.5177 0.918368 33.5984 0.80558 38.8521C0.693087 44.092 4.14702 49.0578 10.8789 53.6211C17.5944 58.1734 27.4193 62.2133 39.6691 65.6184C64.1574 72.4254 98.1441 76.6436 135.805 77.4521C173.502 78.2614 207.9 77.9131 232.921 74.5632C245.44 72.8873 255.547 70.4676 262.535 67.1024C269.533 63.7323 273.207 59.5209 273.318 54.3232C273.431 49.0476 269.882 43.2064 263.038 37.3296C256.223 31.477 246.275 25.7089 233.923 20.5741C209.225 10.3072 175.042 2.62525 137.429 1.81776Z" stroke="#212121" stroke-width="1.5"/>
</svg>
