<svg width="63" height="17" viewBox="0 0 63 17" fill="none" xmlns="http://www.w3.org/2000/svg">
<path fill-rule="evenodd" clip-rule="evenodd" d="M28.9531 2.35715C28.2381 2.32017 27.0541 2.05645 25.9654 1.95459C25.0207 1.86634 24.1282 1.91326 23.5064 2.16238C22.8923 2.4075 22.4363 2.86407 22.1101 3.44315C21.7802 4.03393 21.5959 4.76647 21.425 5.33958C20.7079 7.74897 20.2132 10.2253 19.5702 12.6531C19.4038 13.2727 19.7735 13.9123 20.3931 14.0787C21.0166 14.2451 21.6524 13.8715 21.8188 13.2519C22.4583 10.8474 22.9494 8.39062 23.659 6.00463C23.7705 5.63036 23.8729 5.16682 24.0577 4.75661C24.133 4.58086 24.1965 4.39368 24.3664 4.32538C24.7179 4.18863 25.2194 4.22457 25.752 4.27565C26.8757 4.38092 28.0985 4.64801 28.8368 4.68468C29.478 4.71877 30.0265 4.22211 30.0568 3.58099C30.0909 2.93983 29.5982 2.39119 28.9531 2.35715Z" fill="#212121"/>
<path fill-rule="evenodd" clip-rule="evenodd" d="M28.4792 7.39233C26.7246 7.43145 24.9375 7.3661 23.1814 7.29651C22.5404 7.27018 21.9957 7.77069 21.9693 8.41175C21.9469 9.05665 22.4435 9.59745 23.0884 9.62373C24.8912 9.69657 26.7287 9.76124 28.53 9.72149C29.1744 9.70895 29.6836 9.17399 29.6672 8.52962C29.6547 7.88908 29.1198 7.37983 28.4792 7.39233Z" fill="#212121"/>
<path fill-rule="evenodd" clip-rule="evenodd" d="M31.4081 4.98725C31.3042 5.63324 31.1426 6.60229 31.0873 6.82437C30.612 8.72959 30.1367 10.631 29.638 12.5287C29.4716 13.1523 29.8451 13.7879 30.4647 13.9543C31.0882 14.1168 31.724 13.7471 31.8904 13.1236C32.3928 11.2141 32.8719 9.30497 33.3471 7.38811C33.4355 7.03356 33.7252 5.47257 33.8091 4.78025C33.8613 4.33299 33.7911 4.0272 33.7628 3.94216C33.6498 3.62526 33.4534 3.45315 33.2889 3.34663C32.9559 3.13366 32.5785 3.07661 32.1541 3.27647C32.0808 3.31241 31.6525 3.52394 31.411 4.33099C31.3441 4.55323 31.3471 4.77838 31.4081 4.98725Z" fill="#212121"/>
<path fill-rule="evenodd" clip-rule="evenodd" d="M36.6214 9.85896C38.27 9.15725 39.5062 7.52914 39.7733 6.01891C39.9464 5.03416 39.7397 4.10119 39.1282 3.38716C38.576 2.74611 37.6567 2.24195 36.2076 2.19154C35.4695 2.16652 34.7659 2.39736 34.0821 2.65895C33.2941 2.96466 32.4919 3.37541 31.8667 3.95463C31.395 4.39199 31.37 5.13011 31.8074 5.60185C32.2447 6.07359 32.9828 6.0986 33.4546 5.66123C33.8611 5.28299 34.4014 5.03495 34.919 4.83383C35.3092 4.68491 35.7028 4.50488 36.1302 4.52243C36.7984 4.54451 37.2388 4.66285 37.4219 4.99434C37.5772 5.2796 37.5044 5.64562 37.3693 6.0008C37.0766 6.75805 36.3953 7.48947 35.5487 7.77655C34.7524 8.03966 34.0409 7.97546 33.2287 7.92425C32.222 7.85624 32.0187 8.62005 31.9708 8.80709C31.9007 9.08373 31.8679 9.5307 32.3045 9.94809C32.3635 10.0017 32.4931 10.1086 32.6923 10.1991C32.8408 10.2709 33.153 10.3794 33.2859 10.4475C33.6377 10.6214 33.9976 10.8145 34.3229 11.0392C35.3498 11.7477 36.2933 12.6088 36.9408 13.6912C37.2666 14.2421 37.9836 14.4227 38.5344 14.093C39.0892 13.7671 39.2698 13.0502 38.9401 12.4994C38.3362 11.4824 37.5284 10.6078 36.6214 9.85896Z" fill="#212121"/>
<path fill-rule="evenodd" clip-rule="evenodd" d="M50.8765 2.30367C49.92 2.21557 48.4742 1.82726 47.1412 1.7481C45.9831 1.67825 44.902 1.84422 44.1131 2.37128C43.1817 2.99345 42.5504 3.98826 42.1272 5.14335C41.6142 6.55592 41.4192 8.2244 41.1365 9.43972C41.0008 10.0279 40.808 10.7061 40.8319 11.3309C40.852 11.9597 41.0542 12.5512 41.5386 13.0573C42.1844 13.7281 43.1095 14.0884 44.1442 14.2182C45.35 14.3689 46.7069 14.2109 47.6615 14.1592C48.3056 14.1234 48.7952 13.5732 48.7593 12.9291C48.7236 12.2889 48.1733 11.7953 47.5331 11.8311C46.8192 11.8717 45.85 11.9897 44.9214 11.9478C44.2647 11.9178 43.6153 11.8527 43.2176 11.4426C43.0837 11.3046 43.1549 11.1133 43.1836 10.9343C43.2374 10.6036 43.3378 10.2683 43.4074 9.96444C43.6313 8.99843 43.7891 7.73431 44.1189 6.56107C44.3745 5.64899 44.7083 4.77469 45.4049 4.311C45.9553 3.94247 46.7758 4.02856 47.5926 4.13019C48.7245 4.2703 49.8698 4.54996 50.6707 4.62074C51.3083 4.67818 51.8767 4.2046 51.9341 3.567C51.9915 2.92552 51.5179 2.36106 50.8765 2.30367Z" fill="#212121"/>
<path fill-rule="evenodd" clip-rule="evenodd" d="M49.1662 7.05197C47.397 6.87772 45.6117 6.94054 43.8368 6.91781C43.1959 6.90701 42.667 7.42287 42.6562 8.0676C42.6493 8.7084 43.1651 9.23736 43.8059 9.24428C45.5147 9.2679 47.238 9.20202 48.9411 9.36939C49.5787 9.43072 50.1509 8.96088 50.2122 8.32323C50.2735 7.6817 49.8077 7.11324 49.1662 7.05197Z" fill="#212121"/>
<path fill-rule="evenodd" clip-rule="evenodd" d="M53.9306 10.9916C53.9408 10.8866 53.9618 10.7116 53.9875 10.6025C54.0718 10.2286 54.1873 9.86981 54.2267 9.62076C54.3925 8.66718 54.5589 7.46899 54.8856 6.35015C55.1566 5.42622 55.5176 4.54769 56.1822 4.01842C56.3551 3.88019 56.5953 3.83812 56.8589 3.80739C57.2814 3.75123 57.7553 3.76429 58.2335 3.80057C59.4189 3.88171 60.6252 4.06736 61.3853 3.99501C62.0252 3.93593 62.4952 3.36657 62.4361 2.72666C62.3731 2.08679 61.8038 1.61683 61.1638 1.67591C60.3417 1.75686 58.9321 1.46518 57.6737 1.44326C56.4968 1.42026 55.428 1.64046 54.7326 2.19344C53.9027 2.85307 53.3139 3.82399 52.9016 4.92844C52.3808 6.34112 52.1504 7.97124 51.9343 9.2245C51.8512 9.68771 51.5633 10.5148 51.5915 11.1629C51.6147 11.7334 51.8154 12.2199 52.1929 12.576C52.8733 13.2153 53.798 13.5446 54.8169 13.6591C56.0186 13.7944 57.3559 13.6249 58.3414 13.5612C58.9854 13.5214 59.4712 12.9674 59.4314 12.3234C59.3918 11.6832 58.8377 11.1936 58.1976 11.2371C57.4526 11.2821 56.4875 11.4116 55.559 11.3774C54.9568 11.3584 54.3619 11.3003 53.9306 10.9916Z" fill="#212121"/>
<path fill-rule="evenodd" clip-rule="evenodd" d="M60.531 7.00356C58.5881 6.90154 56.6723 6.79142 54.7312 6.82529C54.0867 6.83783 53.5736 7.36896 53.5861 8.01338C53.5986 8.65392 54.1296 9.16711 54.774 9.15456C56.6608 9.12143 58.5222 9.22839 60.4068 9.32731C61.048 9.3614 61.5967 8.86872 61.6308 8.22755C61.6649 7.5825 61.1721 7.03377 60.531 7.00356Z" fill="#212121"/>
<path fill-rule="evenodd" clip-rule="evenodd" d="M6.99722 5.40396C5.53547 4.20238 4.35103 2.77145 3.46098 1.10431C3.28296 0.772248 2.86876 0.645584 2.53328 0.823595C2.20122 1.00161 2.07453 1.41583 2.25255 1.75131C3.23161 3.57593 4.52563 5.14379 6.12773 6.46176C6.41871 6.70139 6.85345 6.6603 7.09308 6.36932C7.33271 6.07492 7.2882 5.64359 6.99722 5.40396Z" fill="#212121"/>
<path fill-rule="evenodd" clip-rule="evenodd" d="M6.21232 0.724138C6.28763 2.10715 6.35611 3.49015 6.44169 4.87316C6.46566 5.24972 6.79087 5.53728 7.16743 5.51331C7.54399 5.48935 7.83154 5.16414 7.80758 4.78758C7.722 3.40799 7.65352 2.02842 7.57821 0.645409C7.55767 0.269875 7.23246 -0.0193947 6.8559 0.00182967C6.47934 0.0230541 6.18835 0.34655 6.21232 0.724138Z" fill="#212121"/>
<path fill-rule="evenodd" clip-rule="evenodd" d="M11.2964 1.00485C10.42 2.32624 9.42729 3.54492 8.42769 4.7773C8.18806 5.0717 8.23254 5.50306 8.52694 5.73926C8.82134 5.97889 9.2527 5.93438 9.4889 5.63998C10.5159 4.37678 11.536 3.12043 12.4398 1.76139C12.6486 1.44644 12.5596 1.02197 12.2446 0.813149C11.9331 0.604329 11.5052 0.68991 11.2964 1.00485Z" fill="#212121"/>
<path fill-rule="evenodd" clip-rule="evenodd" d="M14.6891 5.91786C12.3134 6.02398 9.79039 6.0274 7.41463 5.87678C7.03807 5.85624 6.71286 6.14037 6.6889 6.52036C6.66493 6.89692 6.95249 7.22213 7.32905 7.24609C9.75274 7.39672 12.3271 7.39329 14.7508 7.28717C15.1273 7.27005 15.4217 6.94828 15.4046 6.57172C15.3875 6.19515 15.0657 5.90074 14.6891 5.91786Z" fill="#212121"/>
<path fill-rule="evenodd" clip-rule="evenodd" d="M6.12437 6.35158C7.58953 8.14538 9.10607 9.90497 10.4651 11.7809C10.6876 12.0856 11.1156 12.154 11.4237 11.9315C11.7283 11.709 11.7968 11.2811 11.5743 10.9764C10.1981 9.07992 8.66448 7.29982 7.18219 5.48548C6.94256 5.1945 6.51121 5.15 6.22023 5.38963C5.92583 5.62926 5.88474 6.0606 6.12437 6.35158Z" fill="#212121"/>
<path fill-rule="evenodd" clip-rule="evenodd" d="M6.56186 6.87245C6.94526 8.74157 7.05139 10.5285 7.07878 12.4216C7.0822 12.7982 7.39372 13.0994 7.77029 13.096C8.15027 13.0891 8.45151 12.781 8.44466 12.401C8.41728 10.419 8.30432 8.55329 7.9038 6.59517C7.82506 6.22545 7.46562 5.98581 7.09248 6.06454C6.72277 6.13985 6.48312 6.50274 6.56186 6.87245Z" fill="#212121"/>
<path fill-rule="evenodd" clip-rule="evenodd" d="M6.62436 6.7222C5.51521 8.94049 4.94352 11.4053 3.75564 13.5756C3.57421 13.9043 3.69742 14.3219 4.02948 14.5033C4.36154 14.6848 4.77578 14.5615 4.95722 14.2329C6.15195 12.0488 6.73046 9.57037 7.84988 7.33496C8.01762 6.99606 7.88068 6.58526 7.5452 6.4141C7.2063 6.24636 6.79552 6.3833 6.62436 6.7222Z" fill="#212121"/>
<path fill-rule="evenodd" clip-rule="evenodd" d="M7.23825 6.21809C5.03023 6.60834 2.82563 6.78635 0.60392 7.04994C0.227358 7.09444 -0.0396583 7.43336 0.00484444 7.80992C0.0493472 8.18648 0.388284 8.4535 0.764846 8.409C3.01052 8.1454 5.2425 7.96054 7.47791 7.56686C7.84762 7.4984 8.09752 7.14237 8.03248 6.77266C7.96401 6.39952 7.61139 6.14962 7.23825 6.21809Z" fill="#212121"/>
<path fill-rule="evenodd" clip-rule="evenodd" d="M8.7801 5.17813C8.32481 5.15759 7.89347 5.12677 7.44844 5.06173C7.07188 5.00695 6.72612 5.26712 6.67135 5.64026C6.61657 6.0134 6.87672 6.36258 7.24986 6.41736C7.74281 6.48925 8.21866 6.52348 8.71846 6.54402C9.09503 6.56113 9.4168 6.27014 9.43049 5.89016C9.44761 5.51359 9.15666 5.19524 8.7801 5.17813Z" fill="#212121"/>
</svg>
