<svg width="103" height="59" viewBox="0 0 103 59" fill="none" xmlns="http://www.w3.org/2000/svg">
<path d="M18.2206 14.8244C18.4019 14.7075 18.5707 14.6587 18.7269 14.678C18.9029 14.6917 19.0408 14.7594 19.1406 14.8811C19.2346 14.983 19.2847 15.1191 19.2909 15.2894C19.317 15.454 19.2806 15.6259 19.1818 15.805C17.9391 16.9388 16.7563 18.1305 15.6332 19.3803C14.5101 20.6301 13.4155 21.9039 12.3494 23.2017C11.2775 24.4797 10.2113 25.7776 9.15094 27.0953C8.11039 28.4072 7.05417 29.7022 5.98229 30.9802C6.64225 30.5097 7.31082 30.069 7.988 29.6581C8.66518 29.2472 9.37943 28.8901 10.1308 28.5868C10.8962 28.2579 11.7115 27.99 12.5767 27.7828C13.4419 27.5757 14.3953 27.4507 15.437 27.4076C16.789 27.6191 17.9684 28.0526 18.9754 28.708C19.9767 29.3436 20.828 30.1301 21.5292 31.0676C22.2504 31.9992 22.8527 33.0406 23.336 34.1916C23.8194 35.3427 24.232 36.5464 24.5738 37.803C24.9098 39.0396 25.1962 40.2906 25.4329 41.556C25.6754 42.8412 25.9177 44.0512 26.1597 45.1859C26.3664 45.9007 26.6127 46.6039 26.8988 47.2957C27.2047 47.9817 27.5799 48.5724 28.0243 49.0678C28.4885 49.5575 29.0333 49.9163 29.6585 50.1443C30.3094 50.3863 31.093 50.4179 32.0094 50.2391C32.8662 50.0774 33.6943 49.8165 34.4937 49.4562C35.2931 49.096 36.104 48.7756 36.9264 48.4948C37.1761 48.4656 37.3678 48.4962 37.5015 48.5866C37.6608 48.6912 37.7634 48.8228 37.8093 48.9817C37.8553 49.1405 37.8359 49.2967 37.7512 49.4503C37.6921 49.6179 37.5463 49.7461 37.3138 49.8349C36.4716 50.1214 35.6322 50.4179 34.7958 50.7242C33.965 51.0505 33.1285 51.3569 32.2863 51.6434C31.756 51.8182 31.1685 51.8698 30.5239 51.798C29.9049 51.7403 29.2997 51.5818 28.7084 51.3225C28.137 51.0575 27.6178 50.7128 27.1509 50.2884C26.6898 49.8839 26.3519 49.4222 26.1374 48.9034C25.9113 48.3449 25.6882 47.7963 25.4679 47.2576C25.2732 46.733 25.0757 46.1985 24.8752 45.6541C24.6148 44.9765 24.4267 44.2887 24.3109 43.5907C24.1952 42.8927 24.0567 42.1905 23.8955 41.4842C23.6508 40.4147 23.3832 39.2658 23.0926 38.0376C22.8021 36.8093 22.4179 35.6295 21.9403 34.4984C21.4569 33.3473 20.8447 32.3088 20.1037 31.3829C19.357 30.4371 18.408 29.7218 17.2568 29.2372C16.3244 28.8399 15.363 28.6768 14.3724 28.7481C13.4018 28.8136 12.4217 29.0324 11.4321 29.4046C10.4624 29.771 9.49444 30.2552 8.5283 30.8572C7.57628 31.4336 6.64853 32.0568 5.74506 32.7268C5.82543 33.0048 5.90292 33.2728 5.97754 33.5309C6.04642 33.7691 6.12809 34.0144 6.22257 34.2668C6.66982 35.6649 7.12831 37.0275 7.59805 38.3546C8.0819 39.6561 8.60259 40.9361 9.16012 42.1948C9.71764 43.4535 10.3248 44.6978 10.9816 45.9278C11.6582 47.152 12.4172 48.3632 13.2584 49.5614C13.3356 49.7542 13.3547 49.9315 13.3154 50.0935C13.296 50.2497 13.2255 50.3776 13.1037 50.4774C13.0018 50.5714 12.8657 50.6215 12.6954 50.6277C12.5251 50.6339 12.3574 50.5748 12.1924 50.4504C11.8645 49.9859 11.5195 49.537 11.1577 49.1038C10.8156 48.6649 10.5203 48.2017 10.2718 47.7142C9.13788 45.5035 8.08178 43.2273 7.10355 40.8855C6.12531 38.5437 5.24766 36.1406 4.47059 33.6761C3.85608 34.155 3.24862 34.621 2.64822 35.0743C2.06768 35.5218 1.51823 35.9281 0.999875 36.2931C0.80708 36.3703 0.626845 36.3794 0.45917 36.3203C0.291495 36.2612 0.170584 36.1779 0.0964363 36.0702C0.0165488 35.9427 -0.0137048 35.8009 0.00567547 35.6447C-0.000537974 35.4744 0.0713461 35.3138 0.221328 35.1628L0.45491 34.9662C0.415203 34.9777 0.361382 35.0148 0.293448 35.0774C0.893375 34.4737 1.48624 33.8828 2.07206 33.3047C2.65213 32.7067 3.22646 32.0889 3.79505 31.4512C3.1548 29.1623 2.61956 26.8646 2.18932 24.558C1.77894 22.2457 1.50334 19.9159 1.36253 17.5686C1.37881 17.3273 1.45488 17.1439 1.59075 17.0186C1.72661 16.8933 1.88257 16.8374 2.05862 16.8511C2.22893 16.8448 2.38381 16.8969 2.52326 17.0072C2.6627 17.1174 2.73709 17.3003 2.74641 17.5558C2.87526 19.7128 3.13316 21.8326 3.52011 23.9151C3.92118 25.9719 4.40034 28.0385 4.9576 30.1147C6.46221 28.3244 7.90283 26.4988 9.27947 24.6379C10.676 22.7712 12.1649 20.9639 13.7463 19.2159C14.1848 18.7234 14.5681 18.3007 14.8963 17.9476C15.2443 17.5888 15.5783 17.2556 15.8981 16.948C16.2377 16.6347 16.5873 16.3185 16.9469 15.9994C17.3205 15.6548 17.7451 15.2631 18.2206 14.8244ZM0.221328 35.1628C0.207214 35.1884 0.190231 35.2041 0.170377 35.2098C0.170377 35.2098 0.177434 35.197 0.191547 35.1714L0.221328 35.1628Z" fill="#212121"/>
<path d="M27.6997 26.9601C27.9975 26.874 28.2106 26.9415 28.3391 27.1625C29.9225 26.9844 31.2656 27.0909 32.3683 27.482C33.4653 27.8533 34.313 28.4042 34.9114 29.1347C35.524 29.8396 35.8771 30.6518 35.9708 31.5713C36.0844 32.485 35.934 33.3783 35.5194 34.2511C35.1189 35.0983 34.4571 35.8598 33.5337 36.5355C32.6047 37.1913 31.4194 37.6308 29.978 37.854C28.8402 38.0108 27.8306 37.9047 26.9495 37.5356C26.0824 37.1409 25.3682 36.6052 24.8068 35.9285C24.2595 35.2262 23.8894 34.4296 23.6964 33.5389C23.4977 32.6282 23.5006 31.7454 23.7051 30.8902C23.9096 30.0351 24.3401 29.2545 24.9965 28.5484C25.6471 27.8225 26.5482 27.2931 27.6997 26.9601ZM27.3089 28.6221C26.6088 28.9536 26.0609 29.4024 25.6652 29.9686C25.2837 30.5091 25.0442 31.0947 24.9469 31.7252C24.8636 32.3301 24.901 32.9432 25.0591 33.5644C25.237 34.1799 25.5325 34.7183 25.9456 35.1797C26.3587 35.6411 26.8708 35.9986 27.4819 36.2522C28.1072 36.4802 28.8213 36.5319 29.6243 36.4073C30.9351 36.1789 31.9842 35.7895 32.7717 35.2392C33.5592 34.6888 34.1066 34.0895 34.414 33.4413C34.7156 32.7732 34.7817 32.1087 34.6121 31.4478C34.4566 30.7613 34.0844 30.1805 33.4952 29.7055C32.9202 29.2048 32.1427 28.8595 31.1627 28.6696C30.177 28.4597 29.0217 28.4818 27.6968 28.7358L27.3089 28.6221Z" fill="#212121"/>
<path d="M31.0486 12.6968C30.9797 12.4586 30.9847 12.2527 31.0637 12.0793C31.1625 11.9002 31.2884 11.7777 31.4415 11.7119C31.5946 11.6462 31.7578 11.6527 31.9312 11.7317C32.1188 11.785 32.2668 11.9251 32.3754 12.1518C32.892 13.9387 33.3804 15.7767 33.8406 17.6659C34.3206 19.5493 34.8262 21.4469 35.3573 23.3586C35.8828 25.2504 36.4649 27.1151 37.1038 28.9526C37.7625 30.7844 38.5288 32.542 39.4028 34.2255C39.5312 34.4466 39.5588 34.6537 39.4856 34.847C39.4265 35.0146 39.3233 35.1413 39.176 35.2269C39.0427 35.287 38.8753 35.3031 38.6736 35.2753C38.4919 35.2418 38.3396 35.1245 38.2169 34.9233C37.3429 33.2399 36.5737 31.4723 35.9093 29.6206C35.2392 27.7491 34.6285 25.8604 34.0775 23.9545C33.5463 22.0428 33.0378 20.1353 32.5521 18.232C32.0664 16.3287 31.5652 14.4836 31.0486 12.6968Z" fill="#212121"/>
<path d="M41.7779 22.8899C42.0757 22.8038 42.2888 22.8712 42.4172 23.0922C44.0007 22.9141 45.3438 23.0206 46.4465 23.4117C47.5434 23.783 48.3911 24.3339 48.9896 25.0644C49.6021 25.7693 49.9553 26.5815 50.049 27.501C50.1626 28.4148 50.0121 29.308 49.5976 30.1808C49.1971 31.0281 48.5352 31.7895 47.6119 32.4652C46.6828 33.1211 45.4976 33.5606 44.0562 33.7837C42.9183 33.9406 41.9088 33.8344 41.0276 33.4653C40.1606 33.0706 39.4463 32.5349 38.885 31.8582C38.3377 31.1559 37.9676 30.3594 37.7746 29.4686C37.5758 28.558 37.5787 27.6751 37.7833 26.82C37.9878 25.9648 38.4183 25.1842 39.0746 24.4781C39.7253 23.7522 40.6264 23.2228 41.7779 22.8899ZM41.3871 24.5518C40.6869 24.8833 40.139 25.3321 39.7434 25.8983C39.3619 26.4389 39.1224 27.0244 39.025 27.6549C38.9418 28.2598 38.9792 28.8729 39.1373 29.4941C39.3152 30.1096 39.6107 30.648 40.0238 31.1094C40.4369 31.5709 40.949 31.9284 41.5601 32.1819C42.1854 32.4099 42.8995 32.4616 43.7025 32.337C45.0133 32.1086 46.0624 31.7192 46.8499 31.1689C47.6373 30.6185 48.1848 30.0192 48.4921 29.371C48.7938 28.7029 48.8598 28.0384 48.6903 27.3775C48.5348 26.691 48.1625 26.1103 47.5734 25.6352C46.9984 25.1345 46.2209 24.7892 45.2409 24.5993C44.2552 24.3895 43.0999 24.4116 41.7749 24.6655L41.3871 24.5518Z" fill="#212121"/>
<path d="M59.6096 15.6368C59.84 15.7638 59.9909 15.9138 60.0624 16.0868C60.1339 16.2597 60.1402 16.43 60.0811 16.5977C60.0162 16.7455 59.9002 16.8651 59.733 16.9565C59.5658 17.0478 59.3686 17.0726 59.1414 17.0307C58.7161 17.1967 58.3234 17.364 57.9634 17.5326C57.6374 17.6699 57.3072 17.8299 56.9728 18.0127C56.6326 18.1755 56.3293 18.317 56.0629 18.4371C55.5754 18.6856 55.0751 18.927 54.562 19.1614C54.0489 19.3958 53.5316 19.653 53.0102 19.9328C52.5086 20.2069 52.0284 20.5178 51.5696 20.8656C51.1108 21.2134 50.6961 21.6022 50.3256 22.032C51.0047 22.2229 51.7062 22.3428 52.4303 22.3916C53.1684 22.4148 53.9009 22.4182 54.6275 22.4017C55.3683 22.3596 56.1021 22.3304 56.8288 22.3139C57.5753 22.2917 58.2965 22.3306 58.9923 22.4306C59.6881 22.5306 60.3573 22.7244 60.9997 23.0119C61.6422 23.2994 62.2426 23.739 62.8008 24.3305C62.9919 24.6195 63.0809 24.9272 63.0677 25.2537C62.7728 26.2425 62.2786 27.0631 61.5851 27.7154C60.9115 28.3619 60.1283 28.8895 59.2353 29.2983C58.3565 29.6814 57.432 29.981 56.4618 30.197C55.4859 30.3931 54.5638 30.5521 53.6955 30.6741C53.474 30.6521 53.2935 30.5859 53.1541 30.4756C53.0146 30.3654 52.9248 30.2407 52.8846 30.1018C52.8387 29.9429 52.8481 29.7896 52.913 29.6418C52.9778 29.494 53.1009 29.3616 53.2822 29.2446C53.9263 29.1659 54.6797 29.0557 55.5423 28.9139C56.3991 28.7522 57.2386 28.531 58.061 28.2502C58.8776 27.9496 59.6131 27.5541 60.2673 27.0637C60.9215 26.5734 61.3524 25.9433 61.5601 25.1733C61.147 24.7119 60.6378 24.3643 60.0324 24.1306C59.4468 23.8911 58.7991 23.7342 58.0892 23.6598C57.3735 23.5655 56.6325 23.5324 55.8661 23.5603C55.0939 23.5684 54.3218 23.5765 53.5497 23.5846C52.7776 23.5927 52.0195 23.5753 51.2756 23.5322C50.5516 23.4834 49.8827 23.3648 49.2689 23.1765C49.1493 23.0605 49.0611 22.9785 49.0041 22.9304C48.9613 22.8567 48.9198 22.7504 48.8796 22.6114C48.7988 22.183 48.969 21.6928 49.3903 21.1407C49.8313 20.5829 50.413 20.0276 51.1351 19.4746C51.8573 18.9216 52.6604 18.3882 53.5445 17.8744C54.4286 17.3606 55.2803 16.9208 56.0995 16.5548C56.9188 16.1889 57.6489 15.924 58.29 15.7602C58.9253 15.5765 59.3652 15.5354 59.6096 15.6368Z" fill="#212121"/>
<path d="M68.4333 22.4439C67.9766 22.5759 67.5668 22.6837 67.2037 22.7672C66.8547 22.825 66.4657 22.8192 66.0368 22.7495C65.878 22.7955 65.7148 22.7889 65.5471 22.7298C65.3993 22.665 65.2755 22.5717 65.1758 22.4499C65.0959 22.3224 65.0528 22.1735 65.0466 22.0032C65.0602 21.8272 65.1491 21.6509 65.3132 21.4744C65.5144 21.3517 65.7171 21.2715 65.9214 21.234C66.1455 21.1907 66.3754 21.1673 66.611 21.1637C66.8466 21.1601 67.0822 21.1565 67.3178 21.1529C67.5534 21.1494 67.7875 21.1032 68.02 21.0145C69.0576 20.5854 69.7121 20.1703 69.9833 19.7692C70.2745 19.3623 70.3203 19.0371 70.1208 18.7936C69.9354 18.5245 69.5758 18.3596 69.0419 18.2988C68.5221 18.2124 67.9574 18.2681 67.3477 18.4659C66.7578 18.658 66.1841 19.0175 65.6265 19.5444C65.0888 20.0656 64.7163 20.7864 64.5091 21.7068C64.3187 22.5364 64.3634 23.2118 64.6433 23.7333C64.9231 24.2548 65.3231 24.6339 65.8434 24.8707C66.3835 25.1018 67.0069 25.212 67.7138 25.2012C68.4206 25.1905 69.1214 25.0847 69.8163 24.8838C70.5055 24.663 71.139 24.3615 71.7169 23.9793C72.2891 23.5772 72.7134 23.1104 72.99 22.5786C73.1342 22.4078 73.2886 22.3094 73.4532 22.2834C73.6318 22.2317 73.788 22.2511 73.9217 22.3415C74.0497 22.4121 74.1495 22.5338 74.221 22.7068C74.2867 22.8598 74.3086 23.0471 74.2866 23.2686C73.9536 23.9027 73.4501 24.4678 72.776 24.9639C72.0962 25.4401 71.3451 25.8186 70.5228 26.0994C69.7004 26.3802 68.8493 26.5617 67.9695 26.644C67.1039 26.7006 66.3088 26.6293 65.5843 26.43C64.8796 26.225 64.2951 25.8777 63.8309 25.388C63.3666 24.8984 63.1247 24.2476 63.1051 23.4358C63.0948 22.8794 63.0864 22.4409 63.0797 22.1201C63.0928 21.7936 63.1373 21.5011 63.2132 21.2425C63.289 20.9839 63.3918 20.7068 63.5214 20.4112C63.6511 20.1155 63.8372 19.7175 64.0797 19.2171C64.579 18.1908 65.2254 17.4875 66.0191 17.1075C66.8269 16.7018 67.6283 16.5347 68.4234 16.606C69.2383 16.6715 69.9644 16.9134 70.6016 17.3315C71.2388 17.7497 71.6336 18.2594 71.786 18.8607C71.9524 19.4365 71.7968 20.0516 71.3191 20.706C70.8357 21.3406 69.8737 21.9199 68.4333 22.4439Z" fill="#212121"/>
<path d="M76.4547 3.79632C76.4966 3.56909 76.5854 3.3928 76.7213 3.26747C76.8713 3.11654 77.0244 3.05077 77.1806 3.07015C77.3509 3.06393 77.4987 3.12876 77.624 3.26463C77.7692 3.39476 77.8493 3.59748 77.8644 3.87279C77.7979 4.38683 77.6394 4.99199 77.3889 5.68828C77.1583 6.37884 76.8867 7.11352 76.574 7.89233C76.2614 8.67115 75.9545 9.46982 75.6533 10.2883C75.3662 11.0813 75.1458 11.8442 74.9919 12.5771C74.8381 13.31 74.7877 13.9914 74.8408 14.6215C74.9138 15.2458 75.1581 15.756 75.5738 16.1521C76.1232 16.6387 76.7249 17.0456 77.3788 17.3728C78.0527 17.6943 78.7434 18.0002 79.4512 18.2903C80.1533 18.5606 80.8482 18.8437 81.5361 19.1397C82.2241 19.4356 82.8696 19.8083 83.4729 20.2577C83.792 20.6173 83.854 20.9435 83.6591 21.2365C83.4782 21.5039 83.1734 21.6028 82.7445 21.5332C81.8738 20.9029 81.0078 20.4003 80.1465 20.0255C79.2852 19.6506 78.3457 19.2661 77.3282 18.8719C75.7789 18.2011 74.6991 17.4054 74.0887 16.4847C74.6247 18.1153 75.2116 19.6989 75.8495 21.2355C76.4817 22.7523 77.1904 24.2362 77.9756 25.6872C78.104 25.9082 78.1288 26.1054 78.0499 26.2789C77.9965 26.4664 77.8962 26.603 77.7488 26.6886C77.6213 26.7685 77.4567 26.7945 77.2551 26.7668C77.0733 26.7333 76.9211 26.616 76.7984 26.4148C75.7761 24.516 74.8529 22.5133 74.0287 20.4067C73.2243 18.2943 72.4738 16.1448 71.7771 13.9583C71.0804 11.7718 70.4163 9.5866 69.7849 7.40271C69.1734 5.21308 68.5592 3.08875 67.9424 1.02972C67.8735 0.79148 67.8785 0.585652 67.9575 0.412236C68.0562 0.233082 68.1822 0.110617 68.3353 0.044842C68.4884 -0.0209317 68.6516 -0.0143483 68.825 0.0645921C68.9927 0.123681 69.1308 0.266606 69.2394 0.493367C69.9392 2.76504 70.6051 5.06805 71.237 7.4024C71.8887 9.731 72.5859 12.068 73.3285 14.4133C73.2948 13.6271 73.4129 12.8077 73.6827 11.9552C73.9667 11.0772 74.2932 10.1975 74.6623 9.31633C75.0455 8.40955 75.416 7.49571 75.7736 6.57481C76.1255 5.63406 76.3525 4.7079 76.4547 3.79632Z" fill="#212121"/>
<path d="M63.5927 31.0396C63.8424 31.0104 64.037 31.0509 64.1765 31.1612C64.33 31.2459 64.4298 31.3676 64.4757 31.5265C64.5216 31.6853 64.5051 31.8514 64.4262 32.0248C64.3613 32.1727 64.2127 32.2909 63.9802 32.3797C62.29 32.9329 60.6241 33.5328 58.9824 34.1796C57.3549 34.8007 55.729 35.4644 54.1045 36.1707C54.3371 36.082 54.5612 36.0387 54.7769 36.0409C55.0125 36.0373 55.2228 36.0948 55.4077 36.2135C55.5414 36.3039 55.6312 36.4285 55.6771 36.5873C55.7372 36.7206 55.7802 36.8695 55.8063 37.034C55.8151 37.1391 55.8227 37.2767 55.8289 37.447C55.8351 37.6173 55.8424 37.6798 55.8508 37.6343L55.8421 37.6045C55.8806 38.1097 55.909 38.5425 55.9271 38.903C55.9594 39.2379 55.9946 39.5827 56.0326 39.9374C56.0649 40.2723 56.1029 40.627 56.1466 41.0016C56.2103 41.3705 56.2898 41.8315 56.3852 42.3848C56.8133 44.9071 57.3903 47.3864 58.1161 49.8227C58.8619 52.2532 59.5906 54.6993 60.3024 57.1612C60.3143 57.3513 60.278 57.5232 60.1933 57.6768C60.1029 57.8105 59.991 57.9073 59.8578 57.9674C59.7188 58.0076 59.5684 58.008 59.4064 57.9688C59.2644 57.9238 59.1348 57.8107 59.0179 57.6294C58.3896 55.5306 57.767 53.4517 57.1502 51.3927C56.5334 49.3337 55.9931 47.2418 55.5294 45.117C55.3479 44.2659 55.1849 43.4417 55.0404 42.6445C54.8902 41.8274 54.767 40.9918 54.6706 40.1376L54.4583 37.6174C53.9734 37.8006 53.5142 37.9979 53.0805 38.2094C52.6667 38.4151 52.2217 38.662 51.7457 38.9502C50.6464 39.6123 49.5841 40.3282 48.5588 41.0979C47.5535 41.8618 46.4612 42.5111 45.2819 43.0457C45.075 43.1485 44.7518 43.2957 44.3124 43.4873C43.8871 43.6533 43.4334 43.7952 42.9511 43.9131C42.4888 44.0253 42.0418 44.0792 41.6103 44.0749C41.1929 44.045 40.8887 43.8856 40.6976 43.5966C40.6062 43.4294 40.5561 43.2933 40.5472 43.1883C40.5326 43.0634 40.552 42.9072 40.6054 42.7197C40.9216 42.1765 41.2976 41.6913 41.7335 41.2641C42.1892 40.8312 42.679 40.4422 43.2031 40.097C43.7471 39.7461 44.2996 39.425 44.8608 39.1337C45.422 38.8424 45.9732 38.5539 46.5145 38.2683C49.2608 36.8289 52.0543 35.5157 54.895 34.3287C57.7499 33.1161 60.6491 32.0197 63.5927 31.0396ZM52.7651 36.7839C52.8049 36.7724 52.8346 36.7638 52.8545 36.758C52.8686 36.7324 52.8955 36.7139 52.9352 36.7024C50.9367 37.6029 48.9852 38.5544 47.0807 39.5568C46.2927 39.9567 45.4977 40.3694 44.6957 40.7949C43.8937 41.2204 43.1984 41.7549 42.61 42.3983C43.2568 42.2543 43.8623 42.0793 44.4266 41.8731C44.9851 41.6471 45.6129 41.3257 46.3099 40.9091C47.4093 40.247 48.4716 39.5311 49.4968 38.7614C50.522 37.9917 51.6115 37.3325 52.7651 36.7839Z" fill="#212121"/>
<path d="M68.3477 54.7383C67.8911 54.8703 67.4812 54.9781 67.1181 55.0615C66.7691 55.1194 66.3802 55.1135 65.9513 55.0439C65.7925 55.0898 65.6292 55.0833 65.4616 55.0242C65.3137 54.9593 65.19 54.866 65.0902 54.7443C65.0103 54.6168 64.9673 54.4679 64.9611 54.2976C64.9747 54.1215 65.0636 53.9453 65.2277 53.7687C65.4288 53.646 65.6316 53.5659 65.8358 53.5284C66.06 53.4851 66.2898 53.4616 66.5254 53.4581C66.761 53.4545 66.9967 53.4509 67.2323 53.4473C67.4679 53.4437 67.7019 53.3976 67.9344 53.3088C68.9721 52.8798 69.6265 52.4647 69.8978 52.0635C70.1889 51.6567 70.2347 51.3315 70.0353 51.088C69.8499 50.8189 69.4903 50.6539 68.9564 50.5932C68.4366 50.5068 67.8719 50.5625 67.2621 50.7603C66.6723 50.9524 66.0985 51.3119 65.541 51.8388C65.0032 52.36 64.6308 53.0808 64.4236 54.0012C64.2332 54.8307 64.2779 55.5062 64.5577 56.0277C64.8376 56.5491 65.2376 56.9283 65.7579 57.1651C66.2979 57.3962 66.9214 57.5064 67.6282 57.4956C68.3351 57.4849 69.0359 57.3791 69.7308 57.1782C70.4199 56.9574 71.0535 56.6559 71.6314 56.2737C72.2035 55.8716 72.6279 55.4047 72.9044 54.873C73.0487 54.7022 73.2031 54.6038 73.3676 54.5777C73.5463 54.5261 73.7025 54.5455 73.8362 54.6359C73.9642 54.7064 74.0639 54.8282 74.1354 55.0011C74.2012 55.1542 74.2231 55.3415 74.2011 55.563C73.8681 56.1971 73.3646 56.7622 72.6905 57.2583C72.0107 57.7345 71.2596 58.113 70.4372 58.3938C69.6148 58.6746 68.7638 58.8561 67.884 58.9383C67.0184 58.995 66.2233 58.9237 65.4987 58.7244C64.7941 58.5194 64.2096 58.1721 63.7453 57.6824C63.2811 57.1928 63.0392 56.542 63.0196 55.7302C63.0093 55.1738 63.0008 54.7353 62.9941 54.4145C63.0073 54.088 63.0518 53.7954 63.1276 53.5369C63.2035 53.2783 63.3062 53.0012 63.4359 52.7056C63.5655 52.4099 63.7516 52.0119 63.9942 51.5115C64.4934 50.4851 65.1399 49.7819 65.9336 49.4019C66.7413 48.9962 67.5428 48.829 68.3379 48.9003C69.1528 48.9659 69.8789 49.2078 70.5161 49.6259C71.1533 50.044 71.5481 50.5538 71.7004 51.1551C71.8669 51.7309 71.7113 52.346 71.2336 53.0004C70.7501 53.635 69.7882 54.2143 68.3477 54.7383Z" fill="#212121"/>
<path d="M80.9798 43.89C81.184 43.8524 81.363 43.876 81.5165 43.9607C81.6842 44.0198 81.7981 44.1159 81.8581 44.2492C81.9181 44.3824 81.9285 44.53 81.8893 44.6919C81.85 44.8539 81.7426 45.0032 81.5671 45.1401C80.949 45.3833 80.3225 45.672 79.6877 46.0061C79.0727 46.3345 78.4848 46.7196 77.9242 47.1614C77.3833 47.5974 76.8923 48.0943 76.4512 48.6521C76.0243 49.1843 75.7025 49.7829 75.486 50.4479C75.3679 50.7832 75.3082 51.2092 75.3069 51.7259C75.3198 52.217 75.3952 52.7007 75.5329 53.1772C75.6906 53.648 75.9161 54.056 76.2096 54.4015C76.5031 54.7469 76.894 54.9458 77.3825 54.9982C77.6437 55.0087 77.8947 54.9469 78.1356 54.8127C78.3707 54.6587 78.6001 54.4848 78.8238 54.291C79.0417 54.0774 79.2369 53.8597 79.4093 53.6377C79.5761 53.3959 79.7216 53.1924 79.846 53.0274C80.4905 52.1311 81.0254 51.1912 81.451 50.2077C81.8766 49.2241 82.1799 48.1898 82.361 47.1048L82.3524 47.0751L82.3987 46.9003C82.5111 46.5451 82.7306 46.3741 83.0571 46.3873C83.3779 46.3806 83.6069 46.5403 83.7442 46.8663C83.9106 47.442 84.1016 48.1398 84.3171 48.9595C84.5269 49.7594 84.7651 50.5833 85.0317 51.4313C85.2927 52.2594 85.5876 53.0562 85.9165 53.8216C86.2594 54.5615 86.6417 55.1394 87.0631 55.5554C87.2396 55.7195 87.3211 55.8895 87.3074 56.0656C87.2995 56.2615 87.2376 56.4192 87.1216 56.5388C87.0254 56.6527 86.8851 56.7255 86.7007 56.7573C86.5163 56.7891 86.3287 56.7358 86.1381 56.5973C85.748 56.2153 85.3903 55.7593 85.065 55.2295C84.7653 54.7138 84.4967 54.1568 84.2592 53.5586C84.0217 52.9603 83.8012 52.3464 83.5976 51.7168C83.4082 51.0617 83.2345 50.4235 83.0764 49.8023C82.9441 50.1632 82.8061 50.5043 82.6623 50.8256C82.1886 51.8661 81.6523 52.8386 81.0533 53.7432C80.4486 54.628 79.6718 55.4012 78.7229 56.0628C78.2981 56.3792 77.8613 56.5055 77.4126 56.4416C76.9638 56.3777 76.5418 56.2201 76.1464 55.9687C75.7453 55.6974 75.3823 55.3721 75.0575 54.9927C74.7468 54.5877 74.5071 54.2053 74.3385 53.8453C74.2069 53.5391 74.108 53.2342 74.0418 52.9307C73.9698 52.6073 73.9077 52.281 73.8556 51.9519C73.7836 51.6285 73.7997 51.3119 73.9037 51.0022C74.0078 50.6924 74.0891 50.3785 74.1477 50.0603C74.2875 49.353 74.609 48.6792 75.1122 48.0389C75.6098 47.3787 76.1927 46.7907 76.8611 46.2748C77.5237 45.739 78.2163 45.2698 78.9389 44.8673C79.6814 44.459 80.3617 44.1332 80.9798 43.89Z" fill="#212121"/>
<path d="M84.687 44.4316C84.6124 44.1735 84.6146 43.9578 84.6935 43.7844C84.7923 43.6052 84.9211 43.4927 85.0799 43.4468C85.233 43.381 85.3963 43.3876 85.5697 43.4665C85.7374 43.5256 85.8755 43.6685 85.9841 43.8953C86.2221 44.644 86.4269 45.2409 86.5987 45.686C86.7704 46.1312 86.9463 46.5536 87.1264 46.9533C87.3206 47.3274 87.5391 47.7483 87.7819 48.216C88.0388 48.658 88.3614 49.2531 88.7498 50.0014C88.7334 49.2747 88.6573 48.5652 88.5217 47.873C88.4002 47.1551 88.3568 46.447 88.3916 45.7485C88.3995 45.5526 88.4186 45.3212 88.449 45.0543C88.4736 44.7675 88.521 44.4849 88.5911 44.2064C88.6612 43.928 88.747 43.6666 88.8484 43.4221C88.9697 43.1719 89.1011 42.9941 89.2427 42.8886C89.7099 42.4954 90.1678 42.3307 90.6166 42.3946C91.0595 42.4386 91.4803 42.6289 91.8788 42.9655C92.2914 43.2764 92.6731 43.7039 93.024 44.2479C93.3749 44.7918 93.6989 45.3543 93.9959 45.9353C94.3071 46.4907 94.5828 47.0349 94.8229 47.5678C95.063 48.1008 95.2617 48.5274 95.4188 48.8477C95.4267 48.6518 95.4315 48.3707 95.4332 48.0045C95.449 47.6127 95.4577 47.2337 95.4594 46.8675C95.4752 46.4757 95.4855 46.1393 95.4903 45.8582C95.5092 45.5516 95.5158 45.3883 95.5101 45.3685C95.5857 44.1419 95.7677 43.3578 96.0562 43.0162C96.3447 42.6746 96.6809 42.6097 97.0648 42.8214C97.4686 43.0274 97.907 43.4277 98.3801 44.0224C98.8475 44.5972 99.3007 45.1976 99.7399 45.8235C100.179 46.4495 100.581 47.0217 100.946 47.5401C101.325 48.0328 101.626 48.2902 101.847 48.3122C102.026 48.411 102.161 48.544 102.253 48.7112C102.338 48.8586 102.362 49.0132 102.322 49.1751C102.303 49.3313 102.223 49.4622 102.081 49.5677C101.959 49.6674 101.788 49.7063 101.566 49.6842C100.902 49.6182 100.388 49.3686 100.026 48.9354C99.6646 48.5022 99.3508 48.0121 99.085 47.465C98.8136 46.8981 98.535 46.344 98.2495 45.8027C97.9837 45.2556 97.602 44.8282 97.1042 44.5203C97.0403 44.969 97.0164 45.4815 97.0324 46.0578C97.0683 46.6282 97.0744 47.2073 97.0507 47.795C97.0212 48.3629 96.9463 48.9224 96.826 49.4735C96.6999 50.0047 96.4728 50.4469 96.1446 50.7999C95.9492 50.9425 95.7692 51.0268 95.6046 51.0529C95.44 51.0789 95.2567 51.0028 95.0546 50.8246C94.9376 50.6433 94.782 50.3656 94.5878 49.9915C94.3879 49.5975 94.1636 49.1568 93.9151 48.6693C93.6609 48.162 93.3938 47.6476 93.114 47.1261C92.8284 46.5848 92.5344 46.0889 92.2321 45.6385C91.9439 45.1625 91.6431 44.7547 91.3298 44.415C91.0363 44.0696 90.7475 43.8519 90.4633 43.762C90.0782 44.0669 89.867 44.6013 89.8296 45.365C89.8064 46.1032 89.8288 46.925 89.897 47.8303C89.9594 48.7158 90.0119 49.6042 90.0544 50.4955C90.1168 51.381 90.0382 52.1136 89.8186 52.6934C89.6634 52.975 89.458 53.1204 89.2025 53.1297C88.9471 53.139 88.7238 52.9992 88.5327 52.7102C87.7625 51.5346 87.0444 50.204 86.3783 48.7186C85.7121 47.2331 85.1484 45.8042 84.687 44.4316Z" fill="#212121"/>
</svg>
