<svg width="54" height="54" viewBox="0 0 54 54" fill="none" xmlns="http://www.w3.org/2000/svg">
<rect width="54" height="54" rx="27" fill="#212121"/>
<path fill-rule="evenodd" clip-rule="evenodd" d="M16.5 28.9142V28.8809V23.95V23.9166V23.9166C16.5 22.6847 16.5 21.7143 16.5638 20.9333C16.6289 20.1365 16.7641 19.4712 17.0722 18.8665C17.5756 17.8786 18.3787 17.0755 19.3666 16.5722C19.9712 16.2641 20.6366 16.1288 21.4333 16.0637C22.2143 15.9999 23.1848 15.9999 24.4167 16H24.45H29.7837H29.817C31.0489 15.9999 32.0194 15.9999 32.8004 16.0637C33.5971 16.1288 34.2625 16.2641 34.8672 16.5722C35.855 17.0755 36.6582 17.8786 37.1615 18.8665C37.4696 19.4712 37.6048 20.1365 37.6699 20.9333C37.7337 21.7143 37.7337 22.6847 37.7337 23.9166V23.9499V28.8809V28.9143C37.7337 30.1462 37.7337 31.1166 37.6699 31.8976C37.6048 32.6944 37.4696 33.3597 37.1615 33.9644C36.6582 34.9522 35.855 35.7554 34.8672 36.2587C34.2625 36.5668 33.5971 36.702 32.8004 36.7671C32.0194 36.8309 31.0489 36.8309 29.817 36.8309H29.817H29.7837H24.45H24.4167H24.4167H24.4167C23.1848 36.8309 22.2143 36.8309 21.4333 36.7671C20.6366 36.702 19.9712 36.5668 19.3666 36.2587C18.3787 35.7554 17.5756 34.9522 17.0722 33.9644C16.7641 33.3597 16.6289 32.6944 16.5638 31.8976C16.5 31.1166 16.5 30.1462 16.5 28.9143V28.9142V28.9142ZM20.561 26.416L21.108 26.9518L24.3969 30.1736C24.6928 30.4635 25.1677 30.4586 25.4575 30.1627C25.7474 29.8668 25.7425 29.392 25.4466 29.1021L22.7046 26.416L25.4466 23.73C25.7425 23.4401 25.7474 22.9653 25.4575 22.6694C25.1677 22.3735 24.6928 22.3686 24.3969 22.6584L21.108 25.8803L20.561 26.416ZM33.6733 26.416L33.1264 26.9518L29.8374 30.1736C29.5415 30.4635 29.0667 30.4586 28.7768 30.1627C28.487 29.8668 28.4919 29.392 28.7878 29.1021L31.5298 26.416L28.7878 23.73C28.4919 23.4401 28.487 22.9653 28.7768 22.6694C29.0667 22.3735 29.5415 22.3686 29.8374 22.6584L33.1264 25.8803L33.6733 26.416Z" fill="white"/>
</svg>
