<svg width="54" height="54" viewBox="0 0 54 54" fill="none" xmlns="http://www.w3.org/2000/svg">
<rect width="54" height="54" rx="27" fill="#212121"/>
<path d="M19 22.0495C19 21.1382 19.7388 20.3994 20.6501 20.3994H32.7508C33.6621 20.3994 34.4009 21.1382 34.4009 22.0495C34.4009 22.9608 33.6621 23.6996 32.7508 23.6996H20.6501C19.7388 23.6996 19 22.9608 19 22.0495Z" fill="white"/>
<path fill-rule="evenodd" clip-rule="evenodd" d="M20.962 35.2487L20.1338 25.3096C20.2992 25.3351 20.4687 25.3483 20.6412 25.3483H32.742C32.9145 25.3483 33.084 25.3351 33.2494 25.3096L32.4212 35.2487C32.2916 36.8035 30.9918 37.9995 29.4315 37.9995H23.9517C22.3914 37.9995 21.0916 36.8035 20.962 35.2487ZM28.143 31.4004C28.143 30.5996 27.4938 29.9503 26.6929 29.9503C25.892 29.9503 25.2428 30.5996 25.2428 31.4004C25.2428 32.2013 25.892 32.8506 26.6929 32.8506C27.4938 32.8506 28.143 32.2013 28.143 31.4004ZM26.6929 28.4503C28.3222 28.4503 29.643 29.7711 29.643 31.4004C29.643 33.0298 28.3222 34.3506 26.6929 34.3506C25.0636 34.3506 23.7428 33.0298 23.7428 31.4004C23.7428 29.7711 25.0636 28.4503 26.6929 28.4503Z" fill="white"/>
<path fill-rule="evenodd" clip-rule="evenodd" d="M23.2002 16C22.0956 16 21.2002 16.8954 21.2002 18V18.7502H32.2008V18C32.2008 16.8954 31.3054 16 30.2008 16H23.2002Z" fill="white"/>
</svg>
