<svg width="54" height="54" viewBox="0 0 54 54" fill="none" xmlns="http://www.w3.org/2000/svg">
<rect width="54" height="54" rx="27" fill="#212121"/>
<path fill-rule="evenodd" clip-rule="evenodd" d="M27.993 18.5872C28.7734 17.8055 30.0393 17.805 30.8203 18.5861L33.6265 21.3922C34.4009 22.1666 34.4089 23.4203 33.6445 24.2045L31.7721 26.1256L26.1147 20.4683L27.993 18.5872ZM25.0549 21.5297L30.7251 27.1999L23.7301 34.3768C23.1657 34.9559 22.3916 35.2824 21.5832 35.2824L18.5004 35.2823C17.6475 35.2822 16.9665 34.5713 17.0023 33.7186L17.1343 30.5812C17.1659 29.8299 17.4781 29.118 18.0092 28.5861L25.0549 21.5297ZM34.7343 35.9573C35.1483 35.9573 35.484 35.6214 35.484 35.207C35.484 34.7927 35.1483 34.4567 34.7343 34.4567H28.2497C27.8357 34.4567 27.5 34.7927 27.5 35.207C27.5 35.6214 27.8357 35.9573 28.2497 35.9573H34.7343Z" fill="white"/>
</svg>
