<svg width="54" height="54" viewBox="0 0 54 54" fill="none" xmlns="http://www.w3.org/2000/svg">
<rect width="54" height="54" rx="27" fill="#212121"/>
<path fill-rule="evenodd" clip-rule="evenodd" d="M16.5 28.9144V28.8811V23.9501V23.9168V23.9168C16.5 22.6848 16.5 21.7144 16.5638 20.9334C16.6289 20.1366 16.7641 19.4713 17.0722 18.8666C17.5756 17.8788 18.3787 17.0756 19.3666 16.5723C19.9712 16.2642 20.6366 16.129 21.4333 16.0639C22.2143 16.0001 23.1848 16.0001 24.4167 16.0001H24.45H29.7837H29.817C31.0489 16.0001 32.0194 16.0001 32.8004 16.0639C33.5971 16.129 34.2625 16.2642 34.8672 16.5723C35.855 17.0756 36.6582 17.8788 37.1615 18.8666C37.4696 19.4713 37.6048 20.1366 37.6699 20.9334C37.7337 21.7144 37.7337 22.6848 37.7337 23.9167V23.9501V28.8811V28.9144C37.7337 30.1463 37.7337 31.1167 37.6699 31.8977C37.6048 32.6945 37.4696 33.3599 37.1615 33.9645C36.6582 34.9524 35.855 35.7555 34.8672 36.2588C34.2625 36.5669 33.5971 36.7022 32.8004 36.7673C32.0194 36.8311 31.0489 36.8311 29.817 36.8311H29.817H29.7837H24.45H24.4167H24.4167H24.4167C23.1848 36.8311 22.2143 36.8311 21.4333 36.7673C20.6366 36.7022 19.9712 36.5669 19.3666 36.2588C18.3787 35.7555 17.5756 34.9524 17.0722 33.9645C16.7641 33.3599 16.6289 32.6945 16.5638 31.8977C16.5 31.1167 16.5 30.1463 16.5 28.9144V28.9144V28.9144ZM20.561 26.4162L21.108 26.9519L24.3969 30.1738C24.6928 30.4636 25.1677 30.4587 25.4575 30.1628C25.7474 29.8669 25.7425 29.3921 25.4466 29.1022L22.7046 26.4162L25.4466 23.7301C25.7425 23.4402 25.7474 22.9654 25.4575 22.6695C25.1677 22.3736 24.6928 22.3687 24.3969 22.6586L21.108 25.8804L20.561 26.4162ZM33.6733 26.4162L33.1264 26.9519L29.8374 30.1738C29.5415 30.4636 29.0667 30.4587 28.7768 30.1628C28.487 29.8669 28.4919 29.3921 28.7878 29.1022L31.5298 26.4162L28.7878 23.7301C28.4919 23.4402 28.487 22.9654 28.7768 22.6695C29.0667 22.3736 29.5415 22.3687 29.8374 22.6586L33.1264 25.8804L33.6733 26.4162Z" fill="white"/>
</svg>
