<svg width="54" height="54" viewBox="0 0 54 54" fill="none" xmlns="http://www.w3.org/2000/svg">
<rect width="54" height="54" rx="27" fill="#212121"/>
<path d="M20 26C19.0524 26.14 17.9488 26.4293 17.3744 26.797C16.8547 27.13 16.9229 28.11 17.2927 28.5949C17.6829 29.1068 18.1409 29.0794 18.6937 28.8116C19.0566 28.6357 19.4937 28.2439 19.9452 27.8051C19.9565 27.4226 19.9692 27.0399 19.9836 26.6581C19.9922 26.4313 19.9975 26.2123 20 26Z" fill="white"/>
<path d="M35.5965 26.7717C35.024 26.4276 33.9639 26.1516 33 26C33.0241 26.5143 33.0573 27.0798 33.1022 27.7177C33.1103 27.833 33.1183 27.9466 33.1261 28.0595C33.5046 28.3899 33.8649 28.6683 34.1748 28.8093C34.7707 29.0803 35.264 29.108 35.6845 28.5902C36.083 28.0998 36.1566 27.1083 35.5965 26.7717Z" fill="white"/>
<path d="M20.1259 37.4642C19.5604 38.5715 21.0384 39.4835 21.8045 38.7156C22.4305 38.0882 22.9247 37.556 24 37.3822C23.1765 37.009 22.4505 36.5429 21.8335 36C21.0807 36.3242 20.4713 36.7881 20.1259 37.4642Z" fill="white"/>
<path d="M30.817 38.6449C31.5725 39.4785 33.4498 38.7214 32.901 37.6456C32.5404 36.9387 31.8592 36.3525 31.0063 36C30.4479 36.4446 29.7844 36.8573 29 37.2179C29.868 37.5684 30.2933 38.067 30.817 38.6449Z" fill="white"/>
<path d="M32.1631 17.1631C32.1518 17.1483 32.1409 17.1333 32.1294 17.1184C31.8926 16.8126 31.6412 16.5444 31.371 16.311C30.1984 15.2985 28.6721 14.9419 26.4626 15.0075C24.5469 15.0645 22.5088 15.3974 21.1761 16.5778C20.8759 16.8438 20.6117 17.153 20.3925 17.5116C20.3639 17.5584 20.3359 17.6057 20.3088 17.6542C20.1939 17.8603 20.0872 18.078 19.9896 18.3089C19.8528 18.6325 19.7342 18.9821 19.6374 19.3633C19.4498 20.1019 19.3437 20.9583 19.3438 21.9706C19.3438 23.7467 19.6926 24.628 19.6716 26.334C19.6703 26.446 19.6673 26.5615 19.6625 26.6811C19.6545 26.8826 19.6475 27.0845 19.6412 27.2862C19.5761 29.3761 19.5994 31.4521 19.5822 32.8757C19.5664 34.1823 20.1585 35.3432 21.2289 36.1983C21.652 36.5363 22.1498 36.8266 22.7145 37.059C23.7028 37.4658 24.8954 37.6959 26.2501 37.6959C28.2282 37.6959 29.6917 37.3161 30.7632 36.7383C31.2142 36.4951 31.5955 36.2169 31.9166 35.9171C32.7177 35.1691 33.1432 34.287 33.3336 33.4813C33.785 31.5718 33.7258 30.1726 33.5237 27.249C33.5197 27.1902 33.5156 27.1309 33.5114 27.0708C33.4883 26.7382 33.4712 26.4433 33.4587 26.175C33.3905 24.7055 33.4612 24.0375 33.4399 22.3603C33.4216 20.933 33.3141 19.8748 33.0736 19.0135C32.9644 18.6223 32.8279 18.2714 32.6596 17.9454C32.5175 17.6702 32.3526 17.4128 32.1631 17.1631Z" fill="white"/>
<path d="M34.6462 17.8841C34.4355 16.689 33.5132 15.7974 31.7084 16.04C31.0827 16.1241 30.7106 16.308 30.5 16.56C30.8992 16.9046 31.2706 17.3008 31.6202 17.7526C31.6372 17.7745 31.6534 17.7967 31.67 17.8186C31.8035 17.6387 32.0166 17.5217 32.2576 17.5217C32.6621 17.5217 32.99 17.85 32.99 18.2551C32.99 18.6102 32.738 18.9062 32.4033 18.9739C32.6519 19.4554 32.8535 19.9736 33.0149 20.5516C34.2799 20.1708 34.841 18.9886 34.6462 17.8841Z" fill="white"/>
<circle cx="32.5814" cy="18.349" r="1.59707" fill="white"/>
<path d="M19.6416 18.3074C19.6416 17.9023 19.9695 17.574 20.374 17.574C20.6112 17.574 20.8214 17.6874 20.9553 17.8625C21.279 17.3329 21.6692 16.8761 22.1128 16.4832C21.893 16.2706 21.536 16.1153 20.9756 16.04C19.1708 15.7974 18.2485 16.689 18.0378 17.8841C17.8344 19.0372 18.4546 20.2756 19.8399 20.5976C19.9829 20.0346 20.1581 19.5182 20.3602 19.0402C19.9621 19.0327 19.6416 18.7078 19.6416 18.3074Z" fill="white"/>
<circle cx="20.0736" cy="17.8783" r="1.59707" fill="white"/>
</svg>
