<svg width="54" height="54" viewBox="0 0 54 54" fill="none" xmlns="http://www.w3.org/2000/svg">
<rect width="54" height="54" rx="27" fill="#212121"/>
<path fill-rule="evenodd" clip-rule="evenodd" d="M16 21.75C16 18.5744 18.5744 16 21.75 16H31.75C34.9256 16 37.5 18.5744 37.5 21.75V31.75C37.5 34.9256 34.9256 37.5 31.75 37.5H21.75C18.5744 37.5 16 34.9256 16 31.75V21.75ZM24.126 31.166C24.2701 31.3823 24.516 31.5085 24.7758 31.4996C25.0356 31.4906 25.2722 31.3478 25.4012 31.1221L28.7059 25.3389L30.0792 28.0854C30.2062 28.3395 30.4659 28.5 30.75 28.5H32.75C33.1642 28.5 33.5 28.1642 33.5 27.75C33.5 27.3358 33.1642 27 32.75 27H31.2135L29.4208 23.4146C29.2971 23.1672 29.0473 23.008 28.7708 23.0003C28.4943 22.9926 28.236 23.1377 28.0988 23.3779L24.7009 29.3243L23.374 27.334C23.2349 27.1253 23.0008 27 22.75 27H20.75C20.3358 27 20 27.3358 20 27.75C20 28.1642 20.3358 28.5 20.75 28.5H22.3486L24.126 31.166Z" fill="white"/>
</svg>
