<svg width="46" height="46" viewBox="0 0 46 46" fill="none" xmlns="http://www.w3.org/2000/svg">
<rect width="46" height="46" rx="23" fill="#212121"/>
<path fill-rule="evenodd" clip-rule="evenodd" d="M24.6415 14.5868C25.422 13.8051 26.6879 13.8047 27.4689 14.5857L29.6663 16.7831C30.4407 17.5575 30.4487 18.8111 29.6843 19.5954L28.2219 21.0959L23.1783 16.0523L24.6415 14.5868ZM22.1184 17.1138L27.1748 22.1702L21.0895 28.4138C20.525 28.9929 19.7509 29.3194 18.9426 29.3194L16.5003 29.3193C15.6474 29.3193 14.9663 28.6083 15.0022 27.7556L15.1074 25.2542C15.139 24.503 15.4512 23.791 15.9823 23.2591L22.1184 17.1138ZM30.8281 30.0009C31.2422 30.0009 31.5778 29.665 31.5778 29.2506C31.5778 28.8362 31.2422 28.5003 30.8281 28.5003H25.0463C24.6323 28.5003 24.2966 28.8362 24.2966 29.2506C24.2966 29.665 24.6323 30.0009 25.0463 30.0009H30.8281Z" fill="white"/>
</svg>
