<svg width="54" height="54" viewBox="0 0 54 54" fill="none" xmlns="http://www.w3.org/2000/svg">
<rect width="54" height="54" rx="27" fill="#212121"/>
<path d="M17 25C17 22.1997 17 20.7996 17.545 19.73C18.0243 18.7892 18.7892 18.0243 19.73 17.545C20.7996 17 22.1997 17 25 17H29C31.8003 17 33.2004 17 34.27 17.545C35.2108 18.0243 35.9757 18.7892 36.455 19.73C37 20.7996 37 22.1997 37 25C37 27.8003 37 29.2004 36.455 30.27C35.9757 31.2108 35.2108 31.9757 34.27 32.455C33.2004 33 31.8003 33 29 33H25C22.1997 33 20.7996 33 19.73 32.455C18.7892 31.9757 18.0243 31.2108 17.545 30.27C17 29.2004 17 27.8003 17 25Z" fill="white"/>
<path fill-rule="evenodd" clip-rule="evenodd" d="M26.9969 32.3008C27.3835 32.3008 27.6969 32.6142 27.6969 33.0008V35.0157L31.2427 36.3454C31.5596 36.4642 31.7461 36.7927 31.6857 37.1257C31.6253 37.4587 31.3354 37.7008 30.9969 37.7008H22.9969C22.6585 37.7008 22.3686 37.4587 22.3082 37.1257C22.2478 36.7927 22.4343 36.4642 22.7512 36.3454L26.2969 35.0157V33.0008C26.2969 32.6142 26.6103 32.3008 26.9969 32.3008Z" fill="white"/>
</svg>
