<svg width="54" height="54" viewBox="0 0 54 54" fill="none" xmlns="http://www.w3.org/2000/svg">
<rect width="54" height="54" rx="27" fill="#212121"/>
<path d="M27.3706 29.5998C28.6453 29.5998 29.6786 28.5378 29.6786 27.2276C29.6786 25.9175 28.6453 24.8555 27.3706 24.8555C26.0959 24.8555 25.0625 25.9175 25.0625 27.2276C25.0625 28.5378 26.0959 29.5998 27.3706 29.5998Z" fill="white"/>
<path fill-rule="evenodd" clip-rule="evenodd" d="M27.3719 22.4041C30.4708 22.4041 33.3495 22.8611 35.5201 23.6291C38.1354 24.5545 39.7433 25.9571 39.7433 27.2272C39.7433 28.5507 38.0392 30.0408 35.2308 30.9972C33.1075 31.7201 30.3135 32.0976 27.3719 32.0976C24.3559 32.0976 21.4999 31.7433 19.3528 30.9892C16.6362 30.0349 15 28.5255 15 27.2272C15 25.9674 16.5353 24.5756 19.1138 23.6516C21.2924 22.8709 24.2423 22.4041 27.3715 22.4041H27.3719Z" stroke="white" stroke-width="1.4"/>
<path fill-rule="evenodd" clip-rule="evenodd" d="M23.2923 24.8293C24.8405 22.0703 26.6638 19.7355 28.3955 18.1867C30.4819 16.3205 32.4675 15.5897 33.5379 16.2241C34.6535 16.8853 35.0581 19.147 34.4612 22.1251C34.0103 24.3768 32.9322 27.0528 31.4626 29.6719C29.9558 32.3571 28.2306 34.7229 26.5224 36.2574C24.361 38.1993 22.2713 38.9021 21.1771 38.2535C20.1152 37.6246 19.7091 35.562 20.2185 32.8046C20.6489 30.4749 21.7291 27.6153 23.2918 24.8293L23.2923 24.8293Z" stroke="white" stroke-width="1.4"/>
<path fill-rule="evenodd" clip-rule="evenodd" d="M23.2897 29.6795C21.7372 26.9237 20.6802 24.1336 20.239 21.8181C19.7079 19.0283 20.0834 16.8952 21.1529 16.2589C22.2674 15.5958 24.3759 16.365 26.5882 18.3839C28.2609 19.9103 29.9784 22.2064 31.4523 24.823C32.9633 27.5056 34.0959 30.2234 34.5364 32.5107C35.0939 35.4052 34.6427 37.6168 33.5494 38.2672C32.4886 38.8984 30.5474 38.2302 28.4776 36.3995C26.7287 34.8528 24.8576 32.4628 23.2897 29.6795V29.6795Z" stroke="white" stroke-width="1.4"/>
</svg>
