<svg width="54" height="54" viewBox="0 0 54 54" fill="none" xmlns="http://www.w3.org/2000/svg">
<rect width="54" height="54" rx="27" fill="#212121"/>
<path d="M34.9277 19.9126C34.5746 19.3481 33.9401 19.002 33.2549 19H20.54C19.8527 19.0018 19.2159 19.3476 18.8593 19.9126L16.2758 24.0638C16.0531 24.4226 15.9614 24.8425 16.0149 25.2571C16.0684 25.6716 16.2643 26.0571 16.5714 26.3527L25.5121 36.4502C25.8784 36.8022 26.3753 37 26.8933 37C27.4112 37 27.9082 36.8022 28.2745 36.4502L37.2152 26.3527C37.524 26.0581 37.7211 25.6725 37.7746 25.2574C37.8283 24.8424 37.7355 24.4221 37.511 24.0638L34.9277 19.9126ZM24.2671 25.8964H20.9522H20.9523C20.5355 25.8943 20.1502 25.682 19.9381 25.337C19.7259 24.9921 19.718 24.5654 19.9173 24.2134L21.5437 21.3787C21.6782 21.1423 21.8958 20.9598 22.1576 20.8639C22.4193 20.7679 22.7082 20.7648 22.972 20.8551C23.236 20.9452 23.458 21.1229 23.5978 21.3563L25.2943 24.1986L25.2944 24.1984C25.5037 24.55 25.5022 24.9821 25.2905 25.3322C25.0785 25.6823 24.6886 25.8974 24.2672 25.8964L24.2671 25.8964Z" fill="white"/>
</svg>
