<svg width="54" height="54" viewBox="0 0 54 54" fill="none" xmlns="http://www.w3.org/2000/svg">
<rect width="54" height="54" rx="27" fill="#212121"/>
<path d="M36.7154 25.0197C36.7155 25.0197 36.7156 25.0197 36.7156 25.0196C36.7148 22.5893 36.2835 20.3051 35.526 18.315C35.3576 17.8725 34.7336 17.9333 34.5979 18.3869C34.0841 20.1042 33.3632 21.6227 32.4894 22.8531C32.3173 23.0955 31.9716 23.1164 31.7445 22.9246C31.1694 22.4388 30.5238 22.0391 29.8255 21.745C29.5558 21.6315 29.26 21.8029 29.1046 22.0508C28.7122 22.6767 27.9139 23.1048 26.9926 23.1048C26.0714 23.1048 25.2733 22.6768 24.8809 22.0518C24.7254 21.804 24.4295 21.6327 24.1598 21.7463C23.4618 22.0402 22.8162 22.4397 22.2413 22.9252C22.0142 23.117 21.6686 23.0962 21.4964 22.8539C20.622 21.6236 19.901 20.1051 19.3877 18.3879C19.252 17.9342 18.6386 17.8781 18.4857 18.3263C17.8056 20.319 17.5515 22.6114 17.2706 25.0197C16.3696 32.7422 17.2706 39 26.9933 39C36.7152 39.0003 37.6546 33.5346 36.7153 25.0199C36.7153 25.0198 36.7153 25.0197 36.7154 25.0197V25.0197ZM27.0116 28.5135C24.5846 28.5135 22.6182 26.4801 22.6182 23.971V23.971C22.6182 23.7658 22.8723 23.6834 23.0194 23.8264C24.0628 24.8411 25.465 25.4654 27.0116 25.4654C28.5574 25.4654 29.96 24.841 31.0038 23.8263C31.1507 23.6835 31.405 23.7661 31.405 23.971V23.971C31.405 26.4801 29.4381 28.5135 27.0116 28.5135Z" fill="white"/>
</svg>
