<svg width="54" height="54" viewBox="0 0 54 54" fill="none" xmlns="http://www.w3.org/2000/svg">
<rect width="54" height="54" rx="27" fill="#212121"/>
<path fill-rule="evenodd" clip-rule="evenodd" d="M19.5144 21.2402C19.1969 21.4165 19 21.7511 19 22.1143V27.3155C19 30.9472 20.9689 34.2934 24.1436 36.0571L26.9194 37.5992C27.2214 37.7669 27.5886 37.7669 27.8906 37.5992L30.6664 36.0571C33.8411 34.2934 35.81 30.9472 35.81 27.3155V22.1143C35.81 21.7511 35.6131 21.4165 35.2956 21.2402L27.8906 17.1263C27.5886 16.9585 27.2214 16.9585 26.9194 17.1263L19.5144 21.2402ZM26.3525 29.9942C26.6454 30.2871 27.1202 30.2871 27.4131 29.9942L31.6156 25.7917C31.9085 25.4988 31.9085 25.024 31.6156 24.7311C31.3227 24.4382 30.8479 24.4382 30.555 24.7311L26.8828 28.4032L25.3119 26.8323C25.019 26.5394 24.5441 26.5394 24.2512 26.8323C23.9583 27.1252 23.9583 27.6001 24.2512 27.893L26.3525 29.9942Z" fill="white"/>
</svg>
