<svg width="54" height="54" viewBox="0 0 54 54" fill="none" xmlns="http://www.w3.org/2000/svg">
<rect width="54" height="54" rx="27" fill="#212121"/>
<path d="M28.9755 15.6539C28.8096 15.3528 29.2422 14.9478 29.5132 15.1592C37.7124 21.5563 35.8189 28.1524 35.4042 29.305C35.3643 29.4159 35.3854 29.5375 35.4603 29.6285C35.9896 30.2711 37.9963 32.9183 37.3855 35.4374C37.3276 35.6762 37.0087 35.7136 36.8515 35.5247C36.3301 34.898 35.2497 33.8738 33.7576 33.8738C31.6791 33.8738 30.4496 36 26.2542 36C19.06 36 14.7833 31.4286 13.2017 29.3348C13.0118 29.0833 13.294 28.806 13.5673 28.9629C20.0988 32.711 24.8454 30.8564 26.2355 30.1413C26.4333 30.0395 26.4308 29.7726 26.2455 29.6495C23.5025 27.8255 19.0251 22.5772 16.5637 19.5643C16.3361 19.2857 16.7032 18.9367 16.983 19.1627C19.3509 21.0758 21.1432 22.3905 22.4148 23.2665C22.7118 23.4711 23.1226 22.9731 22.8935 22.6946C21.9414 21.5379 20.8791 20.1394 19.9844 18.9309C19.7662 18.6361 20.2288 18.2259 20.5072 18.4647C24.0956 21.5422 28.5701 24.7548 29.7798 25.6131C29.9401 25.7268 30.161 25.6527 30.2225 25.4661C31.5554 21.4264 30.1051 17.7045 28.9755 15.6539Z" fill="white"/>
</svg>
