<svg width="63" height="17" viewBox="0 0 63 17" fill="none" xmlns="http://www.w3.org/2000/svg">
<path fill-rule="evenodd" clip-rule="evenodd" d="M28.9531 2.35715C28.2381 2.32017 27.0541 2.05645 25.9654 1.95459C25.0207 1.86634 24.1282 1.91326 23.5064 2.16238C22.8923 2.4075 22.4363 2.86407 22.1101 3.44315C21.7802 4.03393 21.5959 4.76647 21.425 5.33958C20.7079 7.74897 20.2132 10.2253 19.5702 12.6531C19.4038 13.2727 19.7735 13.9123 20.3931 14.0787C21.0166 14.2451 21.6524 13.8715 21.8188 13.2519C22.4583 10.8474 22.9494 8.39062 23.659 6.00463C23.7705 5.63036 23.8729 5.16682 24.0577 4.75661C24.133 4.58086 24.1965 4.39368 24.3664 4.32538C24.7179 4.18863 25.2194 4.22457 25.752 4.27565C26.8757 4.38092 28.0985 4.64801 28.8368 4.68468C29.478 4.71877 30.0265 4.22211 30.0568 3.58099C30.0909 2.93983 29.5982 2.39119 28.9531 2.35715Z" fill="#212121"/>
<path fill-rule="evenodd" clip-rule="evenodd" d="M28.4792 7.39282C26.7246 7.43194 24.9375 7.36659 23.1814 7.297C22.5404 7.27067 21.9957 7.77118 21.9693 8.41224C21.9469 9.05713 22.4435 9.59794 23.0884 9.62421C24.8912 9.69705 26.7287 9.76173 28.53 9.72198C29.1744 9.70944 29.6836 9.17448 29.6672 8.53011C29.6547 7.88957 29.1198 7.38032 28.4792 7.39282Z" fill="#212121"/>
<path fill-rule="evenodd" clip-rule="evenodd" d="M31.4081 4.98774C31.3042 5.63373 31.1426 6.60278 31.0873 6.82485C30.612 8.73007 30.1367 10.6315 29.638 12.5292C29.4716 13.1528 29.8451 13.7884 30.4647 13.9548C31.0882 14.1173 31.724 13.7476 31.8904 13.1241C32.3928 11.2146 32.8719 9.30546 33.3471 7.3886C33.4355 7.03405 33.7252 5.47305 33.8091 4.78074C33.8613 4.33348 33.7911 4.02769 33.7628 3.94265C33.6498 3.62575 33.4534 3.45364 33.2889 3.34712C32.9559 3.13414 32.5785 3.0771 32.1541 3.27696C32.0808 3.31289 31.6525 3.52443 31.411 4.33148C31.3441 4.55371 31.3471 4.77887 31.4081 4.98774Z" fill="#212121"/>
<path fill-rule="evenodd" clip-rule="evenodd" d="M36.6214 9.85896C38.27 9.15725 39.5062 7.52914 39.7733 6.01891C39.9464 5.03416 39.7397 4.10119 39.1282 3.38716C38.576 2.74611 37.6567 2.24195 36.2076 2.19154C35.4695 2.16652 34.7659 2.39736 34.0821 2.65895C33.2941 2.96466 32.4919 3.37541 31.8667 3.95463C31.395 4.39199 31.37 5.13011 31.8074 5.60185C32.2447 6.07359 32.9828 6.0986 33.4546 5.66123C33.8611 5.28299 34.4014 5.03495 34.919 4.83383C35.3092 4.68491 35.7028 4.50488 36.1302 4.52243C36.7984 4.54451 37.2388 4.66285 37.4219 4.99434C37.5772 5.2796 37.5044 5.64562 37.3693 6.0008C37.0766 6.75805 36.3953 7.48947 35.5487 7.77655C34.7524 8.03966 34.0409 7.97546 33.2287 7.92425C32.222 7.85624 32.0187 8.62005 31.9708 8.80709C31.9007 9.08373 31.8679 9.5307 32.3045 9.94809C32.3635 10.0017 32.4931 10.1086 32.6923 10.1991C32.8408 10.2709 33.153 10.3794 33.2859 10.4475C33.6377 10.6214 33.9976 10.8145 34.3229 11.0392C35.3498 11.7477 36.2933 12.6088 36.9408 13.6912C37.2666 14.2421 37.9836 14.4227 38.5344 14.093C39.0892 13.7671 39.2698 13.0502 38.9401 12.4994C38.3362 11.4824 37.5284 10.6078 36.6214 9.85896Z" fill="#212121"/>
<path fill-rule="evenodd" clip-rule="evenodd" d="M50.8765 2.30416C49.92 2.21606 48.4742 1.82775 47.1412 1.74859C45.9831 1.67873 44.902 1.84471 44.1131 2.37177C43.1817 2.99393 42.5504 3.98875 42.1272 5.14383C41.6142 6.55641 41.4192 8.22489 41.1365 9.44021C41.0008 10.0284 40.808 10.7066 40.8319 11.3314C40.852 11.9602 41.0542 12.5517 41.5386 13.0578C42.1844 13.7286 43.1095 14.0889 44.1442 14.2186C45.35 14.3694 46.7069 14.2114 47.6615 14.1597C48.3056 14.1239 48.7952 13.5737 48.7593 12.9296C48.7236 12.2893 48.1733 11.7958 47.5331 11.8316C46.8192 11.8722 45.85 11.9902 44.9214 11.9483C44.2647 11.9183 43.6153 11.8532 43.2176 11.4431C43.0837 11.3051 43.1549 11.1138 43.1836 10.9348C43.2374 10.604 43.3378 10.2687 43.4074 9.96493C43.6313 8.99892 43.7891 7.7348 44.1189 6.56155C44.3745 5.64947 44.7083 4.77518 45.4049 4.31149C45.9553 3.94296 46.7758 4.02905 47.5926 4.13068C48.7245 4.27078 49.8698 4.55045 50.6707 4.62123C51.3083 4.67867 51.8767 4.20509 51.9341 3.56749C51.9915 2.92601 51.5179 2.36155 50.8765 2.30416Z" fill="#212121"/>
<path fill-rule="evenodd" clip-rule="evenodd" d="M49.1662 7.05246C47.397 6.8782 45.6117 6.94103 43.8368 6.91829C43.1959 6.90749 42.667 7.42335 42.6562 8.06809C42.6493 8.70889 43.1651 9.23785 43.8059 9.24477C45.5147 9.26839 47.238 9.20251 48.9411 9.36988C49.5787 9.4312 50.1509 8.96137 50.2122 8.32372C50.2735 7.68218 49.8077 7.11373 49.1662 7.05246Z" fill="#212121"/>
<path fill-rule="evenodd" clip-rule="evenodd" d="M53.9306 10.9921C53.9408 10.8871 53.9618 10.7121 53.9875 10.603C54.0718 10.2291 54.1873 9.8703 54.2267 9.62125C54.3925 8.66767 54.5589 7.46948 54.8856 6.35064C55.1566 5.42671 55.5176 4.54818 56.1822 4.01891C56.3551 3.88067 56.5953 3.83861 56.8589 3.80788C57.2814 3.75172 57.7553 3.76477 58.2335 3.80106C59.4189 3.8822 60.6252 4.06785 61.3853 3.9955C62.0252 3.93642 62.4952 3.36706 62.4361 2.72714C62.3731 2.08728 61.8038 1.61732 61.1638 1.6764C60.3417 1.75735 58.9321 1.46566 57.6737 1.44375C56.4968 1.42074 55.428 1.64095 54.7326 2.19393C53.9027 2.85356 53.3139 3.82448 52.9016 4.92893C52.3808 6.34161 52.1504 7.97173 51.9343 9.22499C51.8512 9.6882 51.5633 10.5153 51.5915 11.1634C51.6147 11.7339 51.8154 12.2204 52.1929 12.5765C52.8733 13.2158 53.798 13.5451 54.8169 13.6596C56.0186 13.7948 57.3559 13.6254 58.3414 13.5616C58.9854 13.5219 59.4712 12.9679 59.4314 12.3239C59.3918 11.6837 58.8377 11.1941 58.1976 11.2376C57.4526 11.2826 56.4875 11.4121 55.559 11.3779C54.9568 11.3589 54.3619 11.3008 53.9306 10.9921Z" fill="#212121"/>
<path fill-rule="evenodd" clip-rule="evenodd" d="M60.531 7.00405C58.5881 6.90203 56.6723 6.79191 54.7312 6.82578C54.0867 6.83832 53.5736 7.36945 53.5861 8.01387C53.5986 8.65441 54.1296 9.1676 54.774 9.15505C56.6608 9.12192 58.5222 9.22887 60.4068 9.32779C61.048 9.36189 61.5967 8.8692 61.6308 8.22804C61.6649 7.58299 61.1721 7.03426 60.531 7.00405Z" fill="#212121"/>
<path fill-rule="evenodd" clip-rule="evenodd" d="M6.99722 5.40322C5.53547 4.20165 4.35103 2.77072 3.46098 1.10357C3.28296 0.771516 2.86876 0.644852 2.53328 0.822862C2.20122 1.00087 2.07453 1.4151 2.25255 1.75058C3.23161 3.57519 4.52563 5.14306 6.12773 6.46103C6.41871 6.70066 6.85345 6.65957 7.09308 6.36859C7.33271 6.07419 7.2882 5.64285 6.99722 5.40322Z" fill="#212121"/>
<path fill-rule="evenodd" clip-rule="evenodd" d="M6.21232 0.723406C6.28763 2.10641 6.35611 3.48942 6.44169 4.87243C6.46566 5.24899 6.79087 5.53654 7.16743 5.51258C7.54399 5.48862 7.83154 5.16341 7.80758 4.78685C7.722 3.40726 7.65352 2.02769 7.57821 0.644677C7.55767 0.269142 7.23246 -0.0201271 6.8559 0.00109725C6.47934 0.0223216 6.18835 0.345817 6.21232 0.723406Z" fill="#212121"/>
<path fill-rule="evenodd" clip-rule="evenodd" d="M11.2964 1.00412C10.42 2.32551 9.42729 3.54418 8.42769 4.77657C8.18806 5.07097 8.23254 5.50232 8.52694 5.73853C8.82134 5.97816 9.2527 5.93365 9.4889 5.63924C10.5159 4.37605 11.536 3.1197 12.4398 1.76065C12.6486 1.44571 12.5596 1.02124 12.2446 0.812417C11.9331 0.603596 11.5052 0.689178 11.2964 1.00412Z" fill="#212121"/>
<path fill-rule="evenodd" clip-rule="evenodd" d="M14.6891 5.91664C12.3134 6.02276 9.79039 6.02618 7.41463 5.87556C7.03807 5.85502 6.71286 6.13915 6.6889 6.51914C6.66493 6.8957 6.95249 7.22091 7.32905 7.24487C9.75274 7.3955 12.3271 7.39207 14.7508 7.28595C15.1273 7.26883 15.4217 6.94706 15.4046 6.5705C15.3875 6.19393 15.0657 5.89952 14.6891 5.91664Z" fill="#212121"/>
<path fill-rule="evenodd" clip-rule="evenodd" d="M6.12412 6.35133C7.58929 8.14514 9.10582 9.90472 10.4649 11.7807C10.6874 12.0854 11.1153 12.1538 11.4234 11.9313C11.7281 11.7088 11.7965 11.2808 11.574 10.9762C10.1978 9.07968 8.66423 7.29957 7.18195 5.48523C6.94232 5.19425 6.51096 5.14976 6.21998 5.38939C5.92558 5.62902 5.88449 6.06035 6.12412 6.35133Z" fill="#212121"/>
<path fill-rule="evenodd" clip-rule="evenodd" d="M6.56186 6.87172C6.94526 8.74083 7.05139 10.5278 7.07878 12.4209C7.0822 12.7974 7.39372 13.0987 7.77029 13.0953C8.15027 13.0884 8.45151 12.7803 8.44466 12.4003C8.41728 10.4182 8.30432 8.55255 7.9038 6.59443C7.82506 6.22472 7.46562 5.98507 7.09248 6.06381C6.72277 6.13912 6.48312 6.50201 6.56186 6.87172Z" fill="#212121"/>
<path fill-rule="evenodd" clip-rule="evenodd" d="M6.62436 6.72147C5.51521 8.93976 4.94352 11.4045 3.75564 13.5749C3.57421 13.9035 3.69742 14.3212 4.02948 14.5026C4.36154 14.684 4.77578 14.5608 4.95722 14.2321C6.15195 12.0481 6.73046 9.56964 7.84988 7.33423C8.01762 6.99533 7.88068 6.58453 7.5452 6.41337C7.2063 6.24562 6.79552 6.38256 6.62436 6.72147Z" fill="#212121"/>
<path fill-rule="evenodd" clip-rule="evenodd" d="M7.23825 6.21784C5.03023 6.6081 2.82563 6.7861 0.60392 7.0497C0.227358 7.0942 -0.0396583 7.43312 0.00484444 7.80968C0.0493472 8.18624 0.388284 8.45326 0.764846 8.40875C3.01052 8.14516 5.2425 7.9603 7.47791 7.56662C7.84762 7.49815 8.09752 7.14213 8.03248 6.77241C7.96401 6.39927 7.61139 6.14938 7.23825 6.21784Z" fill="#212121"/>
<path fill-rule="evenodd" clip-rule="evenodd" d="M8.7801 5.17739C8.32481 5.15686 7.89347 5.12604 7.44844 5.06099C7.07188 5.00622 6.72612 5.26639 6.67135 5.63953C6.61657 6.01267 6.87672 6.36185 7.24986 6.41662C7.74281 6.48851 8.21866 6.52274 8.71846 6.54328C9.09503 6.5604 9.4168 6.26941 9.43049 5.88942C9.44761 5.51286 9.15666 5.19451 8.7801 5.17739Z" fill="#212121"/>
</svg>
