<svg width="19" height="20" viewBox="0 0 19 20" fill="none" xmlns="http://www.w3.org/2000/svg">
<path fill-rule="evenodd" clip-rule="evenodd" d="M7.31703 4.0038C7.26259 3.68076 7.22157 3.36138 7.19507 3.04196C7.15515 2.56283 7.17983 2.08005 7.16567 1.60092C7.1595 1.39765 7.13518 0.86772 7.14498 0.791495C7.23391 0.127253 7.77002 0.0256078 7.92683 0.00745914C8.00269 -0.00343008 8.78163 -0.0905049 8.94968 0.773373C9.15585 1.82963 9.22192 2.89313 9.14896 3.93486C9.31919 4.82052 9.61031 5.70252 9.9947 6.50107C11.5243 9.67709 14.4389 9.98562 17.5968 9.95658C18.0825 9.94932 18.4857 10.3304 18.5112 10.8132C18.5366 11.2996 18.175 11.7206 17.6916 11.7642C15.9264 11.9348 12.7947 13.3504 11.7119 14.8241C11.4854 15.1326 11.3537 15.8767 11.1794 16.6063C10.9362 17.619 10.647 18.6208 10.3228 19.0418C10.2742 19.1072 9.68289 19.7751 9.50648 19.8731C9.08253 20.1054 8.74316 19.971 8.55042 19.8476C8.35768 19.7242 8.13953 19.481 8.05242 19.0781C7.96131 18.6571 8.03826 17.7932 8.0241 17.6081C7.97256 16.9366 7.83827 15.619 7.56423 14.4865C7.4165 13.8767 7.25896 13.3141 6.99834 13.0346C6.03356 12.0001 4.49092 12.1526 3.19184 12.3232C3.04266 12.3413 2.89348 12.3631 2.74466 12.3813C2.2158 12.5373 1.65427 12.6535 1.06081 12.7224C0.164624 12.8277 0.0172665 12.0038 0.00928104 11.9493C-0.00741576 11.8295 -0.0694908 11.2125 0.606003 10.9657C0.679687 10.9403 1.22343 10.8205 1.43286 10.7733C1.72469 10.7079 2.01979 10.6571 2.31597 10.61C5.37548 9.65896 7.03718 6.98745 7.31703 4.0038ZM8.36712 7.30327C9.5221 9.69164 11.2749 10.8459 13.3526 11.3686H13.3522C12.0549 12.0473 10.8749 12.8967 10.2495 13.7497C10.0121 14.0727 9.79433 14.7224 9.59796 15.452C9.49161 14.7733 9.34788 14.0509 9.15804 13.4339C8.94207 12.7297 8.65132 12.1453 8.32682 11.7969C7.70033 11.1254 6.91412 10.7515 6.06876 10.5664C7.08073 9.66985 7.84806 8.5519 8.36712 7.30327Z" fill="#212121"/>
</svg>
