<svg width="13" height="13" viewBox="0 0 13 13" fill="none" xmlns="http://www.w3.org/2000/svg">
<path fill-rule="evenodd" clip-rule="evenodd" d="M1.51833 5.80832C2.10422 5.59956 2.72077 5.32209 3.19622 4.92038C3.7609 4.44325 3.99055 3.82874 4.14477 3.1819C4.34276 2.35088 4.42187 1.46562 4.66196 0.63325C4.75085 0.32414 4.92192 0.207296 4.99533 0.155441C5.18086 0.024456 5.3684 -0.0105561 5.54484 0.00257606C5.75395 0.0177285 6.04118 0.0968526 6.23008 0.447379C6.25702 0.497551 6.29203 0.57399 6.3156 0.678711C6.33277 0.755483 6.34388 0.99556 6.36207 1.09456C6.40752 1.33834 6.44557 1.58214 6.48127 1.82727C6.60013 2.64315 6.66849 3.33611 7.04393 4.08565C7.55339 5.10322 8.06387 5.72582 8.75617 6.00159C9.42557 6.26828 10.2259 6.21812 11.2486 6.00901C11.3459 5.98544 11.4422 5.96523 11.5375 5.94873C11.9883 5.86994 12.4193 6.16592 12.5079 6.61511C12.5965 7.06396 12.3099 7.50135 11.8631 7.60001C11.7698 7.62055 11.6779 7.64008 11.587 7.65793C10.2051 8.00004 8.6053 9.22099 7.67562 10.2901C7.38907 10.6197 6.96952 11.5413 6.54154 12.1292C6.2257 12.5629 5.87079 12.8488 5.57279 12.9498C5.37312 13.0179 5.20476 13.0074 5.0657 12.9731C4.86366 12.9232 4.69598 12.8138 4.56736 12.6397C4.49732 12.5444 4.43232 12.4168 4.40134 12.2538C4.38652 12.1754 4.38485 11.9761 4.38518 11.8858C4.29797 11.5858 4.19123 11.2928 4.11345 10.9901C3.92792 10.2679 3.56391 9.81059 3.13156 9.20651C2.72716 8.64115 2.29281 8.28592 1.65607 8.0024C1.57323 7.98219 0.904839 7.81854 0.668797 7.7246C0.323995 7.58688 0.159666 7.35622 0.100066 7.23197C-0.00128687 7.02118 -0.011716 6.83701 0.00848725 6.68346C0.0384554 6.45685 0.140146 6.2629 0.320628 6.10633C0.43242 6.00901 0.599435 5.91438 0.823018 5.86825C0.995756 5.83222 1.45401 5.81136 1.51833 5.80832ZM5.43945 4.63114C5.47043 4.70016 5.50343 4.76953 5.53845 4.83957C6.28463 6.3299 7.11902 7.16194 8.13322 7.56567L8.16724 7.5788C7.48874 8.08254 6.87455 8.64553 6.40516 9.1853C6.21188 9.40753 5.95599 9.86918 5.67954 10.3426C5.42835 9.52606 5.01755 8.94893 4.50101 8.22666C4.10638 7.67545 3.69289 7.26061 3.18477 6.92254C3.57907 6.72017 3.95519 6.48312 4.28282 6.20633C4.8283 5.74536 5.18893 5.21131 5.43945 4.63114Z" fill="black"/>
</svg>
