<svg width="126" height="94" viewBox="0 0 126 94" fill="none" xmlns="http://www.w3.org/2000/svg">
<path fill-rule="evenodd" clip-rule="evenodd" d="M100.215 13.1576C105.862 14.7913 109.727 18.7497 113.509 23.0636C125.908 37.2254 127.011 54.9449 112.986 68.8141C91.1924 90.3119 50.3373 98.1452 23.4457 83.8015C17.4882 80.6331 9.23669 77.1367 4.85715 67.4598C0.782336 58.4615 3.15203 49.456 7.8068 41.6959C12.5602 33.735 19.6934 27.0549 25.0886 22.9509C48.6659 5.05405 90.1871 -6.49955 120.963 11.9426C121.598 12.308 122.365 12.1159 122.711 11.5219C123.056 10.9279 122.875 10.1615 122.288 9.80759C90.6079 -9.17387 47.8125 2.53811 23.5461 20.9561C16.8302 26.0762 7.50636 35.0659 2.98158 45.5683C-0.0944239 52.7504 -0.962321 60.626 2.55634 68.4793C7.20133 78.7826 15.9363 82.6358 22.259 86.0049C50.0202 100.817 92.2582 92.7985 114.734 70.5881C129.826 55.6853 128.726 36.6419 115.39 21.418C111.331 16.7478 107.062 12.5333 100.932 10.7607C100.256 10.5658 99.5486 10.9449 99.3912 11.6159C99.185 12.2755 99.588 12.9741 100.215 13.1576Z" fill="#212121"/>
</svg>
