<svg width="98" height="58" viewBox="0 0 98 58" fill="none" xmlns="http://www.w3.org/2000/svg">
<path fill-rule="evenodd" clip-rule="evenodd" d="M69.9424 54.8949C78.6029 55.1037 87.4532 54.6861 95.734 57.6475C96.2275 57.8222 96.7705 57.5678 96.9489 57.0742C97.1236 56.5807 96.8692 56.0377 96.3756 55.8593C87.9012 52.8295 78.8497 53.2091 69.988 52.9965C69.464 52.9813 69.0274 53.399 69.016 53.9229C69.0008 54.4469 69.4185 54.8797 69.9424 54.8949Z" fill="#212121"/>
<path fill-rule="evenodd" clip-rule="evenodd" d="M69.162 42.3206C71.8616 39.8367 74.8079 37.976 78.3692 37.0537C78.878 36.9224 79.1817 36.4041 79.0526 35.8968C78.9197 35.3896 78.3996 35.0847 77.8946 35.2161C74.0219 36.2184 70.8136 38.2239 67.8787 40.923C67.4915 41.2776 67.4649 41.8787 67.8218 42.2644C68.1749 42.6498 68.7786 42.6752 69.162 42.3206Z" fill="#212121"/>
<path fill-rule="evenodd" clip-rule="evenodd" d="M61.6501 15.2029C62.8878 10.96 65.3253 7.64091 69.0614 5.244C69.5018 4.96114 69.6309 4.37341 69.3461 3.9326C69.0652 3.4918 68.4766 3.36345 68.0362 3.64631C63.9015 6.30026 61.1982 9.97326 59.8276 14.671C59.6795 15.1737 59.9719 15.7015 60.4731 15.848C60.978 15.995 61.5058 15.7056 61.6501 15.2029Z" fill="#212121"/>
<path fill-rule="evenodd" clip-rule="evenodd" d="M18.9933 9.44508C18.2568 10.3119 17.5961 11.2459 17.0342 12.2403C16.7836 12.683 16.3432 13.6238 16.2748 14.4306C16.1989 15.2902 16.4912 16.0154 17.243 16.3974C18.2415 16.9039 19.0389 16.8511 19.654 16.5447C20.2463 16.2504 20.7095 15.6722 21.0018 14.8969C21.5599 13.415 21.4764 11.1502 21.184 9.85781C21.97 9.04681 22.8319 8.31136 23.7545 7.65756C30.6266 2.78819 40.7071 4.58369 48.4639 11.8644C51.1786 14.4135 52.4847 19.767 53.1643 25.543C54.2236 34.5365 53.62 44.5812 53.5364 47.5241C53.5174 48.2508 53.5858 48.6821 53.6237 48.7683C53.8022 49.192 54.1173 49.3021 54.3375 49.3439C54.6565 49.4009 54.9108 49.3401 55.1158 49.2338C55.393 49.088 55.6209 48.8313 55.7272 48.4353C55.7841 48.2166 55.7993 47.9122 55.7917 47.5875C55.7841 47.3624 55.7385 47.1163 55.7841 46.955C56.0802 45.9215 56.4371 44.9123 56.7864 43.8959C57.9521 40.4792 59.4594 37.2774 61.1338 34.0793C66.4531 23.9176 71.5977 13.1807 80.3189 5.43872C80.7099 5.09132 80.7479 4.49067 80.3986 4.09884C80.0531 3.70701 79.4532 3.67132 79.0584 4.0191C70.1625 11.9141 64.8774 22.8359 59.4518 33.1989C58.028 35.9193 56.7219 38.6435 55.636 41.4929C55.7461 36.4523 55.7043 29.475 54.7817 23.3014C53.9616 17.8109 52.4012 12.9586 49.7624 10.4805C41.2652 2.50457 30.1824 0.774384 22.6572 6.10886C21.8523 6.67989 21.0854 7.30789 20.3716 7.98903C16.4343 0.879565 8.00545 -1.96994 0.556166 1.43046C0.0777716 1.64801 -0.131047 2.21146 0.0853689 2.68796C0.305582 3.16445 0.867485 3.3748 1.34588 3.15725C8.05858 0.0932473 15.6712 2.82768 18.9933 9.44508ZM19.5439 11.8253C19.2363 12.2596 18.9516 12.7099 18.6858 13.1754C18.5453 13.4253 18.3023 13.9055 18.1998 14.3756C18.177 14.4857 18.1732 14.6581 18.1732 14.7378C18.4352 14.8669 18.6402 14.9292 18.8073 14.8452C19.0161 14.742 19.1224 14.499 19.2249 14.2275C19.4831 13.5464 19.5666 12.6435 19.5439 11.8253Z" fill="#212121"/>
</svg>
